<svg width="11" height="20" viewBox="0 0 11 20" fill="none" xmlns="http://www.w3.org/2000/svg">
<path d="M1.59019 18.9711L9.79502 10.5541C9.93913 10.4063 10.0198 10.208 10.0198 10.0015C10.0198 9.79509 9.93913 9.5968 9.79502 9.44896L1.59019 1.02881C1.52306 0.959863 1.4428 0.905065 1.35415 0.867648C1.2655 0.830232 1.17025 0.810956 1.07402 0.810956C0.977797 0.810956 0.882546 0.830232 0.793894 0.867648C0.705241 0.905065 0.624983 0.959863 0.557855 1.02881C0.419754 1.17019 0.342438 1.36 0.342438 1.55764C0.342438 1.75528 0.419754 1.94508 0.557855 2.08647L8.27344 10.0015L0.557854 17.915C0.420225 18.0563 0.343209 18.2458 0.343209 18.4431C0.343209 18.6403 0.420225 18.8298 0.557854 18.9711C0.624981 19.0401 0.705239 19.0949 0.793892 19.1323C0.882545 19.1697 0.977796 19.189 1.07402 19.189C1.17025 19.189 1.2655 19.1697 1.35415 19.1323C1.4428 19.0949 1.52306 19.0401 1.59019 18.9711Z" fill="black"/>
</svg>
