<svg width="11" height="20" viewBox="0 0 11 20" fill="none" xmlns="http://www.w3.org/2000/svg">
<path d="M9.40981 1.02889L1.20498 9.44587C1.06088 9.59372 0.980225 9.792 0.980225 9.99846C0.980225 10.2049 1.06088 10.4032 1.20498 10.551L9.40981 18.9712C9.47694 19.0401 9.5572 19.0949 9.64585 19.1324C9.7345 19.1698 9.82975 19.189 9.92598 19.189C10.0222 19.189 10.1175 19.1698 10.2061 19.1324C10.2948 19.0949 10.375 19.0401 10.4421 18.9712C10.5802 18.8298 10.6576 18.64 10.6576 18.4424C10.6576 18.2447 10.5802 18.0549 10.4421 17.9135L2.72656 9.99846L10.4421 2.08497C10.5798 1.94365 10.6568 1.75419 10.6568 1.55693C10.6568 1.35967 10.5798 1.1702 10.4421 1.02889C10.375 0.959942 10.2948 0.905145 10.2061 0.867729C10.1175 0.830312 10.0222 0.811035 9.92598 0.811035C9.82975 0.811035 9.7345 0.830312 9.64585 0.867729C9.5572 0.905145 9.47694 0.959942 9.40981 1.02889Z" fill="black"/>
</svg>
