<svg width="10" height="7" viewBox="0 0 10 7" fill="none" xmlns="http://www.w3.org/2000/svg">
<path d="M0.226998 0.969834C0.367643 0.829231 0.558374 0.750244 0.757247 0.750244C0.956119 0.750244 1.14685 0.829231 1.2875 0.969834L4.99999 4.68233L8.71248 0.969834C8.85393 0.833216 9.04339 0.757619 9.24003 0.759328C9.43668 0.761037 9.62479 0.839914 9.76385 0.97897C9.9029 1.11803 9.98178 1.30614 9.98349 1.50278C9.9852 1.69943 9.9096 1.88888 9.77298 2.03033L5.53024 6.27308C5.38959 6.41369 5.19886 6.49267 4.99999 6.49267C4.80112 6.49267 4.61039 6.41369 4.46974 6.27308L0.226998 2.03033C0.0863946 1.88969 0.00740814 1.69896 0.00740814 1.50008C0.00740814 1.30121 0.0863946 1.11048 0.226998 0.969834Z" fill="black"/>
</svg>
