<svg width="65" height="65" viewBox="0 0 65 65" fill="none" xmlns="http://www.w3.org/2000/svg">
  <ellipse cx="32.5" cy="32.5" rx="32.5" ry="32.5" fill="white" fill-opacity="0.92"/>
  <path d="M36.622 17.1549L22.5875 31.5523C22.341 31.8052 22.203 32.1444 22.203 32.4976C22.203 32.8507 22.341 33.1899 22.5875 33.4428L36.622 47.8457C36.7369 47.9636 36.8741 48.0573 37.0258 48.1213C37.1774 48.1853 37.3404 48.2183 37.505 48.2183C37.6696 48.2183 37.8325 48.1853 37.9841 48.1213C38.1358 48.0573 38.273 47.9636 38.3879 47.8457C38.6241 47.6038 38.7563 47.2791 38.7563 46.9411C38.7563 46.603 38.6241 46.2783 38.3879 46.0365L25.1902 32.4976L38.3879 18.9613C38.6233 18.7196 38.755 18.3955 38.755 18.0581C38.755 17.7207 38.6233 17.3966 38.3879 17.1549C38.273 17.0369 38.1358 16.9432 37.9841 16.8792C37.8325 16.8152 37.6695 16.7822 37.5049 16.7822C37.3404 16.7822 37.1774 16.8152 37.0258 16.8792C36.8741 16.9432 36.7369 17.0369 36.622 17.1549Z" fill="black"/>
  </svg>
  