<svg width="24" height="24" viewBox="0 0 24 24" fill="none" xmlns="http://www.w3.org/2000/svg">
<circle cx="12" cy="12" r="12" fill="white" fill-opacity="0.92"/>
<path d="M13.522 6.33388L8.34001 11.6499C8.249 11.7432 8.19806 11.8685 8.19806 11.9989C8.19806 12.1293 8.249 12.2545 8.34001 12.3479L13.522 17.6659C13.5644 17.7094 13.6151 17.744 13.6711 17.7676C13.7271 17.7913 13.7872 17.8035 13.848 17.8035C13.9088 17.8035 13.9689 17.7913 14.0249 17.7676C14.0809 17.744 14.1316 17.7094 14.174 17.6659C14.2612 17.5766 14.3101 17.4567 14.3101 17.3319C14.3101 17.207 14.2612 17.0872 14.174 16.9979L9.30101 11.9989L14.174 7.00088C14.2609 6.91163 14.3096 6.79196 14.3096 6.66738C14.3096 6.54279 14.2609 6.42313 14.174 6.33388C14.1316 6.29034 14.0809 6.25573 14.0249 6.2321C13.9689 6.20846 13.9088 6.19629 13.848 6.19629C13.7872 6.19629 13.7271 6.20846 13.6711 6.2321C13.6151 6.25573 13.5644 6.29034 13.522 6.33388Z" fill="black"/>
</svg>
