<svg width="24" height="24" viewBox="0 0 60 60" fill="none" xmlns="http://www.w3.org/2000/svg">
<circle cx="30" cy="30" r="30" fill="black"/>
<path d="M35.3333 16.6666C36.0405 16.6666 36.7188 16.9476 37.2189 17.4477C37.719 17.9478 38 18.626 38 19.3333H19.3333V34.236C18.626 34.236 17.9478 33.955 17.4477 33.4549C16.9476 32.9548 16.6666 32.2765 16.6666 31.5693V19.3333C16.6666 18.626 16.9476 17.9478 17.4477 17.4477C17.9478 16.9476 18.626 16.6666 19.3333 16.6666H35.3333Z" fill="white"/>
<path d="M32.6667 43.3333L29.1107 39.5693H24.6667C23.9594 39.5693 23.2811 39.2884 22.781 38.7883C22.281 38.2882 22 37.6099 22 36.9027V24.6667C22 23.9594 22.281 23.2811 22.781 22.781C23.2811 22.281 23.9594 22 24.6667 22H40.6667C41.3739 22 42.0522 22.281 42.5523 22.781C43.0524 23.2811 43.3333 23.9594 43.3333 24.6667V36.9027C43.3333 37.6099 43.0524 38.2882 42.5523 38.7883C42.0522 39.2884 41.3739 39.5693 40.6667 39.5693H36.2227L32.6667 43.3333ZM35.0733 36.9027H40.6667V24.6667H24.6667V36.9027H30.26L32.6667 39.4493L35.0733 36.9027Z" fill="white"/>
</svg>
