<svg width="20" height="20" viewBox="0 0 20 20" fill="none" xmlns="http://www.w3.org/2000/svg">
<rect width="20" height="20" rx="4" fill="#484848"/>
<path fill-rule="evenodd" clip-rule="evenodd" d="M7.80847 15.2499C7.58997 15.2499 7.38097 15.1596 7.23134 15.0005L3.38147 10.9005C3.08143 10.5822 3.09805 10.0811 3.4163 9.78185C3.73535 9.4826 4.23647 9.49844 4.53493 9.81669L7.80055 13.2929L14.4569 6.00798C14.753 5.68419 15.2533 5.66281 15.5763 5.95731C15.8985 6.25181 15.9207 6.75294 15.6262 7.07515L8.39272 14.9918C8.24468 15.1549 8.0341 15.2483 7.81401 15.2499H7.80847Z" fill="#231F20"/>
<mask id="mask0_2587_9693" style="mask-type:alpha" maskUnits="userSpaceOnUse" x="3" y="5" width="13" height="11">
<path fill-rule="evenodd" clip-rule="evenodd" d="M7.80847 15.2499C7.58997 15.2499 7.38097 15.1596 7.23134 15.0005L3.38147 10.9005C3.08143 10.5822 3.09805 10.0811 3.4163 9.78185C3.73535 9.4826 4.23647 9.49844 4.53493 9.81669L7.80055 13.2929L14.4569 6.00798C14.753 5.68419 15.2533 5.66281 15.5763 5.95731C15.8985 6.25181 15.9207 6.75294 15.6262 7.07515L8.39272 14.9918C8.24468 15.1549 8.0341 15.2483 7.81401 15.2499H7.80847Z" fill="white"/>
</mask>
<g mask="url(#mask0_2587_9693)">
<rect y="1" width="19" height="19" fill="white"/>
</g>
</svg>
