<svg width="20" height="26" viewBox="0 0 20 26" fill="none" xmlns="http://www.w3.org/2000/svg">
<path d="M10.0004 0.999953C9.40611 0.554244 8.69946 0.282828 7.95961 0.216116C7.21977 0.149404 6.47596 0.290033 5.81154 0.622244C5.14711 0.954456 4.58833 1.46512 4.19779 2.09703C3.80725 2.72893 3.60039 3.45711 3.60039 4.19995V6.59995H2.00039C1.57604 6.59995 1.16908 6.76852 0.86902 7.06858C0.568962 7.36864 0.400391 7.77561 0.400391 8.19995V21C0.400391 22.273 0.906104 23.4939 1.80628 24.3941C2.70645 25.2942 3.92735 25.8 5.20039 25.8H15.6004C16.6613 25.8 17.6787 25.3785 18.4288 24.6284C19.179 23.8782 19.6004 22.8608 19.6004 21.8V8.19995C19.6004 7.77561 19.4318 7.36864 19.1318 7.06858C18.8317 6.76852 18.4247 6.59995 18.0004 6.59995H16.4004V4.19995C16.4004 3.45711 16.1935 2.72893 15.803 2.09703C15.4125 1.46512 14.8537 0.954456 14.1892 0.622244C13.5248 0.290033 12.781 0.149404 12.0412 0.216116C11.3013 0.282828 10.5947 0.554244 10.0004 0.999953ZM5.20039 4.19995C5.20039 3.56343 5.45325 2.95298 5.90333 2.5029C6.35342 2.05281 6.96387 1.79995 7.60039 1.79995C8.23691 1.79995 8.84736 2.05281 9.29745 2.5029C9.74753 2.95298 10.0004 3.56343 10.0004 4.19995V6.59995H5.20039V4.19995ZM11.0676 2.20315C11.429 1.96179 11.8493 1.82311 12.2834 1.80191C12.7175 1.78072 13.1492 1.87781 13.5324 2.08282C13.9157 2.28783 14.2361 2.59306 14.4594 2.96593C14.6827 3.33881 14.8006 3.76532 14.8004 4.19995V6.59995H11.6004V4.19995C11.6004 3.47355 11.4068 2.79195 11.0676 2.20315ZM5.20039 24.2C4.3517 24.2 3.53777 23.8628 2.93765 23.2627C2.33753 22.6626 2.00039 21.8486 2.00039 21V8.19995H11.6004V21.8C11.6004 22.7008 11.898 23.5312 12.4004 24.2H5.20039ZM18.0004 21.8C18.0004 22.4365 17.7475 23.0469 17.2974 23.497C16.8474 23.9471 16.2369 24.2 15.6004 24.2C14.9639 24.2 14.3534 23.9471 13.9033 23.497C13.4532 23.0469 13.2004 22.4365 13.2004 21.8V8.19995H18.0004V21.8Z" fill="black"/>
</svg>
