<svg width="24" height="24" viewBox="0 0 24 24" fill="none" xmlns="http://www.w3.org/2000/svg">
<circle cx="12" cy="12" r="11.5" stroke="black"/>
<path d="M7.22691 9.96959C7.36756 9.82899 7.55829 9.75 7.75716 9.75C7.95604 9.75 8.14677 9.82899 8.28741 9.96959L11.9999 13.6821L15.7124 9.96959C15.8539 9.83297 16.0433 9.75738 16.2399 9.75908C16.4366 9.76079 16.6247 9.83967 16.7638 9.97873C16.9028 10.1178 16.9817 10.3059 16.9834 10.5025C16.9851 10.6992 16.9095 10.8886 16.7729 11.0301L12.5302 15.2728C12.3895 15.4134 12.1988 15.4924 11.9999 15.4924C11.801 15.4924 11.6103 15.4134 11.4697 15.2728L7.22691 11.0301C7.08631 10.8894 7.00732 10.6987 7.00732 10.4998C7.00732 10.301 7.08631 10.1102 7.22691 9.96959Z" fill="black"/>
</svg>
