<svg width="30" height="22" viewBox="0 0 30 22" fill="none" xmlns="http://www.w3.org/2000/svg">
<path d="M25.6662 5.66658H22.1107V1.22214C22.1107 0.986393 22.017 0.760301 21.8503 0.593602C21.6836 0.426903 21.4575 0.333252 21.2218 0.333252H1.66623C1.43048 0.333252 1.20439 0.426903 1.03769 0.593602C0.870994 0.760301 0.777344 0.986393 0.777344 1.22214V17.2221C0.777344 17.4579 0.870994 17.684 1.03769 17.8507C1.20439 18.0174 1.43048 18.111 1.66623 18.111H2.55512V2.11103H20.3329V14.1021C19.7885 14.2754 19.2881 14.5646 18.8661 14.9498C18.4441 15.3349 18.1106 15.8069 17.8885 16.3332H11.8262C11.5203 15.6036 11.0048 14.981 10.3451 14.5443C9.68526 14.1076 8.91078 13.8764 8.11957 13.8799C7.36781 13.8965 6.63694 14.1304 6.01526 14.5534C5.39359 14.9764 4.9077 15.5704 4.61632 16.2636C4.32493 16.9568 4.24051 17.7195 4.37326 18.4596C4.506 19.1998 4.85024 19.8856 5.36436 20.4343C5.87849 20.983 6.54052 21.3711 7.27045 21.5517C8.00038 21.7323 8.76699 21.6976 9.47765 21.4519C10.1883 21.2062 10.8126 20.76 11.2751 20.1671C11.7377 19.5742 12.0186 18.8601 12.084 18.111H17.6662C17.77 19.089 18.2319 19.9939 18.963 20.6516C19.6942 21.3093 20.6428 21.6731 21.6262 21.6731C22.6096 21.6731 23.5583 21.3093 24.2894 20.6516C25.0206 19.9939 25.4825 19.089 25.5862 18.111H29.2218V9.22214C29.2218 8.27915 28.8472 7.37478 28.1804 6.70798C27.5136 6.04119 26.6092 5.66658 25.6662 5.66658ZM8.11957 19.8888C7.83081 19.9076 7.54128 19.8669 7.26887 19.7693C6.99647 19.6716 6.74699 19.5192 6.53585 19.3213C6.32472 19.1234 6.15642 18.8844 6.04137 18.6189C5.92631 18.3533 5.86695 18.0671 5.86695 17.7777C5.86695 17.4883 5.92631 17.202 6.04137 16.9365C6.15642 16.671 6.32472 16.4319 6.53585 16.2341C6.74699 16.0362 6.99647 15.8837 7.26887 15.7861C7.54128 15.6885 7.83081 15.6478 8.11957 15.6666C8.40832 15.6478 8.69785 15.6885 8.97026 15.7861C9.24266 15.8837 9.49214 16.0362 9.70328 16.2341C9.91442 16.4319 10.0827 16.671 10.1978 16.9365C10.3128 17.202 10.3722 17.4883 10.3722 17.7777C10.3722 18.0671 10.3128 18.3533 10.1978 18.6189C10.0827 18.8844 9.91442 19.1234 9.70328 19.3213C9.49214 19.5192 9.24266 19.6716 8.97026 19.7693C8.69785 19.8669 8.40832 19.9076 8.11957 19.8888ZM21.604 19.8888C21.1904 19.8679 20.792 19.7261 20.4583 19.4809C20.1245 19.2358 19.87 18.898 19.7264 18.5096C19.5828 18.1211 19.5563 17.6991 19.6504 17.2957C19.7444 16.8924 19.9547 16.5256 20.2552 16.2406C20.5558 15.9557 20.9333 15.7653 21.3411 15.6929C21.7489 15.6206 22.1689 15.6695 22.5491 15.8336C22.9294 15.9978 23.253 16.2699 23.4801 16.6162C23.7071 16.9626 23.8274 17.368 23.8262 17.7821C23.8182 18.067 23.7541 18.3475 23.6376 18.6075C23.5211 18.8676 23.3544 19.1022 23.1472 19.2978C22.94 19.4935 22.6963 19.6464 22.43 19.7478C22.1637 19.8492 21.88 19.8971 21.5951 19.8888H21.604ZM27.444 10.111H22.1107V7.44436H25.6662C26.1377 7.44436 26.5899 7.63166 26.9233 7.96506C27.2567 8.29846 27.444 8.75064 27.444 9.22214V10.111Z" fill="black"/>
</svg>
