<svg width="51" height="51" viewBox="0 0 51 51" fill="none" xmlns="http://www.w3.org/2000/svg">
<path d="M1.58542e-06 25.5C9.94174e-07 18.737 2.6866 12.251 7.46878 7.46878C12.251 2.6866 18.737 -9.94175e-07 25.5 -1.58542e-06C32.263 -2.17666e-06 38.749 2.6866 43.5312 7.46877C48.3134 12.251 51 18.737 51 25.5C51 32.263 48.3134 38.749 43.5312 43.5312C38.749 48.3134 32.263 51 25.5 51C18.737 51 12.251 48.3134 7.46878 43.5312C2.6866 38.749 2.17666e-06 32.263 1.58542e-06 25.5ZM23.9063 36.6563C23.9063 37.0789 24.0742 37.4843 24.373 37.7832C24.6719 38.0821 25.0773 38.25 25.5 38.25C25.9227 38.25 26.3281 38.0821 26.627 37.7832C26.9258 37.4843 27.0938 37.0789 27.0938 36.6563L27.0937 18.1911L33.9341 25.0346C34.2334 25.3339 34.6393 25.502 35.0625 25.502C35.4857 25.502 35.8916 25.3339 36.1909 25.0346C36.4901 24.7354 36.6583 24.3295 36.6583 23.9062C36.6583 23.483 36.4901 23.0771 36.1909 22.7779L26.6284 13.2154C26.4803 13.067 26.3045 12.9492 26.1108 12.8689C25.9172 12.7885 25.7096 12.7472 25.5 12.7472C25.2904 12.7472 25.0828 12.7885 24.8892 12.8689C24.6955 12.9492 24.5197 13.067 24.3716 13.2154L14.8091 22.7779C14.5099 23.0771 14.3417 23.483 14.3417 23.9063C14.3417 24.3295 14.5099 24.7354 14.8091 25.0346C15.1084 25.3339 15.5143 25.502 15.9375 25.502C16.3607 25.502 16.7666 25.3339 17.0659 25.0346L23.9062 18.1911L23.9063 36.6563Z" fill="black"/>
</svg>
