<svg width="32" height="22" viewBox="0 0 32 22" fill="none" xmlns="http://www.w3.org/2000/svg">
<path d="M28.732 15.9845C28.0539 15.6429 27.4884 15.1133 27.103 14.459C24.9401 14.8893 22.746 15.1444 20.542 15.2218C17.767 15.2218 15.5268 15.0898 16.4418 12.5038C17.3568 9.91779 19.7853 4.58679 20.6365 3.51429C21.4878 2.44179 22.651 1.08429 23.2233 1.14804C23.9328 1.22754 25.2595 2.11104 25.1103 2.67354C24.9685 3.20979 24.2643 4.38129 23.05 3.54729" stroke="white" stroke-linecap="round" stroke-linejoin="round"/>
<path d="M3.26801 15.9845C3.94613 15.6429 4.51162 15.1133 4.89701 14.459C7.05993 14.8893 9.25405 15.1444 11.458 15.2218C14.233 15.2218 16.4733 15.0898 15.5583 12.5038C14.6433 9.91779 12.2148 4.58679 11.3635 3.51429C10.5123 2.44179 9.34901 1.08429 8.77676 1.14804C8.06726 1.22754 6.74051 2.11104 6.88976 2.67354C7.03151 3.20979 7.73576 4.38129 8.95001 3.54729M22.648 4.13004C22.917 3.67981 23.2429 3.26615 23.6178 2.89929L22.648 4.13004ZM24.955 3.05454C25.3803 2.94654 26.185 3.49104 25.7305 4.05054C25.1568 4.60808 24.4131 4.95764 23.6178 5.04354C23.149 5.08554 21.52 5.02854 21.52 5.02854C20.8263 6.22629 20.9838 8.05629 20.92 9.66504C20.8879 10.6152 20.6628 11.5489 20.2585 12.4093C23.0335 11.1155 27.7653 10.1375 30.625 10.6108L24.955 3.05454Z" stroke="white" stroke-linecap="round" stroke-linejoin="round"/>
<path d="M22.1357 1.80645C18.1391 0.564191 13.8594 0.564191 9.86275 1.80645M9.352 4.12995C9.08323 3.67977 8.75755 3.26611 8.383 2.8992L9.352 4.12995ZM7.045 3.05445C6.61975 2.94645 5.815 3.49095 6.2695 4.05045C6.84337 4.60815 7.58739 4.95772 8.383 5.04345C8.851 5.08545 10.48 5.02845 10.48 5.02845C11.1737 6.2262 11.0163 8.0562 11.08 9.66495C11.1121 10.6151 11.3372 11.5488 11.7415 12.4092C8.9665 11.1147 4.23475 10.1375 1.375 10.61L7.045 3.05445Z" stroke="white" stroke-linecap="round" stroke-linejoin="round"/>
<path d="M6.18775 3.49255C3.232 5.34505 1.375 8.02255 1.375 11.0001C1.375 16.5921 7.9225 21.1251 16 21.1251C24.0775 21.1251 30.625 16.5921 30.625 11.0001C30.625 8.02255 28.768 5.34505 25.8123 3.49255" stroke="white" stroke-linecap="round" stroke-linejoin="round"/>
</svg>
