<svg width="25" height="27" viewBox="0 0 25 27" fill="none" xmlns="http://www.w3.org/2000/svg">
<path d="M15.1413 2.46C15.1695 2.42462 15.2045 2.39533 15.2443 2.3739C15.2841 2.35248 15.3278 2.33938 15.3728 2.33539C15.4179 2.33139 15.4632 2.3366 15.5062 2.35069C15.5491 2.36478 15.5888 2.38745 15.6227 2.41734L16.8507 3.5L12.9853 8.33334H15.5467L18.3547 4.824L20.5573 6.76667C20.6225 6.82423 20.6625 6.90494 20.669 6.99162C20.6755 7.0783 20.6479 7.16408 20.592 7.23067L19.672 8.33334H22.264C22.5851 7.86331 22.7232 7.29212 22.6525 6.72731C22.5818 6.1625 22.307 5.64302 21.88 5.26667L16.9467 0.916005C16.7087 0.706409 16.4305 0.547527 16.129 0.449062C15.8275 0.350597 15.5092 0.314615 15.1934 0.343315C14.8775 0.372016 14.5709 0.464795 14.2921 0.615987C14.0133 0.767178 13.7683 0.973609 13.572 1.22267L7.968 8.33334H10.5147L15.1413 2.46ZM17.6667 17.6667C17.4014 17.6667 17.1471 17.772 16.9596 17.9596C16.772 18.1471 16.6667 18.4015 16.6667 18.6667C16.6667 18.9319 16.772 19.1862 16.9596 19.3738C17.1471 19.5613 17.4014 19.6667 17.6667 19.6667H20.3333C20.5985 19.6667 20.8529 19.5613 21.0404 19.3738C21.228 19.1862 21.3333 18.9319 21.3333 18.6667C21.3333 18.4015 21.228 18.1471 21.0404 17.9596C20.8529 17.772 20.5985 17.6667 20.3333 17.6667H17.6667ZM2 8.66667C2 8.40145 2.10536 8.1471 2.29289 7.95956C2.48043 7.77203 2.73478 7.66667 3 7.66667H7.17067L8.76 5.66667H3C2.20435 5.66667 1.44129 5.98274 0.87868 6.54535C0.31607 7.10796 0 7.87102 0 8.66667V22.6667C0 23.8159 0.456546 24.9181 1.2692 25.7308C2.08186 26.5435 3.18406 27 4.33333 27H20.3333C21.4826 27 22.5848 26.5435 23.3975 25.7308C24.2101 24.9181 24.6667 23.8159 24.6667 22.6667V14C24.6667 12.8507 24.2101 11.7485 23.3975 10.9359C22.5848 10.1232 21.4826 9.66667 20.3333 9.66667H3C2.73478 9.66667 2.48043 9.56131 2.29289 9.37378C2.10536 9.18624 2 8.93189 2 8.66667ZM2 22.6667V11.496C2.31333 11.6067 2.64933 11.6667 3 11.6667H20.3333C21.6213 11.6667 22.6667 12.712 22.6667 14V22.6667C22.6667 23.2855 22.4208 23.879 21.9832 24.3166C21.5457 24.7542 20.9522 25 20.3333 25H4.33333C3.71449 25 3.121 24.7542 2.68342 24.3166C2.24583 23.879 2 23.2855 2 22.6667Z" fill="black"/>
</svg>
