<svg width="20" height="21" viewBox="0 0 20 21" fill="none" xmlns="http://www.w3.org/2000/svg">
<path d="M1 3.03817C1 1.92517 1.89543 1.0229 3 1.0229H6.27924C6.70967 1.0229 7.09181 1.30044 7.22792 1.7119L8.72574 6.23964C8.88311 6.71535 8.66938 7.23528 8.22427 7.45953L5.96701 8.59678C7.06925 11.0602 9.03878 13.0447 11.4835 14.1554L12.6121 11.8809C12.8347 11.4324 13.3507 11.217 13.8228 11.3756L18.3162 12.8848C18.7246 13.022 19 13.4071 19 13.8408V17.145C19 18.258 18.1046 19.1603 17 19.1603H16C7.71573 19.1603 1 12.3933 1 4.0458V3.03817Z" stroke="#0A0A0A" stroke-width="2" stroke-linecap="round" stroke-linejoin="round"/>
</svg>
