<svg width="12" height="15" viewBox="0 0 12 15" fill="none" xmlns="http://www.w3.org/2000/svg">
<path d="M5.54167 14.2528C4.54174 13.3999 3.6149 12.4648 2.77083 11.4574C1.50417 9.94453 6.95791e-07 7.69145 6.95791e-07 5.54445C-0.00054864 4.44796 0.324195 3.37595 0.933133 2.46409C1.54207 1.55223 2.40783 0.841517 3.42085 0.421885C4.43386 0.00225365 5.54859 -0.107429 6.62397 0.106718C7.69934 0.320865 8.68702 0.849215 9.462 1.6249C9.97797 2.13858 10.3869 2.7495 10.6652 3.42228C10.9435 4.09507 11.0857 4.81637 11.0833 5.54445C11.0833 7.69145 9.57917 9.94453 8.3125 11.4574C7.46843 12.4648 6.54159 13.3999 5.54167 14.2528ZM5.54167 1.58611C4.49224 1.58737 3.48615 2.00481 2.74409 2.74687C2.00203 3.48893 1.58459 4.49502 1.58333 5.54445C1.58333 6.46753 2.00054 8.0659 3.98604 10.4417C4.47539 11.026 4.99463 11.5846 5.54167 12.1153C6.08872 11.5852 6.60821 11.0274 7.09808 10.4441C9.08279 8.06511 9.5 6.46674 9.5 5.54445C9.49874 4.49502 9.0813 3.48893 8.33924 2.74687C7.59718 2.00481 6.5911 1.58737 5.54167 1.58611ZM5.54167 7.91945C4.91178 7.91945 4.30769 7.66922 3.86229 7.22382C3.41689 6.77843 3.16667 6.17433 3.16667 5.54445C3.16667 4.91456 3.41689 4.31047 3.86229 3.86507C4.30769 3.41967 4.91178 3.16945 5.54167 3.16945C6.17156 3.16945 6.77565 3.41967 7.22105 3.86507C7.66645 4.31047 7.91667 4.91456 7.91667 5.54445C7.91667 6.17433 7.66645 6.77843 7.22105 7.22382C6.77565 7.66922 6.17156 7.91945 5.54167 7.91945Z" fill="white"/>
</svg>
