<?xml version="1.0" encoding="UTF-8"?><svg id="Layer_1" xmlns="http://www.w3.org/2000/svg" viewBox="0 0 24 24"><defs><style>.cls-1{fill:#fff;}</style></defs><path class="cls-1" d="m10.2,8.99v4.02c-.58-.15-1.14-.18-1.72-.06-1.62.35-2.77,1.88-2.61,3.51.17,1.75,1.55,3.06,3.25,3.09,1.71.03,3.15-1.19,3.37-2.88.03-.22.04-.45.04-.67,0-5.05,0-10.1,0-15.15v-.36h3.96c.02,1.52.57,2.82,1.63,3.88,1.07,1.07,2.37,1.59,3.9,1.62v3.91c-1.99,0-3.79-.59-5.48-1.74,0,.15,0,.25,0,.34,0,2.56,0,5.11,0,7.67-.02,3.55-2.37,6.44-5.84,7.19-4.01.87-8.09-1.96-8.66-6.01-.55-3.88,1.84-7.37,5.64-8.24.82-.19,1.65-.21,2.51-.11Z"/></svg>