<svg width="32" height="32" viewBox="0 0 32 32" fill="none" xmlns="http://www.w3.org/2000/svg">
<path d="M22.6667 29.3334H9.33333C8.62609 29.3334 7.94781 29.0525 7.44772 28.5524C6.94762 28.0523 6.66667 27.374 6.66667 26.6667V9.33342H4V6.66675H9.33333V5.33341C9.33333 4.62617 9.61428 3.94789 10.1144 3.4478C10.6145 2.9477 11.2928 2.66675 12 2.66675H20C20.7072 2.66675 21.3855 2.9477 21.8856 3.4478C22.3857 3.94789 22.6667 4.62617 22.6667 5.33341V6.66675H28V9.33342H25.3333V26.6667C25.3333 27.374 25.0524 28.0523 24.5523 28.5524C24.0522 29.0525 23.3739 29.3334 22.6667 29.3334ZM9.33333 9.33342V26.6667H22.6667V9.33342H9.33333ZM12 5.33341V6.66675H20V5.33341H12ZM20 24.0001H17.3333V12.0001H20V24.0001ZM14.6667 24.0001H12V12.0001H14.6667V24.0001Z" fill="black"/>
</svg>
