<svg width="10" height="7" viewBox="0 0 10 7" fill="none" xmlns="http://www.w3.org/2000/svg">
<path d="M0.226914 0.96959C0.367559 0.828987 0.55829 0.75 0.757163 0.75C0.956035 0.75 1.14677 0.828987 1.28741 0.96959L4.99991 4.68209L8.7124 0.96959C8.85385 0.832971 9.0433 0.757375 9.23995 0.759084C9.4366 0.760793 9.62471 0.83967 9.76376 0.978726C9.90282 1.11778 9.98169 1.30589 9.9834 1.50254C9.98511 1.69919 9.90952 1.88864 9.7729 2.03009L5.53015 6.27284C5.38951 6.41344 5.19878 6.49243 4.99991 6.49243C4.80103 6.49243 4.6103 6.41344 4.46966 6.27284L0.226914 2.03009C0.0863106 1.88944 0.00732422 1.69871 0.00732422 1.49984C0.00732422 1.30097 0.0863106 1.11024 0.226914 0.96959Z" fill="black"/>
</svg>
