<svg width="18" height="18" viewBox="0 0 18 18" fill="none" xmlns="http://www.w3.org/2000/svg">
<g clip-path="url(#clip0_3890_12907)">
<path d="M2.57139 4.50021C3.63651 4.50021 4.49997 3.63676 4.49997 2.57164C4.49997 1.50652 3.63651 0.643066 2.57139 0.643066C1.50627 0.643066 0.642822 1.50652 0.642822 2.57164C0.642822 3.63676 1.50627 4.50021 2.57139 4.50021Z" stroke="black" stroke-width="1.71429" stroke-linecap="round" stroke-linejoin="round"/>
<path d="M4.5 2.57178H17.3571" stroke="black" stroke-width="1.71429" stroke-linecap="round" stroke-linejoin="round"/>
<path d="M8.99998 10.9289C10.0651 10.9289 10.9286 10.0655 10.9286 9.00035C10.9286 7.93523 10.0651 7.07178 8.99998 7.07178C7.93486 7.07178 7.07141 7.93523 7.07141 9.00035C7.07141 10.0655 7.93486 10.9289 8.99998 10.9289Z" stroke="black" stroke-width="1.71429" stroke-linecap="round" stroke-linejoin="round"/>
<path d="M0.642822 9H7.07139" stroke="black" stroke-width="1.71429" stroke-linecap="round" stroke-linejoin="round"/>
<path d="M10.9286 9H17.3572" stroke="black" stroke-width="1.71429" stroke-linecap="round" stroke-linejoin="round"/>
<path d="M15.4286 17.3571C16.4937 17.3571 17.3571 16.4937 17.3571 15.4286C17.3571 14.3635 16.4937 13.5 15.4286 13.5C14.3635 13.5 13.5 14.3635 13.5 15.4286C13.5 16.4937 14.3635 17.3571 15.4286 17.3571Z" stroke="black" stroke-width="1.71429" stroke-linecap="round" stroke-linejoin="round"/>
<path d="M13.5 15.4287H0.642822" stroke="black" stroke-width="1.71429" stroke-linecap="round" stroke-linejoin="round"/>
</g>
<defs>
<clipPath id="clip0_3890_12907">
<rect width="18" height="18" fill="white"/>
</clipPath>
</defs>
</svg>
