<svg width="38" height="38" viewBox="0 0 38 38" fill="none" xmlns="http://www.w3.org/2000/svg">
<circle cx="19" cy="19" r="19" fill="white" fill-opacity="0.92"/>
<path d="M21.4091 10.0286L13.2042 18.4456C13.0601 18.5935 12.9795 18.7918 12.9795 18.9982C12.9795 19.2047 13.0601 19.403 13.2042 19.5508L21.4091 27.9709C21.4762 28.0399 21.5565 28.0947 21.6451 28.1321C21.7338 28.1695 21.829 28.1888 21.9252 28.1888C22.0215 28.1888 22.1167 28.1695 22.2054 28.1321C22.294 28.0947 22.3743 28.0399 22.4414 27.9709C22.5795 27.8296 22.6568 27.6398 22.6568 27.4421C22.6568 27.2445 22.5795 27.0547 22.4414 26.9133L14.7258 18.9982L22.4414 11.0847C22.579 10.9434 22.6561 10.7539 22.6561 10.5567C22.6561 10.3594 22.579 10.17 22.4414 10.0286C22.3743 9.9597 22.294 9.9049 22.2054 9.86748C22.1167 9.83007 22.0215 9.81079 21.9252 9.81079C21.829 9.81079 21.7338 9.83007 21.6451 9.86748C21.5565 9.9049 21.4762 9.9597 21.4091 10.0286Z" fill="black"/>
</svg>
