<svg width="38" height="38" viewBox="0 0 38 38" fill="none" xmlns="http://www.w3.org/2000/svg">
<circle cx="19" cy="19" r="19" transform="rotate(-180 19 19)" fill="white" fill-opacity="0.92"/>
<path d="M16.5909 27.9714L24.7958 19.5544C24.9399 19.4065 25.0205 19.2082 25.0205 19.0018C25.0205 18.7953 24.9399 18.597 24.7958 18.4492L16.5909 10.0291C16.5238 9.96011 16.4435 9.90531 16.3549 9.86789C16.2662 9.83048 16.171 9.8112 16.0748 9.8112C15.9785 9.8112 15.8833 9.83048 15.7946 9.86789C15.706 9.90531 15.6257 9.96011 15.5586 10.029C15.4205 10.1704 15.3432 10.3602 15.3432 10.5579C15.3432 10.7555 15.4205 10.9453 15.5586 11.0867L23.2742 19.0018L15.5586 26.9153C15.421 27.0566 15.3439 27.2461 15.3439 27.4433C15.3439 27.6406 15.421 27.83 15.5586 27.9714C15.6257 28.0403 15.706 28.0951 15.7946 28.1325C15.8833 28.1699 15.9785 28.1892 16.0748 28.1892C16.171 28.1892 16.2662 28.1699 16.3549 28.1325C16.4435 28.0951 16.5238 28.0403 16.5909 27.9714Z" fill="black"/>
</svg>
