<svg width="22" height="20" viewBox="0 0 22 20" fill="none" xmlns="http://www.w3.org/2000/svg">
<path fill-rule="evenodd" clip-rule="evenodd" d="M17.417 8.99509H11.917V4.14627C11.917 3.69937 11.5063 3.33813 11.0003 3.33813C10.4943 3.33813 10.0837 3.69937 10.0837 4.14627V8.99509H4.58366C4.07766 8.99509 3.66699 9.35632 3.66699 9.80322C3.66699 10.2501 4.07766 10.6114 4.58366 10.6114H10.0837V15.4602C10.0837 15.9071 10.4943 16.2683 11.0003 16.2683C11.5063 16.2683 11.917 15.9071 11.917 15.4602V10.6114H17.417C17.923 10.6114 18.3337 10.2501 18.3337 9.80322C18.3337 9.35632 17.923 8.99509 17.417 8.99509Z" fill="#231F20"/>
<mask id="mask0_2_2686" style="mask-type:alpha" maskUnits="userSpaceOnUse" x="3" y="3" width="16" height="14">
<path fill-rule="evenodd" clip-rule="evenodd" d="M17.417 8.99509H11.917V4.14627C11.917 3.69937 11.5063 3.33813 11.0003 3.33813C10.4943 3.33813 10.0837 3.69937 10.0837 4.14627V8.99509H4.58366C4.07766 8.99509 3.66699 9.35632 3.66699 9.80322C3.66699 10.2501 4.07766 10.6114 4.58366 10.6114H10.0837V15.4602C10.0837 15.9071 10.4943 16.2683 11.0003 16.2683C11.5063 16.2683 11.917 15.9071 11.917 15.4602V10.6114H17.417C17.923 10.6114 18.3337 10.2501 18.3337 9.80322C18.3337 9.35632 17.923 8.99509 17.417 8.99509Z" fill="white"/>
</mask>
<g mask="url(#mask0_2_2686)">
<rect y="0.105469" width="22" height="19.3953" fill="#0D1C2E"/>
</g>
</svg>
