<svg width="16" height="17" viewBox="0 0 16 17" fill="none" xmlns="http://www.w3.org/2000/svg">
<g clip-path="url(#clip0_2_2696)">
<path d="M2.97 1.73965C3.06389 1.62988 3.18044 1.54176 3.31163 1.48134C3.44283 1.42092 3.58556 1.38964 3.73 1.38965H12.27C12.4144 1.38964 12.5572 1.42092 12.6884 1.48134C12.8196 1.54176 12.9361 1.62988 13.03 1.73965L15.639 4.78365C15.8719 5.05548 16 5.40166 16 5.75965V6.01465C16.0001 6.50962 15.8455 6.99225 15.5578 7.39507C15.2702 7.79789 14.8639 8.10078 14.3957 8.26139C13.9275 8.42201 13.4208 8.43233 12.9465 8.29092C12.4721 8.1495 12.0538 7.86342 11.75 7.47265C11.5281 7.75842 11.2438 7.98962 10.9188 8.14857C10.5938 8.30751 10.2368 8.38998 9.875 8.38965C9.51321 8.39005 9.15612 8.30762 8.83112 8.14867C8.50611 7.98972 8.22181 7.75847 8 7.47265C7.77819 7.75847 7.49389 7.98972 7.16888 8.14867C6.84388 8.30762 6.48679 8.39005 6.125 8.38965C5.76321 8.39005 5.40612 8.30762 5.08112 8.14867C4.75611 7.98972 4.47181 7.75847 4.25 7.47265C3.94619 7.86342 3.52788 8.1495 3.05354 8.29092C2.57919 8.43233 2.07252 8.42201 1.60432 8.26139C1.13613 8.10078 0.729823 7.79789 0.442182 7.39507C0.154542 6.99225 -5.45986e-05 6.50962 1.44645e-08 6.01465V5.75965C1.26075e-05 5.40166 0.128057 5.05548 0.361 4.78365L2.971 1.73865L2.97 1.73965ZM4.75 6.01465C4.75 6.37932 4.89487 6.72906 5.15273 6.98692C5.41059 7.24478 5.76033 7.38965 6.125 7.38965C6.48967 7.38965 6.83941 7.24478 7.09727 6.98692C7.35513 6.72906 7.5 6.37932 7.5 6.01465C7.5 5.88204 7.55268 5.75486 7.64645 5.6611C7.74021 5.56733 7.86739 5.51465 8 5.51465C8.13261 5.51465 8.25979 5.56733 8.35355 5.6611C8.44732 5.75486 8.5 5.88204 8.5 6.01465C8.5 6.37932 8.64487 6.72906 8.90273 6.98692C9.16059 7.24478 9.51033 7.38965 9.875 7.38965C10.2397 7.38965 10.5894 7.24478 10.8473 6.98692C11.1051 6.72906 11.25 6.37932 11.25 6.01465C11.25 5.88204 11.3027 5.75486 11.3964 5.6611C11.4902 5.56733 11.6174 5.51465 11.75 5.51465C11.8826 5.51465 12.0098 5.56733 12.1036 5.6611C12.1973 5.75486 12.25 5.88204 12.25 6.01465C12.25 6.37932 12.3949 6.72906 12.6527 6.98692C12.9106 7.24478 13.2603 7.38965 13.625 7.38965C13.9897 7.38965 14.3394 7.24478 14.5973 6.98692C14.8551 6.72906 15 6.37932 15 6.01465V5.75965C15 5.64048 14.9575 5.52522 14.88 5.43465L12.27 2.38965H3.73L1.12 5.43465C1.04255 5.52522 0.999991 5.64048 1 5.75965V6.01465C1 6.37932 1.14487 6.72906 1.40273 6.98692C1.66059 7.24478 2.01033 7.38965 2.375 7.38965C2.73967 7.38965 3.08941 7.24478 3.34727 6.98692C3.60513 6.72906 3.75 6.37932 3.75 6.01465C3.75 5.88204 3.80268 5.75486 3.89645 5.6611C3.99021 5.56733 4.11739 5.51465 4.25 5.51465C4.38261 5.51465 4.50979 5.56733 4.60355 5.6611C4.69732 5.75486 4.75 5.88204 4.75 6.01465ZM1.5 8.88965C1.63261 8.88965 1.75979 8.94233 1.85355 9.03609C1.94732 9.12986 2 9.25704 2 9.38965V15.3896H14V9.38965C14 9.25704 14.0527 9.12986 14.1464 9.03609C14.2402 8.94233 14.3674 8.88965 14.5 8.88965C14.6326 8.88965 14.7598 8.94233 14.8536 9.03609C14.9473 9.12986 15 9.25704 15 9.38965V15.3896H15.5C15.6326 15.3896 15.7598 15.4423 15.8536 15.5361C15.9473 15.6299 16 15.757 16 15.8896C16 16.0223 15.9473 16.1494 15.8536 16.2432C15.7598 16.337 15.6326 16.3896 15.5 16.3896H0.5C0.367392 16.3896 0.240215 16.337 0.146447 16.2432C0.0526784 16.1494 1.44645e-08 16.0223 1.44645e-08 15.8896C1.44645e-08 15.757 0.0526784 15.6299 0.146447 15.5361C0.240215 15.4423 0.367392 15.3896 0.5 15.3896H1V9.38965C1 9.25704 1.05268 9.12986 1.14645 9.03609C1.24021 8.94233 1.36739 8.88965 1.5 8.88965ZM3.5 9.38965C3.63261 9.38965 3.75979 9.44233 3.85355 9.53609C3.94732 9.62986 4 9.75704 4 9.88965V13.3896H12V9.88965C12 9.75704 12.0527 9.62986 12.1464 9.53609C12.2402 9.44233 12.3674 9.38965 12.5 9.38965C12.6326 9.38965 12.7598 9.44233 12.8536 9.53609C12.9473 9.62986 13 9.75704 13 9.88965V13.3896C13 13.6549 12.8946 13.9092 12.7071 14.0968C12.5196 14.2843 12.2652 14.3896 12 14.3896H4C3.73478 14.3896 3.48043 14.2843 3.29289 14.0968C3.10536 13.9092 3 13.6549 3 13.3896V9.88965C3 9.75704 3.05268 9.62986 3.14645 9.53609C3.24021 9.44233 3.36739 9.38965 3.5 9.38965Z" fill="black"/>
</g>
<defs>
<clipPath id="clip0_2_2696">
<rect width="16" height="16" fill="white" transform="translate(0 0.389648)"/>
</clipPath>
</defs>
</svg>
