<svg width="24" height="24" viewBox="0 0 24 24" fill="none" xmlns="http://www.w3.org/2000/svg">
<path fill-rule="evenodd" clip-rule="evenodd" d="M17.4988 14.382C17.1994 14.233 15.7313 13.515 15.458 13.415C15.1847 13.316 14.9858 13.267 14.7858 13.565C14.5869 13.861 14.0151 14.531 13.8413 14.729C13.6665 14.928 13.4926 14.952 13.1942 14.804C12.8958 14.654 11.9332 14.341 10.7927 13.329C9.90544 12.541 9.30557 11.568 9.13173 11.27C8.9579 10.973 9.11264 10.812 9.26236 10.664C9.39701 10.531 9.56079 10.317 9.71051 10.144C9.86022 9.97001 9.90946 9.84601 10.0089 9.64701C10.1094 9.44901 10.0592 9.27601 9.98382 9.12701C9.90946 8.97801 9.3126 7.51501 9.06341 6.92001C8.82125 6.34101 8.57507 6.42001 8.39219 6.41001C8.21736 6.40201 8.0184 6.40001 7.81945 6.40001C7.6205 6.40001 7.29695 6.47401 7.02364 6.77201C6.74932 7.06901 5.97863 7.78801 5.97863 9.25101C5.97863 10.713 7.04775 12.126 7.19747 12.325C7.34719 12.523 9.30255 15.525 12.2979 16.812C13.0113 17.118 13.567 17.301 14.0001 17.437C14.7155 17.664 15.3666 17.632 15.8811 17.555C16.4538 17.47 17.6475 16.836 17.8967 16.142C18.1449 15.448 18.1449 14.853 18.0705 14.729C17.9962 14.605 17.7972 14.531 17.4978 14.382H17.4988ZM12.0507 21.785H12.0467C10.2676 21.7853 8.52118 21.3094 6.99048 20.407L6.62875 20.193L2.86874 21.175L3.87255 17.527L3.63642 17.153C2.64179 15.5774 2.11543 13.7538 2.11814 11.893C2.12015 6.44301 6.57549 2.00901 12.0547 2.00901C14.7074 2.00901 17.2014 3.03901 19.0764 4.90701C20.0012 5.82359 20.7342 6.91358 21.233 8.11391C21.7318 9.31424 21.9864 10.6011 21.9823 11.9C21.9803 17.35 17.5249 21.785 12.0507 21.785ZM20.5032 3.48801C19.3961 2.37893 18.0788 1.49955 16.6277 0.900811C15.1766 0.302074 13.6206 -0.00410676 12.0497 1.046e-05C5.46417 1.046e-05 0.102491 5.33501 0.100481 11.892C0.0974296 13.9788 0.647475 16.0294 1.69512 17.837L0 24L6.33434 22.346C8.0866 23.2961 10.0502 23.794 12.0457 23.794H12.0507C18.6363 23.794 23.9979 18.459 23.9999 11.901C24.0048 10.3383 23.6983 8.79011 23.0981 7.34604C22.4978 5.90198 21.6159 4.59068 20.5032 3.48801Z" fill="white"/>
</svg>
