<svg width="46" height="34" viewBox="0 0 46 34" fill="none" xmlns="http://www.w3.org/2000/svg">
<path d="M39.6662 8.66667H34.1107V1.72222C34.1107 1.35387 33.9643 1.0006 33.7039 0.740132C33.4434 0.479665 33.0901 0.333336 32.7218 0.333336H2.16623C1.79788 0.333336 1.44461 0.479665 1.18414 0.740132C0.923673 1.0006 0.777344 1.35387 0.777344 1.72222V26.7222C0.777344 27.0906 0.923673 27.4439 1.18414 27.7043C1.44461 27.9648 1.79788 28.1111 2.16623 28.1111H3.55512V3.11111H31.3329V19.3611C32.0411 19.1805 32.7687 19.0872 33.4996 19.0833H34.1107V11.4444H39.6662C40.4029 11.4444 41.1095 11.7371 41.6304 12.258C42.1514 12.779 42.444 13.4855 42.444 14.2222V15.6111H36.8885V18.3889H42.444V25.3333H39.1107C38.6234 24.2015 37.8152 23.2372 36.7859 22.5597C35.7566 21.8822 34.5513 21.5211 33.319 21.5211C32.0867 21.5211 30.8815 21.8822 29.8521 22.5597C28.8228 23.2372 28.0146 24.2015 27.5273 25.3333H18.0412C17.5632 24.1932 16.7578 23.2205 15.7269 22.5381C14.696 21.8558 13.4858 21.4945 12.2496 21.5C11.0749 21.5259 9.93297 21.8914 8.96159 22.5524C7.99022 23.2133 7.23103 24.1414 6.77574 25.2245C6.32045 26.3076 6.18854 27.4994 6.39596 28.6558C6.60337 29.8123 7.14124 30.8839 7.94456 31.7413C8.74789 32.5986 9.7823 33.205 10.9228 33.4872C12.0633 33.7693 13.2612 33.7152 14.3716 33.3312C15.482 32.9473 16.4575 32.2501 17.1801 31.3237C17.9028 30.3974 18.3418 29.2816 18.444 28.1111H27.1662C27.3427 29.6302 28.0712 31.0315 29.2133 32.0485C30.3554 33.0656 31.8314 33.6275 33.3607 33.6275C34.89 33.6275 36.366 33.0656 37.508 32.0485C38.6501 31.0315 39.3786 29.6302 39.5551 28.1111H43.8329C44.2013 28.1111 44.5545 27.9648 44.815 27.7043C45.0755 27.4439 45.2218 27.0906 45.2218 26.7222V14.2222C45.2218 12.7488 44.6365 11.3357 43.5946 10.2939C42.5527 9.25198 41.1397 8.66667 39.6662 8.66667ZM12.2496 30.8889C11.7984 30.9182 11.346 30.8546 10.9204 30.7021C10.4947 30.5496 10.1049 30.3114 9.77501 30.0022C9.44511 29.693 9.18215 29.3194 9.00238 28.9046C8.82261 28.4897 8.72986 28.0424 8.72986 27.5903C8.72986 27.1382 8.82261 26.6908 9.00238 26.276C9.18215 25.8611 9.44511 25.4875 9.77501 25.1784C10.1049 24.8692 10.4947 24.631 10.9204 24.4785C11.346 24.326 11.7984 24.2624 12.2496 24.2917C12.7007 24.2624 13.1531 24.326 13.5788 24.4785C14.0044 24.631 14.3942 24.8692 14.7241 25.1784C15.054 25.4875 15.317 25.8611 15.4968 26.276C15.6765 26.6908 15.7693 27.1382 15.7693 27.5903C15.7693 28.0424 15.6765 28.4897 15.4968 28.9046C15.317 29.3194 15.054 29.693 14.7241 30.0022C14.3942 30.3114 14.0044 30.5496 13.5788 30.7021C13.1531 30.8546 12.7007 30.9182 12.2496 30.8889ZM33.319 30.8889C32.6727 30.8563 32.0503 30.6347 31.5288 30.2516C31.0072 29.8685 30.6096 29.3408 30.3853 28.7338C30.1609 28.1269 30.1195 27.4674 30.2664 26.8372C30.4133 26.207 30.7419 25.6338 31.2115 25.1886C31.6811 24.7434 32.2711 24.4459 32.9082 24.3328C33.5453 24.2198 34.2017 24.2962 34.7958 24.5527C35.3899 24.8091 35.8956 25.2343 36.2503 25.7755C36.6051 26.3167 36.7931 26.9501 36.7912 27.5972C36.7658 28.4937 36.386 29.3435 35.7352 29.9605C35.0844 30.5774 34.2155 30.9113 33.319 30.8889Z" fill="black"/>
</svg>
