<svg width="24" height="24" viewBox="0 0 24 24" fill="none" xmlns="http://www.w3.org/2000/svg">
<path d="M1.5 1.5H3.83333L4.3 3.83333M6.16667 13.1667H17.8333L22.5 3.83333H4.3M6.16667 13.1667L4.3 3.83333M6.16667 13.1667L3.49162 15.8417C2.75667 16.5767 3.27719 17.8333 4.31658 17.8333H17.8333M17.8333 17.8333C16.5447 17.8333 15.5 18.878 15.5 20.1667C15.5 21.4553 16.5447 22.5 17.8333 22.5C19.122 22.5 20.1667 21.4553 20.1667 20.1667C20.1667 18.878 19.122 17.8333 17.8333 17.8333ZM8.5 20.1667C8.5 21.4553 7.45533 22.5 6.16667 22.5C4.878 22.5 3.83333 21.4553 3.83333 20.1667C3.83333 18.878 4.878 17.8333 6.16667 17.8333C7.45533 17.8333 8.5 18.878 8.5 20.1667Z" stroke="white" stroke-width="2" stroke-linecap="round" stroke-linejoin="round"/>
</svg>
