<svg width="49" height="11" viewBox="0 0 49 11" fill="none" xmlns="http://www.w3.org/2000/svg">
<path d="M7.85671 1H3.14329C1.95958 1 1 1.88874 1 2.98505V8.01495C1 9.11126 1.95958 10 3.14329 10H7.85671C9.04042 10 10 9.11126 10 8.01495V2.98505C10 1.88874 9.04042 1 7.85671 1Z" fill="#0A3356" stroke="#0A3356" stroke-width="1.5" stroke-miterlimit="10"/>
<path d="M33.8567 1H29.1433C27.9596 1 27 1.88874 27 2.98505V8.01495C27 9.11126 27.9596 10 29.1433 10H33.8567C35.0404 10 36 9.11126 36 8.01495V2.98505C36 1.88874 35.0404 1 33.8567 1Z" stroke="#0A3356" stroke-width="1.5" stroke-miterlimit="10"/>
<path d="M45.8567 1H41.1433C39.9596 1 39 1.88874 39 2.98505V8.01495C39 9.11127 39.9596 10 41.1433 10H45.8567C47.0404 10 48 9.11127 48 8.01495V2.98505C48 1.88874 47.0404 1 45.8567 1Z" stroke="#0A3356" stroke-width="1.5" stroke-miterlimit="10"/>
<path d="M19.8567 1H15.1433C13.9596 1 13 1.88874 13 2.98505V8.01495C13 9.11126 13.9596 10 15.1433 10H19.8567C21.0404 10 22 9.11126 22 8.01495V2.98505C22 1.88874 21.0404 1 19.8567 1Z" fill="#0A3356" stroke="#0A3356" stroke-width="1.5" stroke-miterlimit="10"/>
</svg>
