<svg width="21" height="21" viewBox="0 0 21 21" fill="none" xmlns="http://www.w3.org/2000/svg">
<path fill-rule="evenodd" clip-rule="evenodd" d="M10.5 0.5C4.97667 0.5 0.5 4.9775 0.5 10.5C0.5 16.0225 4.97667 20.5 10.5 20.5C16.0225 20.5 20.5 16.0225 20.5 10.5C20.5 4.9775 16.0225 0.5 10.5 0.5ZM10.6167 16.3483C7.39333 16.3483 4.78333 13.7317 4.78333 10.5C4.78333 7.26833 7.39333 4.65167 10.6167 4.65167C12.1917 4.65167 13.5083 5.2325 14.5183 6.17583L12.8733 7.82417V7.82083C12.2608 7.23583 11.4842 6.93583 10.6167 6.93583C8.69167 6.93583 7.1275 8.56583 7.1275 10.4967C7.1275 12.4258 8.69167 14.0608 10.6167 14.0608C12.3633 14.0608 13.5517 13.0592 13.7967 11.6842H10.6167V9.40333H16.1042C16.1775 9.795 16.2167 10.2033 16.2167 10.6317C16.2167 13.9733 13.9858 16.3483 10.6167 16.3483Z" fill="#0A3356"/>
</svg>
