<svg width="24" height="24" viewBox="0 0 24 24" fill="none" xmlns="http://www.w3.org/2000/svg">
<path d="M8.85671 7.5H4.14329C2.95958 7.5 2 8.38874 2 9.48505V14.515C2 15.6113 2.95958 16.5 4.14329 16.5H8.85671C10.0404 16.5 11 15.6113 11 14.515V9.48505C11 8.38874 10.0404 7.5 8.85671 7.5Z" fill="#0A3356"/>
<path d="M19.8567 7.5H15.1433C13.9596 7.5 13 8.38874 13 9.48505V14.515C13 15.6113 13.9596 16.5 15.1433 16.5H19.8567C21.0404 16.5 22 15.6113 22 14.515V9.48505C22 8.38874 21.0404 7.5 19.8567 7.5Z" fill="#0A3356"/>
</svg>
