<svg width="22" height="10" viewBox="0 0 22 10" fill="none" xmlns="http://www.w3.org/2000/svg">
<path d="M7.22183 1H2.94484C1.87073 1 1 1.80645 1 2.80125V7.36542C1 8.36022 1.87073 9.16667 2.94484 9.16667H7.22183C8.29593 9.16667 9.16667 8.36022 9.16667 7.36542V2.80125C9.16667 1.80645 8.29593 1 7.22183 1Z" stroke="#0A3356" stroke-width="1.5" stroke-miterlimit="10"/>
<path d="M19.2218 1H14.9448C13.8707 1 13 1.80645 13 2.80125V7.36542C13 8.36022 13.8707 9.16667 14.9448 9.16667H19.2218C20.2959 9.16667 21.1667 8.36022 21.1667 7.36542V2.80125C21.1667 1.80645 20.2959 1 19.2218 1Z" fill="#0A3356" stroke="#0A3356" stroke-width="1.5" stroke-miterlimit="10"/>
</svg>
