<svg width="28" height="28" viewBox="0 0 28 28" fill="none" xmlns="http://www.w3.org/2000/svg">
<path d="M20.1539 0.666504H7.84617C5.94268 0.66854 4.11773 1.4256 2.77176 2.77158C1.42579 4.11755 0.668723 5.9425 0.666687 7.84599V20.1537C0.668723 22.0572 1.42579 23.8821 2.77176 25.2281C4.11773 26.5741 5.94268 27.3311 7.84617 27.3332H20.1539C22.0574 27.3311 23.8823 26.5741 25.2283 25.2281C26.5743 23.8821 27.3313 22.0572 27.3334 20.1537V7.84599C27.3313 5.9425 26.5743 4.11755 25.2283 2.77158C23.8823 1.4256 22.0574 0.66854 20.1539 0.666504ZM14 20.1537C12.7829 20.1537 11.5931 19.7928 10.5811 19.1166C9.56913 18.4404 8.78038 17.4793 8.31461 16.3548C7.84884 15.2303 7.72697 13.993 7.96442 12.7993C8.20187 11.6056 8.78796 10.509 9.64859 9.64841C10.5092 8.78778 11.6057 8.20168 12.7995 7.96424C13.9932 7.72679 15.2305 7.84865 16.355 8.31442C17.4795 8.78019 18.4406 9.56895 19.1168 10.5809C19.7929 11.5929 20.1539 12.7827 20.1539 13.9998C20.1522 15.6314 19.5033 17.1957 18.3496 18.3494C17.1959 19.5031 15.6316 20.152 14 20.1537ZM21.6923 7.84599C21.388 7.84599 21.0906 7.75576 20.8376 7.58671C20.5846 7.41767 20.3874 7.17739 20.271 6.89627C20.1545 6.61516 20.1241 6.30582 20.1834 6.00739C20.2428 5.70896 20.3893 5.43483 20.6045 5.21967C20.8196 5.00451 21.0938 4.85799 21.3922 4.79863C21.6906 4.73927 22 4.76973 22.2811 4.88618C22.5622 5.00262 22.8025 5.19981 22.9715 5.45281C23.1406 5.7058 23.2308 6.00325 23.2308 6.30753C23.2308 6.71555 23.0687 7.10687 22.7802 7.39539C22.4917 7.6839 22.1004 7.84599 21.6923 7.84599ZM18.1026 13.9998C18.1026 14.8112 17.862 15.6044 17.4112 16.2791C16.9604 16.9538 16.3196 17.4796 15.57 17.7901C14.8204 18.1006 13.9955 18.1819 13.1996 18.0236C12.4038 17.8653 11.6728 17.4745 11.0991 16.9008C10.5253 16.327 10.1346 15.596 9.97628 14.8002C9.81799 14.0044 9.89923 13.1795 10.2097 12.4299C10.5203 11.6802 11.0461 11.0395 11.7208 10.5887C12.3954 10.1379 13.1886 9.89727 14 9.89727C15.0881 9.89727 16.1316 10.3295 16.901 11.0989C17.6703 11.8683 18.1026 12.9118 18.1026 13.9998Z" fill="#0A3356"/>
</svg>
