<svg width="24" height="24" viewBox="0 0 24 24" fill="none" xmlns="http://www.w3.org/2000/svg">
<path d="M8.59485 2.5H4.40515C3.35296 2.5 2.5 3.28999 2.5 4.26449V8.73551C2.5 9.71001 3.35296 10.5 4.40515 10.5H8.59485C9.64704 10.5 10.5 9.71001 10.5 8.73551V4.26449C10.5 3.28999 9.64704 2.5 8.59485 2.5Z" stroke="#0A3356" stroke-width="2" stroke-miterlimit="10"/>
<path d="M8.59485 13.5H4.40515C3.35296 13.5 2.5 14.29 2.5 15.2645V19.7355C2.5 20.71 3.35296 21.5 4.40515 21.5H8.59485C9.64704 21.5 10.5 20.71 10.5 19.7355V15.2645C10.5 14.29 9.64704 13.5 8.59485 13.5Z" stroke="#0A3356" stroke-width="2" stroke-miterlimit="10"/>
<path d="M19.5949 2.5H15.4051C14.353 2.5 13.5 3.28999 13.5 4.26449V8.73551C13.5 9.71001 14.353 10.5 15.4051 10.5H19.5949C20.647 10.5 21.5 9.71001 21.5 8.73551V4.26449C21.5 3.28999 20.647 2.5 19.5949 2.5Z" stroke="#0A3356" stroke-width="2" stroke-miterlimit="10"/>
<path d="M19.5949 13.5H15.4051C14.353 13.5 13.5 14.29 13.5 15.2645V19.7355C13.5 20.71 14.353 21.5 15.4051 21.5H19.5949C20.647 21.5 21.5 20.71 21.5 19.7355V15.2645C21.5 14.29 20.647 13.5 19.5949 13.5Z" stroke="#0A3356" stroke-width="2" stroke-miterlimit="10"/>
</svg>
