<svg width="47" height="22" viewBox="0 0 47 22" fill="none" xmlns="http://www.w3.org/2000/svg">
<path d="M7.59485 1.5H3.40515C2.35296 1.5 1.5 2.28999 1.5 3.26449V7.73551C1.5 8.71001 2.35296 9.5 3.40515 9.5H7.59485C8.64704 9.5 9.5 8.71001 9.5 7.73551V3.26449C9.5 2.28999 8.64704 1.5 7.59485 1.5Z" stroke="#0A3356" stroke-width="2" stroke-miterlimit="10"/>
<path d="M33.0949 1.5H28.9051C27.853 1.5 27 2.28999 27 3.26449V7.73551C27 8.71001 27.853 9.5 28.9051 9.5H33.0949C34.147 9.5 35 8.71001 35 7.73551V3.26449C35 2.28999 34.147 1.5 33.0949 1.5Z" fill="#0A3356" stroke="#0A3356" stroke-width="2" stroke-miterlimit="10"/>
<path d="M7.59485 12.5H3.40515C2.35296 12.5 1.5 13.29 1.5 14.2645V18.7355C1.5 19.71 2.35296 20.5 3.40515 20.5H7.59485C8.64704 20.5 9.5 19.71 9.5 18.7355V14.2645C9.5 13.29 8.64704 12.5 7.59485 12.5Z" stroke="#0A3356" stroke-width="2" stroke-miterlimit="10"/>
<path d="M33.0949 12.5H28.9051C27.853 12.5 27 13.29 27 14.2645V18.7355C27 19.71 27.853 20.5 28.9051 20.5H33.0949C34.147 20.5 35 19.71 35 18.7355V14.2645C35 13.29 34.147 12.5 33.0949 12.5Z" fill="#0A3356" stroke="#0A3356" stroke-width="2" stroke-miterlimit="10"/>
<path d="M18.5949 1.5H14.4051C13.353 1.5 12.5 2.28999 12.5 3.26449V7.73551C12.5 8.71001 13.353 9.5 14.4051 9.5H18.5949C19.647 9.5 20.5 8.71001 20.5 7.73551V3.26449C20.5 2.28999 19.647 1.5 18.5949 1.5Z" stroke="#0A3356" stroke-width="2" stroke-miterlimit="10"/>
<path d="M44.0949 1.5H39.9051C38.853 1.5 38 2.28999 38 3.26449V7.73551C38 8.71001 38.853 9.5 39.9051 9.5H44.0949C45.147 9.5 46 8.71001 46 7.73551V3.26449C46 2.28999 45.147 1.5 44.0949 1.5Z" fill="#0A3356" stroke="#0A3356" stroke-width="2" stroke-miterlimit="10"/>
<path d="M18.5949 12.5H14.4051C13.353 12.5 12.5 13.29 12.5 14.2645V18.7355C12.5 19.71 13.353 20.5 14.4051 20.5H18.5949C19.647 20.5 20.5 19.71 20.5 18.7355V14.2645C20.5 13.29 19.647 12.5 18.5949 12.5Z" stroke="#0A3356" stroke-width="2" stroke-miterlimit="10"/>
<path d="M44.0949 12.5H39.9051C38.853 12.5 38 13.29 38 14.2645V18.7355C38 19.71 38.853 20.5 39.9051 20.5H44.0949C45.147 20.5 46 19.71 46 18.7355V14.2645C46 13.29 45.147 12.5 44.0949 12.5Z" fill="#0A3356" stroke="#0A3356" stroke-width="2" stroke-miterlimit="10"/>
</svg>
