<svg width="200" height="47" viewBox="0 0 200 47" fill="none" xmlns="http://www.w3.org/2000/svg">
<g clip-path="url(#clip0_1272_5012)">
<path d="M28.7183 44.9817C28.1384 45.8951 26.8995 46.8085 24.6458 46.8085C20.8633 46.8085 19.084 44.3595 18.2669 41.3149C17.6474 38.9585 17.2125 37.1317 16.8303 35.3976C15.6837 30.0496 14.1021 29.7186 11.6112 29.7186H8.88303V45.5112H11.9934V46.2393H0V45.5112H3.11038V12.9597H0V12.2316H14.4316C19.084 12.2316 24.6853 14.0584 24.6853 20.995C24.6853 26.3827 19.598 29.0832 15.196 29.5598V29.6127C19.4662 30.3408 21.2323 32.4985 22.2867 35.8212C23.0115 38.1378 23.9605 41.0633 24.4481 42.4665C25.1203 44.386 25.5552 45.5906 26.7018 45.5906C27.084 45.5906 27.6112 45.3524 28.0857 44.6243L28.7051 44.9552L28.7183 44.9817ZM14.7216 29.0435C16.9753 29.0435 18.8468 27.455 18.8468 21.0479C18.8468 14.6409 16.883 12.9597 14.2867 12.9597H8.86985V29.0435H14.7216Z" fill="#0A3356"/>
<path d="M29.8262 29.3745C29.8262 19.6447 34.3863 11.6492 43.9151 11.6492C53.444 11.6492 58.2018 19.5918 58.2018 29.0832C58.2018 38.5747 53.6417 46.8085 44.0601 46.8085C34.4786 46.8085 29.8262 38.8659 29.8262 29.3745ZM51.2562 36.1654C51.6384 31.5454 51.6384 26.674 51.2562 22.0143C50.729 15.5146 49.1474 12.3375 44.1655 12.3375C37.9316 12.3375 37.2595 15.8985 36.7323 22.3055C36.3501 26.9255 36.4028 31.8367 36.7323 36.4566C37.2595 42.9563 38.841 46.1334 43.8229 46.1334C50.0568 46.1334 50.729 42.5724 51.2562 36.1654Z" fill="#0A3356"/>
<path d="M61.6016 45.5112H64.7119V12.9597H61.6016V12.2316H76.0332C80.6856 12.2316 86.2869 14.1114 86.2869 20.5184C86.2869 25.7606 81.2523 28.0772 78.5241 28.3154V28.3684C82.3067 28.3154 87.6312 31.0159 87.6312 37.2244C87.6312 42.4268 83.9409 46.226 77.3775 46.226H61.6016V45.498V45.5112ZM75.9805 28.0374C78.7614 28.0374 80.4352 26.4489 80.4352 20.5714C80.4352 14.6938 78.4714 12.9597 75.875 12.9597H70.4582V28.0242H75.9673L75.9805 28.0374ZM76.1254 45.5112C79.4335 45.5112 81.1073 43.83 81.1073 37.1847C81.1073 29.626 78.4187 28.7126 76.4549 28.7126H70.4582V45.5112H76.1123H76.1254Z" fill="#0A3356"/>
<path d="M91.519 46.226V45.498H94.6294V12.9597H91.519V12.2316H113.384L114.241 20.2669H113.516L109.536 14.204C109.101 13.5289 108.679 12.9465 107.282 12.9465H100.376V27.9183H104.211C105.595 27.9183 106.122 27.5344 106.649 26.7666L108.956 23.2983H109.68L109.008 28.2625V28.3551L109.68 33.3193H108.956L106.649 29.851C106.122 29.0832 105.595 28.6993 104.211 28.6993H100.376V45.498H108.138C109.391 45.498 109.812 45.0214 110.194 44.386L114.649 36.3904H115.374L114.372 46.2128H91.5059L91.519 46.226Z" fill="#0A3356"/>
<path d="M147.492 44.9817C146.912 45.8951 145.673 46.8085 143.42 46.8085C139.637 46.8085 137.858 44.3595 137.041 41.3149C136.421 38.9585 135.986 37.1317 135.604 35.3976C134.458 30.0496 132.876 29.7186 130.385 29.7186H127.657V45.5112H130.767V46.2393H118.787V45.5112H121.897V12.9597H118.787V12.2316H133.219C137.871 12.2316 143.472 14.0584 143.472 20.995C143.472 26.3827 138.385 29.0832 133.983 29.5598V29.6127C138.253 30.3408 140.019 32.4985 141.074 35.8212C141.799 38.1378 142.748 41.0633 143.235 42.4665C143.907 44.386 144.342 45.5906 145.489 45.5906C145.871 45.5906 146.398 45.3524 146.873 44.6243L147.492 44.9552V44.9817ZM133.496 29.0435C135.749 29.0435 137.621 27.455 137.621 21.0479C137.621 14.6409 135.657 12.9597 133.061 12.9597H127.644V29.0435H133.496Z" fill="#0A3356"/>
<path d="M168.566 0.701605C165.14 0.701605 163.295 3.32267 163.295 6.07611C163.295 9.10754 165.575 12.2978 171.281 12.2978C172.415 12.2978 173.64 12.1125 174.919 11.6889L175.894 20.7832H175.459C170.886 14.76 167.802 13.9525 164.757 10.8946C163.466 9.59734 162.596 8.075 162.596 5.89078C162.596 2.85935 164.678 0.0132446 168.566 0.0132446C176.263 0.0132446 186.201 12.5096 193.423 12.5096C194.346 12.5096 195.202 12.2846 195.861 11.6889L198.036 21.0215L197.614 21.0744C188.191 12.3111 174.998 0.701605 168.58 0.701605H168.566ZM151.723 12.2714C150.194 12.2714 148.27 12.1919 147.005 11.6757L146.029 20.77H146.464C152.184 12.7744 152.461 12.9597 153.647 12.9597H158.089V45.5112H154.978V46.2393H166.958V45.5112H163.848V12.2581L151.736 12.2714H151.723ZM186.016 12.7214L185.489 12.0596C181.087 13.2907 178.741 17.3017 178.741 21.2995C178.741 32.4191 195.505 30.7777 195.505 40.3618C195.505 44.2139 192.777 46.1334 188.085 46.1334C185.594 46.1334 184.342 45.9878 183.631 44.6905L178.451 35.5432H178.016L179.07 45.3127C180.837 45.9878 184.909 46.8085 188.072 46.8085C195.492 46.8085 200 42.2415 200 36.8538C200 25.4958 182.893 27.3756 182.893 17.5532C182.893 15.4352 183.67 13.5422 186.003 12.7347L186.016 12.7214Z" fill="#0A3356"/>
</g>
<defs>
<clipPath id="clip0_1272_5012">
<rect width="200" height="46.8085" fill="white"/>
</clipPath>
</defs>
</svg>
