<svg width="36" height="24" viewBox="0 0 36 24" fill="none" xmlns="http://www.w3.org/2000/svg">
<g clip-path="url(#clip0_799_163)">
<path d="M33.6 24H2.4C1.76348 24 1.15303 23.7471 0.702944 23.2971C0.252856 22.847 0 22.2365 0 21.6L0 2.4C0 1.76348 0.252856 1.15303 0.702944 0.702944C1.15303 0.252856 1.76348 0 2.4 0L33.6 0C34.2365 0 34.847 0.252856 35.2971 0.702944C35.7471 1.15303 36 1.76348 36 2.4V21.6C36 22.2365 35.7471 22.847 35.2971 23.2971C34.847 23.7471 34.2365 24 33.6 24ZM28.484 19.719H28.47C28.3332 19.7189 28.1978 19.7472 28.0725 19.8021C27.9472 19.857 27.8346 19.9373 27.742 20.038L27.741 20.039C27.544 20.2548 27.4348 20.5365 27.435 20.8287C27.4352 21.1209 27.5447 21.4025 27.742 21.618L27.741 21.617C27.923 21.814 28.182 21.937 28.47 21.937H28.484H28.483C28.6119 21.9458 28.7409 21.9221 28.8582 21.8679C28.9755 21.8137 29.0772 21.7309 29.154 21.627L29.155 21.625V21.891H29.608V18.922H29.155V20.032C29.0812 19.9345 28.9858 19.8554 28.8764 19.8009C28.7669 19.7465 28.6463 19.7181 28.524 19.718L28.482 19.719H28.484ZM24.234 19.719H24.211C23.922 19.719 23.661 19.839 23.476 20.032C23.2787 20.2508 23.1695 20.535 23.1697 20.8297C23.1699 21.1243 23.2794 21.4084 23.477 21.627L23.476 21.626C23.662 21.819 23.923 21.939 24.212 21.939H24.236H24.235L24.28 21.94C24.399 21.9401 24.5163 21.9119 24.6222 21.8576C24.7281 21.8034 24.8196 21.7246 24.889 21.628L24.891 21.626V21.892H25.361V19.782H24.892V20.032C24.8163 19.93 24.7167 19.8482 24.602 19.7936C24.4873 19.739 24.3609 19.7134 24.234 19.719H24.236H24.234ZM22.186 19.719L22.144 19.718C21.8496 19.718 21.5673 19.8349 21.3591 20.0431C21.1509 20.2513 21.034 20.5336 21.034 20.828C21.034 21.1224 21.1509 21.4047 21.3591 21.6129C21.5673 21.8211 21.8496 21.938 22.144 21.938L22.188 21.937H22.186L22.227 21.938C22.497 21.938 22.744 21.844 22.939 21.686L22.937 21.688L22.718 21.313C22.5734 21.4274 22.3963 21.4932 22.212 21.501H22.21C22.1181 21.5069 22.026 21.4931 21.9398 21.4607C21.8536 21.4283 21.7753 21.378 21.71 21.313C21.5938 21.1783 21.53 21.0062 21.5302 20.8283C21.5303 20.6504 21.5945 20.4785 21.711 20.344L21.71 20.345C21.767 20.2855 21.8355 20.2382 21.9113 20.2059C21.9871 20.1736 22.0686 20.1569 22.151 20.157H22.172H22.171C22.3699 20.1575 22.563 20.2239 22.72 20.346L22.718 20.344L22.937 19.969C22.7303 19.8057 22.4744 19.7172 22.211 19.718H22.186H22.187L22.186 19.719ZM18.106 19.719H18.081C17.9452 19.7188 17.8107 19.7464 17.686 19.8002C17.5613 19.8541 17.449 19.933 17.356 20.032C17.2562 20.1396 17.1787 20.2658 17.1277 20.4035C17.0767 20.5411 17.0534 20.6874 17.059 20.834V20.832L17.058 20.878C17.058 21.173 17.175 21.441 17.364 21.637C17.554 21.826 17.816 21.942 18.105 21.942L18.139 21.941H18.137L18.178 21.942C18.491 21.942 18.777 21.829 18.999 21.642L18.997 21.644L18.778 21.301C18.6102 21.4498 18.3943 21.5329 18.17 21.535H18.169C18.0168 21.5482 17.8654 21.5022 17.7462 21.4067C17.6271 21.3112 17.5493 21.1734 17.529 21.022V21.019H19.107V20.832C19.121 20.5368 19.0195 20.2477 18.824 20.026L18.825 20.027C18.7371 19.9296 18.6297 19.8518 18.5098 19.7985C18.3899 19.7453 18.2602 19.7179 18.129 19.718H18.107H18.108L18.106 19.719ZM15.029 19.782V20.204H15.466V21.158C15.466 21.676 15.713 21.939 16.2 21.939H16.217C16.419 21.939 16.606 21.879 16.763 21.777L16.759 21.779L16.633 21.388C16.509 21.458 16.3694 21.4958 16.227 21.498H16.226C16.028 21.498 15.928 21.383 15.928 21.155V20.205H16.678V19.783H15.928V19.143H15.459V19.783L15.029 19.782ZM13.062 21.312L12.859 21.672C13.106 21.839 13.41 21.938 13.737 21.938H13.767H13.765L13.831 21.94C14.07 21.94 14.293 21.869 14.48 21.747L14.475 21.75C14.5544 21.696 14.6194 21.6233 14.6644 21.5385C14.7093 21.4536 14.7329 21.359 14.733 21.263V21.249V21.25C14.733 20.898 14.486 20.69 13.999 20.625L13.781 20.593C13.541 20.552 13.421 20.479 13.421 20.375C13.421 20.219 13.552 20.141 13.812 20.141H13.817C14.062 20.141 14.292 20.205 14.491 20.317L14.484 20.313L14.672 19.938C14.4116 19.7831 14.1118 19.707 13.809 19.719H13.812L13.758 19.718C13.5464 19.7177 13.3401 19.7846 13.169 19.909L13.172 19.907C13.099 19.9639 13.0399 20.0367 12.9994 20.1199C12.9588 20.2031 12.9378 20.2944 12.938 20.387V20.408V20.407C12.938 20.749 13.185 20.954 13.672 21.016L13.875 21.048C14.124 21.09 14.25 21.163 14.25 21.267C14.25 21.443 14.09 21.533 13.765 21.533H13.756C13.5059 21.5336 13.2618 21.4559 13.058 21.311L13.062 21.314V21.312ZM11.28 19.718H11.255C11.1193 19.7178 10.985 19.7454 10.8605 19.7993C10.7359 19.8531 10.6238 19.932 10.531 20.031C10.3385 20.2523 10.2325 20.5358 10.2327 20.8292C10.2329 21.1225 10.3392 21.4059 10.532 21.627L10.531 21.626C10.624 21.725 10.7363 21.8039 10.861 21.8577C10.9857 21.9116 11.1202 21.9392 11.256 21.939H11.282H11.281C11.4099 21.9458 11.5385 21.9211 11.6556 21.8669C11.7727 21.8127 11.8748 21.7307 11.953 21.628L11.954 21.626V21.892H12.407V19.782H11.954V20.032C11.8746 19.9341 11.7743 19.8552 11.6604 19.801C11.5466 19.7469 11.4221 19.7188 11.296 19.719H11.28H11.281L11.28 19.718ZM25.968 19.781V21.891H26.421V20.704C26.421 20.342 26.573 20.158 26.874 20.158H26.884C26.983 20.158 27.077 20.181 27.16 20.222L27.156 20.22L27.296 19.782C27.2023 19.74 27.1007 19.7186 26.998 19.719L26.966 19.72H26.968H26.951C26.8434 19.7199 26.7376 19.7486 26.6448 19.8031C26.552 19.8576 26.4754 19.936 26.423 20.03L26.421 20.033V19.783L25.968 19.781ZM19.578 19.781V21.891H20.047V20.704C20.047 20.342 20.199 20.158 20.5 20.158H20.51C20.609 20.158 20.703 20.181 20.786 20.222L20.782 20.22L20.923 19.782C20.8251 19.74 20.7196 19.7186 20.613 19.719H20.594H20.595H20.577C20.4695 19.7189 20.3639 19.7476 20.2712 19.8021C20.1785 19.8566 20.1022 19.935 20.05 20.029L20.048 20.032V19.782L19.578 19.781ZM8.89 20.156C9.201 20.156 9.359 20.345 9.359 20.716V21.888H9.828V20.56L9.829 20.527C9.82916 20.3159 9.74743 20.113 9.601 19.961C9.43591 19.8065 9.21814 19.7206 8.992 19.721H8.983C8.83885 19.7117 8.69485 19.7414 8.56608 19.8068C8.4373 19.8722 8.32848 19.9711 8.251 20.093L8.249 20.096C8.17829 19.9738 8.07475 19.874 7.95013 19.8077C7.82552 19.7414 7.68482 19.7114 7.544 19.721H7.546H7.537C7.41954 19.7211 7.30382 19.7493 7.19958 19.8035C7.09533 19.8576 7.00562 19.936 6.938 20.032L6.936 20.034V19.784H6.469V21.894H6.938V20.72C6.938 20.347 7.112 20.16 7.454 20.16C7.765 20.16 7.923 20.349 7.923 20.72V21.892H8.376V20.72C8.376 20.346 8.55 20.16 8.891 20.16L8.89 20.156ZM22.906 2H22.873C21.3092 1.99748 19.781 2.46657 18.488 3.346L18.515 3.329C19.8206 4.38736 20.7808 5.81103 21.273 7.418L21.289 7.478C21.525 8.223 21.66 9.079 21.66 9.968C21.66 10.847 21.527 11.694 21.281 12.492L21.297 12.432C20.8169 14.0548 19.8517 15.4918 18.531 16.55L18.515 16.563C19.8116 17.4328 21.3386 17.8953 22.9 17.891C24.02 17.891 25.085 17.658 26.05 17.238L25.999 17.258C27.8904 16.4657 29.3993 14.9683 30.206 13.083L30.225 13.032C30.625 12.122 30.858 11.061 30.858 9.946C30.858 8.831 30.625 7.77 30.205 6.81L30.225 6.86C29.4318 4.96687 27.9309 3.45813 26.042 2.655L25.991 2.636C25.0207 2.21507 23.9737 1.99955 22.916 2.003H22.905H22.906V2ZM13.094 2H13.083C12.0074 1.9987 10.9433 2.22072 9.958 2.652L10.008 2.632C8.11197 3.42059 6.59908 4.91877 5.792 6.807L5.773 6.858C5.373 7.768 5.14 8.829 5.14 9.944C5.14 11.059 5.373 12.12 5.793 13.08L5.773 13.03C6.56531 14.9214 8.06266 16.4303 9.948 17.237L9.999 17.256C10.913 17.656 11.979 17.889 13.098 17.889C14.6705 17.8917 16.2077 17.4228 17.511 16.543L17.483 16.561C16.1704 15.5075 15.2064 14.0824 14.717 12.472L14.702 12.413C14.46 11.6159 14.3383 10.7871 14.341 9.954C14.3398 8.68838 14.6197 7.43829 15.1607 6.2941C15.7017 5.14992 16.4901 4.14022 17.469 3.338L17.484 3.326C16.1977 2.4564 14.6796 1.9937 13.127 1.998H13.091H13.093L13.094 2ZM18 3.703C16.7364 4.67958 15.8034 6.02073 15.327 7.545L15.312 7.6C15.071 8.36304 14.9495 9.1588 14.952 9.959C14.952 10.793 15.081 11.596 15.32 12.351L15.305 12.295C15.7714 13.8353 16.7073 15.1915 17.982 16.174L18 16.187C19.2695 15.2165 20.2063 13.8758 20.681 12.35L20.696 12.296C20.9326 11.5397 21.0516 10.7515 21.049 9.959C21.049 9.116 20.917 8.305 20.674 7.543L20.689 7.599C20.22 6.06035 19.2876 4.70395 18.019 3.715L18.001 3.702L18 3.703ZM28.546 21.5H28.529C28.4457 21.5 28.3632 21.4827 28.287 21.4492C28.2107 21.4156 28.1423 21.3665 28.086 21.305C27.9694 21.1732 27.9052 21.0033 27.9054 20.8273C27.9056 20.6514 27.9702 20.4816 28.087 20.35L28.086 20.351C28.1456 20.2889 28.2172 20.2394 28.2964 20.2057C28.3757 20.1719 28.4609 20.1545 28.547 20.1545C28.6331 20.1545 28.7183 20.1719 28.7976 20.2057C28.8768 20.2394 28.9484 20.2889 29.008 20.351C29.1242 20.4842 29.1881 20.655 29.1879 20.8317C29.1878 21.0084 29.1235 21.1791 29.007 21.312L29.008 21.311C28.9506 21.3709 28.8817 21.4185 28.8054 21.451C28.7291 21.4835 28.6469 21.5002 28.564 21.5H28.546H28.547H28.546ZM24.281 21.5H24.259C24.1782 21.5 24.0982 21.4834 24.0241 21.4513C23.9499 21.4191 23.8832 21.372 23.828 21.313C23.7158 21.1762 23.6546 21.0047 23.6548 20.8278C23.655 20.6509 23.7166 20.4796 23.829 20.343L23.828 20.344C23.883 20.2846 23.9497 20.2373 24.0239 20.205C24.098 20.1726 24.1781 20.1559 24.259 20.156H24.282H24.281H24.299C24.474 20.156 24.632 20.231 24.741 20.351C24.853 20.472 24.921 20.634 24.921 20.812V20.832V20.831L24.922 20.858C24.9223 21.027 24.8608 21.1903 24.749 21.317L24.75 21.316C24.6934 21.3744 24.6256 21.4208 24.5507 21.4524C24.4758 21.484 24.3953 21.5002 24.314 21.5L24.28 21.499H24.282L24.281 21.5ZM11.343 21.5L11.314 21.501C11.2319 21.5012 11.1506 21.4846 11.0751 21.4523C10.9996 21.42 10.9315 21.3726 10.875 21.313C10.7628 21.1762 10.7016 21.0047 10.7018 20.8278C10.702 20.6509 10.7636 20.4796 10.876 20.343L10.875 20.344C10.9354 20.2807 11.0088 20.2313 11.0901 20.199C11.1713 20.1667 11.2587 20.1524 11.346 20.157H11.345H11.368C11.4494 20.1569 11.53 20.1742 11.6041 20.2079C11.6783 20.2415 11.7444 20.2907 11.798 20.352L11.799 20.353C11.9101 20.4885 11.9707 20.6584 11.9705 20.8337C11.9704 21.0089 11.9094 21.1787 11.798 21.314L11.799 21.313C11.7437 21.3725 11.6766 21.4198 11.6021 21.4522C11.5276 21.4845 11.4472 21.5012 11.366 21.501H11.344H11.345L11.343 21.5ZM18.64 20.64H17.547C17.5609 20.5048 17.6244 20.3795 17.7253 20.2883C17.8261 20.1972 17.9572 20.1466 18.0931 20.1464C18.229 20.1461 18.3603 20.1962 18.4614 20.287C18.5626 20.3778 18.6266 20.5028 18.641 20.638V20.64H18.64Z" fill="white"/>
</g>
<defs>
<clipPath id="clip0_799_163">
<rect width="36" height="24" fill="white"/>
</clipPath>
</defs>
</svg>
