<svg width="36" height="24" viewBox="0 0 36 24" fill="none" xmlns="http://www.w3.org/2000/svg">
<rect width="36" height="24" rx="2" fill="white"/>
<path d="M25.3007 5.86045C25.3007 3.18288 21.9737 1 17.8693 1C13.7653 1 10.4383 3.18288 10.4383 5.86045C10.4383 5.92987 10.4375 6.12098 10.4375 6.14523C10.4375 8.9859 13.3455 11.2867 17.8685 11.2867C22.4195 11.2867 25.3007 8.98673 25.3007 6.14565C25.3007 6.04654 25.3007 5.98925 25.3007 5.86045Z" fill="#404040"/>
<path d="M25.0153 5.85836C25.0153 8.38288 21.8163 10.4294 17.87 10.4294C13.9237 10.4294 10.7246 8.38288 10.7246 5.85836C10.7246 3.33342 13.9237 1.28687 17.87 1.28687C21.8163 1.28687 25.0153 3.33342 25.0153 5.85836Z" fill="white"/>
<path d="M15.4974 4.41611C15.4937 4.42321 15.4226 4.49723 15.4686 4.55619C15.5815 4.70046 15.9298 4.78285 16.2819 4.70381C16.4914 4.65697 16.7603 4.44329 17.0208 4.23629C17.3027 4.01215 17.5829 3.78801 17.8643 3.69852C18.162 3.60359 18.3531 3.64457 18.4794 3.68263C18.6178 3.72361 18.7805 3.81477 19.0402 4.00964C19.529 4.37721 21.4949 6.09341 21.8344 6.38989C22.1084 6.26611 23.324 5.74298 24.9762 5.37875C24.8328 4.49807 24.2967 3.69183 23.4841 3.03194C22.3517 3.50783 20.9676 3.75622 19.6144 3.09509C19.6072 3.09216 18.8746 2.74549 18.1524 2.76264C17.0781 2.78731 16.6131 3.25232 16.1209 3.7441L15.4974 4.41611Z" fill="white"/>
<path d="M21.7536 6.5764C21.7306 6.55591 19.4419 4.55326 18.9238 4.16394C18.6236 3.93897 18.4567 3.88126 18.2815 3.85909C18.1903 3.84697 18.0641 3.86411 17.9762 3.88837C17.7349 3.95402 17.4196 4.16478 17.1395 4.38683C16.8497 4.61766 16.5762 4.83512 16.3228 4.89199C15.9987 4.96475 15.6031 4.87861 15.4224 4.75692C15.3493 4.70757 15.2978 4.6507 15.2731 4.59299C15.2062 4.43827 15.3292 4.31449 15.3497 4.294L15.9811 3.6107C16.0547 3.53752 16.1283 3.46434 16.204 3.39199C16.0004 3.41875 15.8118 3.47061 15.6286 3.52163C15.3999 3.58603 15.1799 3.64708 14.957 3.64708C14.8642 3.64708 14.3661 3.56553 14.2716 3.53961C13.7 3.38321 13.1982 3.23099 12.4492 2.88098C11.5514 3.54964 10.9509 4.38516 10.7773 5.30556C10.9066 5.33985 11.1144 5.40174 11.2018 5.42098C13.2333 5.87261 13.866 6.33804 13.981 6.43547C14.1052 6.29706 14.2846 6.20966 14.4849 6.20966C14.7094 6.21008 14.9123 6.32256 15.0352 6.49736C15.1515 6.40536 15.312 6.32716 15.5195 6.32716C15.6135 6.32716 15.7114 6.34473 15.8101 6.37818C16.0392 6.4568 16.1576 6.60943 16.2191 6.74743C16.296 6.71272 16.3905 6.68721 16.5017 6.68763C16.6113 6.68763 16.7251 6.7123 16.8396 6.76207C17.2143 6.92265 17.2724 7.29064 17.2386 7.56789C17.2653 7.56496 17.2921 7.56371 17.3193 7.56371C17.7634 7.56413 18.1247 7.92501 18.1247 8.36953C18.1247 8.50711 18.0896 8.63633 18.0281 8.74965C18.1489 8.81782 18.4571 8.97129 18.7277 8.937C18.9439 8.90982 19.0259 8.8358 19.0551 8.7944C19.0752 8.76596 19.0965 8.73251 19.0769 8.70867L18.5036 8.07179C18.5036 8.07179 18.409 7.9823 18.4404 7.94801C18.4726 7.91247 18.5312 7.96349 18.5721 7.99778C18.864 8.24157 19.2203 8.60915 19.2203 8.60915C19.2262 8.61333 19.25 8.65975 19.3817 8.68358C19.495 8.70366 19.6958 8.69195 19.8346 8.57779C19.8697 8.54893 19.9049 8.51297 19.9341 8.47575C19.932 8.47742 19.9299 8.48035 19.9279 8.48119C20.0742 8.29343 19.9115 8.10357 19.9115 8.10357L19.2421 7.35211C19.2421 7.35211 19.1467 7.26346 19.1789 7.22791C19.2082 7.19697 19.2697 7.24381 19.3119 7.27851C19.5235 7.45582 19.8229 7.75607 20.1102 8.03708C20.1658 8.07848 20.4184 8.23446 20.7521 8.01492C20.9549 7.88194 20.9955 7.71885 20.9896 7.59549C20.9758 7.4324 20.8483 7.31615 20.8483 7.31615L19.9341 6.397C19.9341 6.397 19.8375 6.31462 19.8718 6.2728C19.8998 6.23768 19.9626 6.28827 20.0035 6.32256C20.2946 6.56636 21.0833 7.28939 21.0833 7.28939C21.0946 7.29733 21.3668 7.49136 21.7034 7.27684C21.8239 7.1999 21.9008 7.08406 21.9075 6.94899C21.9188 6.71523 21.7536 6.5764 21.7536 6.5764Z" fill="white"/>
<path d="M17.32 7.74184C17.1783 7.74017 17.0231 7.82422 17.003 7.81209C16.9918 7.80457 17.0114 7.74769 17.0248 7.71466C17.0386 7.68204 17.2251 7.12043 16.7701 6.92514C16.4218 6.77585 16.2089 6.94396 16.1358 7.02007C16.1165 7.04014 16.1082 7.03847 16.1056 7.01296C16.099 6.91176 16.0534 6.63827 15.7531 6.54628C15.3237 6.41497 15.0472 6.7148 14.977 6.82311C14.9456 6.57806 14.739 6.38821 14.4852 6.38779C14.2096 6.38779 13.9863 6.61067 13.9863 6.88625C13.9859 7.16141 14.2092 7.38472 14.4848 7.38472C14.6186 7.38514 14.7399 7.33161 14.8294 7.24588C14.8323 7.24839 14.8336 7.25299 14.8319 7.26261C14.811 7.38555 14.7725 7.83384 15.2417 8.01658C15.4299 8.08934 15.59 8.03498 15.7226 7.94214C15.7619 7.91413 15.7686 7.92584 15.7627 7.96305C15.746 8.07847 15.7673 8.32519 16.1136 8.46528C16.3766 8.57234 16.5326 8.46277 16.6346 8.36868C16.679 8.32812 16.6911 8.33439 16.6932 8.39712C16.7057 8.73082 16.983 8.99553 17.3192 8.99595C17.6659 8.99595 17.9469 8.71577 17.9469 8.36952C17.9473 8.02285 17.6667 7.7456 17.32 7.74184Z" fill="white"/>
<path d="M17.3209 8.9512C17.0069 8.95078 16.7514 8.70657 16.7397 8.39586C16.7392 8.3691 16.7363 8.29801 16.6765 8.29801C16.6514 8.29801 16.6301 8.31306 16.6054 8.33523C16.5364 8.39921 16.4486 8.46444 16.3202 8.46444C16.2617 8.46444 16.1985 8.45064 16.132 8.42346C15.8 8.28923 15.7954 8.06132 15.8088 7.96974C15.8126 7.94507 15.8138 7.91956 15.7971 7.89991L15.7766 7.88192H15.7561C15.7394 7.88192 15.7218 7.88862 15.6984 7.90534C15.6022 7.97267 15.5102 8.00529 15.4165 8.00529C15.3651 8.00529 15.3124 7.99483 15.2593 7.97434C14.8227 7.80456 14.8574 7.39224 14.8788 7.26846C14.8817 7.24295 14.8754 7.22372 14.8595 7.21075L14.8286 7.18524L14.7997 7.21284C14.7148 7.29481 14.6032 7.33997 14.4865 7.33997C14.236 7.33955 14.0324 7.13632 14.0328 6.88625C14.0328 6.63576 14.2369 6.43295 14.4869 6.43295C14.7132 6.43295 14.9055 6.60314 14.9344 6.82896L14.9499 6.95065L15.0168 6.84778C15.0243 6.83565 15.2075 6.5584 15.5445 6.55882C15.6085 6.55882 15.6746 6.56885 15.7415 6.58976C16.0099 6.67172 16.0555 6.9151 16.0626 7.01672C16.0672 7.07568 16.1095 7.07861 16.1178 7.07861C16.1408 7.07861 16.158 7.06397 16.1701 7.05101C16.2207 6.99832 16.3311 6.9105 16.5038 6.9105C16.5828 6.9105 16.6673 6.92932 16.7539 6.96654C17.1808 7.1497 16.9872 7.69207 16.9851 7.69793C16.9483 7.78784 16.9467 7.82756 16.9814 7.85056L16.9981 7.85851H17.0106C17.0299 7.85851 17.0537 7.85014 17.093 7.83676C17.1511 7.81669 17.239 7.78658 17.3209 7.78658H17.3213C17.6425 7.79034 17.9039 8.0517 17.9039 8.36952C17.9034 8.69026 17.6421 8.9512 17.3209 8.9512ZM21.8439 6.33677C21.1389 5.72163 19.5096 4.30527 19.0685 3.97366C18.8163 3.78422 18.6444 3.68386 18.4935 3.63912C18.4257 3.61863 18.3316 3.59521 18.2108 3.59521C18.0987 3.59521 17.9783 3.61528 17.8524 3.65543C17.5672 3.74575 17.2833 3.97157 17.0081 4.18985L16.9939 4.20114C16.738 4.4048 16.4737 4.61514 16.2734 4.65988C16.186 4.67954 16.0961 4.68957 16.0066 4.68957C15.782 4.68957 15.5809 4.62476 15.5052 4.52858C15.4927 4.51227 15.5006 4.48676 15.5299 4.44954L15.5341 4.44452L16.1542 3.77628C16.6397 3.29036 17.0984 2.83204 18.1548 2.80778C18.1719 2.80737 18.1899 2.80695 18.2075 2.80695C18.8648 2.80737 19.5218 3.10176 19.5954 3.13563C20.2118 3.4363 20.8482 3.58894 21.4876 3.58935C22.1542 3.58977 22.8421 3.42459 23.5651 3.09173C23.4844 3.02398 23.4004 2.95791 23.3138 2.89309C22.6786 3.16825 22.0735 3.3075 21.4897 3.3075C20.893 3.30667 20.2975 3.16365 19.7187 2.88138C19.6882 2.86675 18.9627 2.52468 18.2075 2.52426C18.1878 2.52426 18.1677 2.52468 18.1481 2.5251C17.2611 2.54559 16.7614 2.86089 16.4252 3.13689C16.0986 3.14483 15.8163 3.22345 15.5658 3.2937C15.3417 3.35559 15.1485 3.40954 14.9599 3.40954C14.8821 3.40954 14.7424 3.40243 14.7299 3.40201C14.5133 3.39532 13.4206 3.12769 12.5516 2.79858C12.463 2.86131 12.3777 2.92613 12.2944 2.9922C13.2023 3.36438 14.3071 3.65208 14.6559 3.67466C14.7529 3.68135 14.8562 3.69223 14.9595 3.69223C15.1903 3.69223 15.4203 3.62783 15.6432 3.56552C15.7745 3.5283 15.9196 3.48816 16.0727 3.45888C16.0317 3.49903 15.9911 3.53959 15.9501 3.58015L15.3204 4.26178C15.2706 4.31196 15.1627 4.44578 15.2338 4.61012C15.2622 4.67661 15.3195 4.74017 15.3998 4.79412C15.5495 4.89532 15.8184 4.96348 16.0685 4.9639C16.163 4.9639 16.2529 4.95428 16.3353 4.93588C16.5991 4.8765 16.8764 4.6557 17.17 4.42236C17.4037 4.23669 17.7357 4.00084 17.9904 3.93142C18.0615 3.91219 18.1489 3.90006 18.2187 3.90006C18.2397 3.90048 18.2597 3.90089 18.2781 3.90382C18.4462 3.92473 18.6085 3.98202 18.8987 4.19989C19.416 4.58838 21.7047 6.5906 21.7272 6.61067C21.7285 6.61193 21.8744 6.73738 21.8644 6.94688C21.859 7.06356 21.7941 7.16726 21.6817 7.23919C21.5838 7.30108 21.483 7.33244 21.3814 7.33244C21.2284 7.33244 21.123 7.26052 21.1159 7.25592C21.1075 7.24881 20.3234 6.52996 20.0349 6.28826C19.9889 6.2502 19.9441 6.21591 19.899 6.21591C19.8751 6.21591 19.8538 6.22595 19.8392 6.24435C19.794 6.30039 19.8446 6.37775 19.9048 6.42877L20.8206 7.34917C20.8219 7.35042 20.9348 7.45622 20.9469 7.59757C20.9544 7.7502 20.8813 7.87774 20.7295 7.97727C20.6216 8.04836 20.512 8.08474 20.405 8.08474C20.2645 8.08474 20.1653 8.02034 20.1436 8.00529L20.0123 7.87565C19.7723 7.63938 19.5243 7.39517 19.3428 7.24379C19.2985 7.20699 19.2512 7.17312 19.2061 7.17312C19.1839 7.17312 19.1638 7.18106 19.1483 7.19737C19.1279 7.22037 19.1132 7.26177 19.1651 7.33035C19.186 7.35837 19.2111 7.38179 19.2111 7.38179L19.8797 8.13283C19.8852 8.13952 20.0173 8.29675 19.8948 8.45315L19.871 8.48284C19.8513 8.50501 19.8296 8.5255 19.8091 8.54306C19.6949 8.63673 19.5427 8.64677 19.4825 8.64677C19.4503 8.64677 19.4189 8.64384 19.3921 8.63882C19.3261 8.62711 19.2817 8.60871 19.26 8.5832L19.2521 8.57484C19.2157 8.53721 18.8786 8.19305 18.5997 7.96054C18.5633 7.9296 18.5173 7.89071 18.4701 7.89071C18.4466 7.89071 18.4257 7.89991 18.4094 7.91789C18.3542 7.97811 18.437 8.06843 18.4722 8.10188L19.0425 8.7304C19.0417 8.73584 19.0346 8.7488 19.0208 8.76887C19.0003 8.79689 18.9313 8.86631 18.7243 8.89224C18.6996 8.89558 18.6741 8.89684 18.6486 8.89684C18.4354 8.89684 18.2079 8.79313 18.0908 8.73124C18.1443 8.61833 18.1719 8.49413 18.1719 8.36994C18.1719 7.90032 17.7909 7.51853 17.3218 7.51853C17.3117 7.51853 17.3013 7.51853 17.2912 7.51895C17.3063 7.30484 17.2762 6.89921 16.8597 6.72065C16.7397 6.6688 16.6201 6.64245 16.5042 6.64245C16.4131 6.64245 16.3257 6.65793 16.2437 6.68929C16.1571 6.5216 16.0141 6.39949 15.8272 6.33593C15.7239 6.30039 15.621 6.28199 15.5219 6.28199C15.3484 6.28199 15.1891 6.333 15.0465 6.4342C14.9101 6.26484 14.704 6.16406 14.4869 6.16406C14.2971 6.16406 14.1143 6.24017 13.9793 6.3744C13.8016 6.23891 13.0978 5.79147 11.2135 5.36367C11.1223 5.34318 10.9132 5.28296 10.7848 5.24575C10.7635 5.34736 10.7472 5.45065 10.7363 5.55478C10.7363 5.55478 11.0838 5.638 11.1524 5.65347C13.0773 6.08084 13.7129 6.52536 13.8208 6.60942C13.784 6.69682 13.7652 6.7909 13.7652 6.88625C13.7648 7.28352 14.0884 7.6076 14.4861 7.60802C14.5309 7.60802 14.5752 7.60384 14.6183 7.59589C14.6785 7.88862 14.87 8.11067 15.1623 8.22441C15.248 8.25703 15.3346 8.27417 15.4195 8.27417C15.4743 8.27417 15.5299 8.26748 15.5838 8.25368C15.6378 8.39084 15.7595 8.56188 16.0313 8.67228C16.1266 8.71075 16.222 8.73082 16.3144 8.73082C16.3901 8.73082 16.4641 8.71744 16.5347 8.69151C16.6648 9.00891 16.9751 9.21883 17.3205 9.21883C17.5497 9.21925 17.7696 9.126 17.9302 8.96082C18.0674 9.03734 18.3572 9.17534 18.6499 9.17576C18.6879 9.17576 18.7235 9.17283 18.759 9.16865C19.0501 9.13227 19.1851 9.01811 19.2475 8.92987C19.2587 8.9144 19.2688 8.89809 19.2776 8.88095C19.3461 8.90102 19.4214 8.91691 19.508 8.91733C19.6669 8.91733 19.8195 8.86296 19.9734 8.75047C20.1248 8.64175 20.2323 8.48493 20.2477 8.35154C20.2481 8.34944 20.2486 8.34777 20.249 8.34568C20.2996 8.35614 20.3523 8.36157 20.4045 8.36157C20.5681 8.36157 20.7286 8.31055 20.8825 8.20977C21.179 8.01574 21.2304 7.76191 21.2258 7.59547C21.2773 7.60635 21.3304 7.61178 21.3831 7.61178C21.5365 7.61178 21.6875 7.56578 21.8309 7.4742C22.0149 7.3567 22.1253 7.17688 22.1421 6.96737C22.1538 6.8252 22.1186 6.68176 22.0434 6.5584C22.5402 6.34429 23.6755 5.9303 25.0124 5.6288C25.0045 5.52509 24.9894 5.42264 24.971 5.3206C23.3535 5.67981 22.1462 6.20211 21.8439 6.33677Z" fill="#404040"/>
<path d="M28.4679 16.1168C28.3378 16.2895 28.1518 16.3756 27.9084 16.3756C27.6654 16.3756 27.4781 16.2895 27.3472 16.1168C27.2159 15.9441 27.1506 15.6982 27.1506 15.3799C27.1506 15.0617 27.2159 14.8167 27.3472 14.6448C27.4781 14.4733 27.6654 14.3872 27.9084 14.3872C28.1518 14.3872 28.3378 14.4733 28.4679 14.6448C28.5979 14.8167 28.6636 15.0617 28.6636 15.3799C28.6636 15.6982 28.5979 15.9441 28.4679 16.1168ZM29.1328 14.1886C28.8643 13.8528 28.4574 13.6847 27.9109 13.6847C27.3652 13.6847 26.9579 13.8528 26.6898 14.1886C26.4213 14.5248 26.2871 14.9216 26.2871 15.3799C26.2871 15.8462 26.4213 16.2447 26.6898 16.5763C26.9579 16.9067 27.3652 17.0727 27.9109 17.0727C28.4574 17.0727 28.8643 16.9067 29.1328 16.5763C29.4013 16.2447 29.5351 15.8462 29.5351 15.3799C29.5351 14.9216 29.4013 14.5248 29.1328 14.1886Z" fill="#404040"/>
<path d="M21.8571 15.7241C21.8517 16.003 21.7718 16.1954 21.6184 16.3003C21.4649 16.4057 21.2972 16.4588 21.1153 16.4588C21.0003 16.4588 20.9029 16.4266 20.8226 16.3635C20.7423 16.2999 20.7026 16.1971 20.7026 16.0545C20.7026 15.8951 20.7678 15.7772 20.8991 15.7007C20.9773 15.6564 21.1044 15.6179 21.2826 15.5874L21.4724 15.5522C21.5669 15.5343 21.6414 15.515 21.6957 15.4945C21.7509 15.4745 21.804 15.4477 21.8571 15.4142V15.7241ZM22.2799 13.9075C22.0077 13.77 21.6966 13.7001 21.3461 13.7001C20.8075 13.7001 20.4274 13.8406 20.2062 14.1212C20.0669 14.3011 19.9892 14.5298 19.9708 14.8087H20.7753C20.7954 14.6858 20.8347 14.5883 20.8941 14.5164C20.9773 14.419 21.1182 14.3701 21.3177 14.3701C21.4958 14.3701 21.6309 14.3943 21.7229 14.4449C21.8145 14.4942 21.8605 14.5846 21.8605 14.715C21.8605 14.8225 21.8011 14.9011 21.6807 14.9522C21.6138 14.9814 21.503 15.0057 21.3474 15.0253L21.0622 15.0605C20.7385 15.101 20.4922 15.1696 20.3258 15.2654C20.0209 15.441 19.8691 15.7241 19.8691 16.1164C19.8691 16.4183 19.9632 16.652 20.1527 16.8168C20.3417 16.9816 20.5821 17.0506 20.8723 17.0644C22.6918 17.1455 22.6713 16.1055 22.6881 15.8889V14.6916C22.6881 14.3077 22.5517 14.0464 22.2799 13.9075Z" fill="#404040"/>
<path d="M18.1302 14.4131C18.3385 14.4131 18.4911 14.4775 18.5898 14.6059C18.6575 14.7008 18.6998 14.8083 18.7161 14.9271H19.6139C19.5645 14.4742 19.4061 14.158 19.1384 13.9787C18.87 13.8005 18.5266 13.7106 18.1064 13.7106C17.6117 13.7106 17.2236 13.8624 16.943 14.1656C16.662 14.4692 16.5215 14.8932 16.5215 15.4385C16.5215 15.9211 16.6486 16.3146 16.9029 16.6182C17.1571 16.9209 17.554 17.0727 18.0934 17.0727C18.6333 17.0727 19.0406 16.8912 19.3153 16.5274C19.4872 16.302 19.5838 16.0628 19.6043 15.8103H18.7098C18.6914 15.9771 18.6391 16.1134 18.5526 16.2184C18.4664 16.3229 18.3209 16.3756 18.1152 16.3756C17.8258 16.3756 17.6284 16.2439 17.5234 15.9788C17.4661 15.8379 17.4373 15.6509 17.4373 15.418C17.4373 15.1738 17.4661 14.9781 17.5234 14.8305C17.6326 14.5528 17.835 14.4131 18.1302 14.4131Z" fill="#404040"/>
<path d="M16.2807 13.7106C14.437 13.7106 14.5461 15.3432 14.5461 15.3432V17.0012H15.3825V15.446C15.3825 15.1914 15.4147 15.0023 15.4787 14.8798C15.5933 14.6624 15.8178 14.5532 16.1524 14.5532C16.1774 14.5532 16.2105 14.5545 16.2515 14.5566C16.292 14.5582 16.3384 14.562 16.3916 14.5683V13.7169C16.3543 13.7144 16.3305 13.7135 16.32 13.7123C16.3092 13.7114 16.2962 13.7106 16.2807 13.7106Z" fill="#404040"/>
<path d="M12.0828 14.5771C12.2007 14.4562 12.3659 14.3956 12.5788 14.3956C12.7753 14.3956 12.9392 14.4524 13.0718 14.567C13.2039 14.6808 13.2779 14.8485 13.293 15.0688H11.8616C11.8913 14.8618 11.9653 14.6983 12.0828 14.5771ZM13.2073 16.1348C13.1721 16.1849 13.1345 16.228 13.0927 16.2615C12.9748 16.3589 12.8142 16.3882 12.6252 16.3882C12.4462 16.3882 12.3065 16.361 12.1798 16.2811C11.9711 16.1532 11.8536 15.9361 11.8411 15.6171H14.1561C14.1595 15.3427 14.1503 15.1328 14.1281 14.9865C14.0896 14.7376 14.0052 14.5181 13.8751 14.3295C13.7308 14.1154 13.5472 13.9586 13.3256 13.8591C13.1044 13.7599 12.8556 13.7106 12.5788 13.7106C12.1125 13.7106 11.734 13.8574 11.4422 14.1509C11.1503 14.4449 11.0039 14.8669 11.0039 15.4172C11.0039 16.0051 11.1657 16.4292 11.4894 16.6897C11.8127 16.9502 12.1861 17.0811 12.6089 17.0811C13.1211 17.0811 13.5196 16.9264 13.8044 16.6173C13.9579 16.4547 14.0541 16.2937 14.0946 16.1348H13.2073Z" fill="#404040"/>
<path d="M10.6683 17.0008H9.90389V15.0764C9.90389 14.9007 9.84618 14.4826 9.34186 14.4826C9.00565 14.4826 8.76269 14.7251 8.76269 15.0764V17.0008H7.99785V15.0764C7.99785 14.9007 7.94557 14.4826 7.44167 14.4826C7.0996 14.4826 6.86208 14.7251 6.86208 15.0764V17.0008H6.09766V15.0948C6.09766 14.3002 6.62456 13.6993 7.44167 13.6993C7.8473 13.6993 8.17724 13.8699 8.39177 14.143C8.61758 13.8699 8.95338 13.6993 9.34186 13.6993C10.1761 13.6993 10.6683 14.276 10.6683 15.0948V17.0008Z" fill="#404040"/>
<path d="M25.0363 16.1235C24.9142 16.2987 24.7348 16.3861 24.4998 16.3861C24.2644 16.3861 24.0892 16.2979 23.9737 16.1222C23.8583 15.9458 23.8006 15.6898 23.8006 15.3963C23.8006 15.1241 23.8571 14.8961 23.9708 14.7126C24.0841 14.529 24.2623 14.437 24.5057 14.437C24.665 14.437 24.8051 14.4872 24.9259 14.5884C25.1221 14.7556 25.2203 15.0555 25.2203 15.4444C25.2203 15.722 25.1589 15.9487 25.0363 16.1235ZM26.0399 12.7057C26.0399 12.7057 25.1969 12.6158 25.1969 13.2929L25.1965 14.189C25.1032 14.0393 24.982 13.9218 24.8323 13.8377C24.683 13.7533 24.5119 13.7106 24.3187 13.7106C23.901 13.7106 23.5677 13.8662 23.3176 14.1773C23.0676 14.4884 22.9434 14.9367 22.9434 15.4791C22.9434 15.9495 23.0701 16.3351 23.3235 16.6358C23.5773 16.9356 24.0749 17.0673 24.5165 17.0673C26.0571 17.0673 26.0391 15.7459 26.0391 15.7459L26.0399 12.7057Z" fill="#404040"/>
<path d="M13.6076 20.0472C13.6076 19.7319 13.5462 19.4894 13.4228 19.3192C13.2999 19.1498 13.1238 19.0641 12.8938 19.0641C12.673 19.0641 12.5003 19.1498 12.3769 19.3192C12.2628 19.473 12.2055 19.7164 12.2055 20.0472C12.2055 20.3558 12.2665 20.5854 12.3899 20.7393C12.5124 20.9095 12.6893 20.9944 12.9185 20.9944C13.1318 20.9944 13.2999 20.9095 13.4228 20.7393C13.5462 20.5695 13.6076 20.3395 13.6076 20.0472ZM12.2055 22.3112C12.2055 22.4241 12.1645 22.5215 12.0817 22.6023C12.0002 22.6834 11.9019 22.7239 11.7869 22.7239H11.3691V19.8164C11.3691 19.251 11.5594 18.8972 11.873 18.6576C12.0805 18.4995 12.3891 18.3486 12.9678 18.3486C13.3584 18.3486 13.8159 18.5004 14.063 18.8015C14.3403 19.1402 14.4557 19.5178 14.4557 20.0108C14.4557 20.521 14.3327 20.9325 14.0873 21.249C13.8414 21.5568 13.5253 21.7099 13.1397 21.7099C12.9348 21.7099 12.7546 21.6735 12.599 21.6011C12.4342 21.52 12.3038 21.3946 12.2055 21.2244V22.3112Z" fill="#404040"/>
<path d="M18.6236 20.0476C18.6236 20.6055 18.785 20.9145 19.107 20.9756C19.4286 21.0354 19.6665 20.9605 19.8196 20.7506C19.8924 20.6623 19.9442 20.5223 19.9768 20.3328C20.0086 20.143 20.0111 19.9548 19.9827 19.7691C19.9551 19.5826 19.8882 19.417 19.7832 19.2715C19.6791 19.1264 19.5256 19.0532 19.3245 19.0532C19.0506 19.0532 18.8657 19.1548 18.7687 19.356C18.6717 19.5584 18.6236 19.7888 18.6236 20.0476ZM20.0011 21.4418V21.2365C19.8564 21.4631 19.6603 21.6037 19.4148 21.6605C19.1693 21.717 18.9255 21.6969 18.6847 21.5995C18.4425 21.5029 18.2351 21.3231 18.062 21.0604C17.8889 20.797 17.8027 20.4516 17.8027 20.0229C17.8027 19.5224 17.9173 19.1159 18.1465 18.8048C18.3761 18.4937 18.7449 18.3515 19.2521 18.3377C19.7518 18.3243 20.0425 18.4376 20.3273 18.653C20.6384 18.8893 20.8224 19.2514 20.8224 19.8172V21.5275C20.8236 22.0716 20.4439 23.0802 19.2521 22.9949C18.5136 22.9414 18.1038 22.6382 17.8751 21.952H18.757C18.8214 22.0649 18.9197 22.1515 19.0531 22.2117C19.1852 22.2732 19.319 22.289 19.4508 22.2606C19.5837 22.2322 19.7046 22.1531 19.8142 22.0243C19.9225 21.8951 19.9848 21.7007 20.0011 21.4418Z" fill="#404040"/>
<path d="M16.6638 20.3851C16.6584 20.664 16.5785 20.856 16.4254 20.9614C16.272 21.0663 16.1043 21.119 15.9224 21.119C15.8069 21.119 15.7095 21.0872 15.6296 21.0241C15.5493 20.9609 15.5092 20.8577 15.5092 20.7151C15.5092 20.5557 15.5749 20.4378 15.7062 20.3617C15.7844 20.317 15.9115 20.2785 16.0892 20.248L16.2791 20.2128C16.374 20.1948 16.4484 20.1756 16.5024 20.1551C16.5576 20.135 16.6107 20.1087 16.6638 20.0752V20.3851ZM17.0866 18.5686C16.8143 18.431 16.5032 18.3611 16.1532 18.3611C15.6142 18.3611 15.2345 18.5017 15.0128 18.7822C14.874 18.9616 14.7958 19.1904 14.7778 19.4697H15.5828C15.6025 19.3464 15.6418 19.2489 15.7011 19.177C15.7844 19.0796 15.9253 19.0311 16.1243 19.0311C16.3033 19.0311 16.438 19.0553 16.5296 19.1055C16.6211 19.1553 16.6676 19.2456 16.6676 19.3761C16.6676 19.4831 16.6078 19.5621 16.4877 19.6132C16.4212 19.6424 16.31 19.6667 16.1544 19.6863L15.8693 19.7211C15.5456 19.762 15.2993 19.8306 15.1328 19.926C14.828 20.1016 14.6758 20.3851 14.6758 20.7769C14.6758 21.0789 14.7703 21.3126 14.9597 21.4774C15.1487 21.6417 15.3892 21.7116 15.6794 21.7249C17.498 21.8061 17.478 20.7657 17.4947 20.5495V19.3522C17.4947 18.9683 17.3588 18.7074 17.0866 18.5686Z" fill="#404040"/>
<path d="M23.3218 20.7594C23.1918 20.9325 23.0053 21.0186 22.7623 21.0186C22.5189 21.0186 22.3316 20.9325 22.2011 20.7594C22.0694 20.5871 22.0042 20.3416 22.0042 20.0234C22.0042 19.7051 22.0694 19.4601 22.2011 19.2882C22.3316 19.1164 22.5189 19.031 22.7623 19.031C23.0053 19.031 23.1918 19.1164 23.3218 19.2882C23.4519 19.4601 23.5171 19.7051 23.5171 20.0234C23.5171 20.3416 23.4519 20.5871 23.3218 20.7594ZM23.9867 18.832C23.7183 18.4958 23.311 18.3281 22.7644 18.3281C22.2191 18.3281 21.8114 18.4958 21.5433 18.832C21.2749 19.1678 21.1406 19.5646 21.1406 20.0234C21.1406 20.4896 21.2749 20.8877 21.5433 21.2194C21.8114 21.5497 22.2191 21.7157 22.7644 21.7157C23.311 21.7157 23.7183 21.5497 23.9867 21.2194C24.2548 20.8877 24.3882 20.4896 24.3882 20.0234C24.3882 19.5646 24.2548 19.1678 23.9867 18.832Z" fill="#404040"/>
</svg>
