<svg width="130" height="23" viewBox="0 0 130 23" fill="none" xmlns="http://www.w3.org/2000/svg">
<path d="M22.2386 8.95752C22.214 10.9 23.9624 11.9839 25.2795 12.6284C26.6326 13.2896 27.0871 13.7136 27.0818 14.305C27.0717 15.21 26.0024 15.6094 25.0018 15.6249C23.2561 15.6521 22.2411 15.1516 21.4342 14.7731L20.8053 17.7281C21.6149 18.1027 23.114 18.4294 24.6686 18.4438C28.3177 18.4438 30.705 16.6349 30.718 13.8304C30.7322 10.271 25.8153 10.074 25.8489 8.48304C25.8605 8.00063 26.3189 7.48583 27.3233 7.35494C27.8205 7.28882 29.193 7.23822 30.749 7.95779L31.3598 5.09875C30.5229 4.79277 29.4474 4.49979 28.1084 4.49979C24.6738 4.49979 22.258 6.33328 22.2386 8.95752M37.2283 4.74605C36.5619 4.74605 36.0004 5.13636 35.7498 5.73533L30.5372 18.2338H34.1837L34.9093 16.22H39.3652L39.7861 18.2338H43L40.1954 4.74605H37.2283M37.7384 8.38959L38.7907 13.4544H35.9087L37.7384 8.38959M17.8175 4.74622L14.9432 18.2336H18.4179L21.2909 4.74588H17.8175M12.6771 4.74588L9.0604 13.9263L7.59739 6.12058C7.42573 5.24921 6.74781 4.74605 5.99497 4.74605H0.0828086L0 5.13771C1.21374 5.4022 2.59277 5.82877 3.42824 6.28521C3.93954 6.56403 4.08534 6.80776 4.2533 7.47032L7.02429 18.2338H10.6963L16.3259 4.74605H12.6771" fill="url(#paint0_linear_44_65)"/>
<path d="M66.2736 22.8856V21.3633C66.2736 20.7796 65.9254 20.3991 65.3285 20.3991C65.0302 20.3991 64.7068 20.5006 64.483 20.8305C64.309 20.5513 64.0604 20.3991 63.6873 20.3991C63.4386 20.3991 63.19 20.4752 62.991 20.7543V20.4499H62.4688V22.8856H62.991V21.5408C62.991 21.1096 63.2148 20.9065 63.563 20.9065C63.911 20.9065 64.0853 21.1349 64.0853 21.5408V22.8856H64.6075V21.5408C64.6075 21.1096 64.856 20.9065 65.1793 20.9065C65.5276 20.9065 65.7016 21.1349 65.7016 21.5408V22.8856H66.2736V22.8856ZM74.0075 20.4499H73.162V19.7141H72.6398V20.4499H72.1673V20.9318H72.6397V22.0483C72.6397 22.6066 72.8635 22.9363 73.4604 22.9363C73.6843 22.9363 73.9328 22.8602 74.107 22.7588L73.9577 22.302C73.8085 22.4035 73.6345 22.4289 73.5102 22.4289C73.2615 22.4289 73.162 22.2767 73.162 22.0229V20.9318H74.0075V20.4499V20.4499ZM78.434 20.399C78.1357 20.399 77.9367 20.5513 77.8124 20.7543V20.4499H77.2901V22.8856H77.8124V21.5155C77.8124 21.1096 77.9864 20.8812 78.3097 20.8812C78.4091 20.8812 78.5335 20.9066 78.633 20.9319L78.7822 20.4246C78.6827 20.3991 78.5335 20.3991 78.434 20.3991V20.399ZM71.7446 20.6528C71.4958 20.4752 71.1477 20.3991 70.7746 20.3991C70.1779 20.3991 69.78 20.7036 69.78 21.1856C69.78 21.5917 70.0784 21.8199 70.6006 21.8961L70.8493 21.9215C71.1229 21.9721 71.2721 22.0483 71.2721 22.1752C71.2721 22.3527 71.0731 22.4796 70.7249 22.4796C70.3768 22.4796 70.1032 22.3527 69.9291 22.226L69.6805 22.6319C69.954 22.8348 70.3271 22.9363 70.7 22.9363C71.3963 22.9363 71.7943 22.6066 71.7943 22.1498C71.7943 21.7185 71.471 21.4901 70.9736 21.414L70.7249 21.3886C70.5011 21.3632 70.3271 21.3125 70.3271 21.1603C70.3271 20.9827 70.5011 20.8812 70.7746 20.8812C71.0731 20.8812 71.3715 21.008 71.5207 21.0842L71.7446 20.6528V20.6528ZM85.6209 20.3991C85.3224 20.3991 85.1235 20.5513 84.9991 20.7543V20.4499H84.4769V22.8856H84.9991V21.5155C84.9991 21.1096 85.1733 20.8812 85.4964 20.8812C85.596 20.8812 85.7204 20.9066 85.8199 20.9319L85.9691 20.4246C85.8696 20.3991 85.7204 20.3991 85.6209 20.3991V20.3991ZM78.9563 21.6677C78.9563 22.4035 79.4536 22.9363 80.2246 22.9363C80.5727 22.9363 80.8213 22.8602 81.07 22.6573L80.8213 22.226C80.6224 22.3782 80.4235 22.4542 80.1996 22.4542C79.7769 22.4542 79.4785 22.1498 79.4785 21.6677C79.4785 21.2111 79.7769 20.9065 80.1996 20.8812C80.4235 20.8812 80.6224 20.9573 80.8213 21.1096L81.07 20.6782C80.8213 20.4752 80.5727 20.3991 80.2246 20.3991C79.4536 20.3991 78.9563 20.9319 78.9563 21.6677ZM83.7807 21.6677V20.4499H83.2585V20.7543C83.0844 20.526 82.8357 20.3991 82.5124 20.3991C81.841 20.3991 81.3187 20.9319 81.3187 21.6677C81.3187 22.4035 81.841 22.9363 82.5124 22.9363C82.8605 22.9363 83.1093 22.8095 83.2585 22.5811V22.8856H83.7807V21.6677V21.6677ZM81.8658 21.6677C81.8658 21.2364 82.1394 20.8812 82.5869 20.8812C83.0097 20.8812 83.3082 21.2111 83.3082 21.6677C83.3082 22.099 83.0097 22.4542 82.5869 22.4542C82.1394 22.4288 81.8658 22.099 81.8658 21.6677V21.6677ZM75.624 20.3991C74.9276 20.3991 74.4302 20.9065 74.4302 21.6677C74.4302 22.4289 74.9275 22.9363 75.6488 22.9363C75.9969 22.9363 76.3451 22.8348 76.6187 22.6066L76.3699 22.226C76.171 22.3782 75.9224 22.4796 75.6737 22.4796C75.3504 22.4796 75.0271 22.3274 74.9525 21.896H76.7182V21.6931C76.7431 20.9065 76.2954 20.3991 75.6239 20.3991H75.624ZM75.624 20.8558C75.9472 20.8558 76.1711 21.0588 76.2208 21.4394H74.9774C75.0271 21.1096 75.251 20.8558 75.624 20.8558ZM88.5802 21.6677V19.4857H88.058V20.7543C87.8839 20.526 87.6352 20.3991 87.3119 20.3991C86.6405 20.3991 86.1182 20.9319 86.1182 21.6677C86.1182 22.4035 86.6405 22.9363 87.3119 22.9363C87.6601 22.9363 87.9088 22.8095 88.058 22.5811V22.8856H88.5802V21.6677V21.6677ZM86.6654 21.6677C86.6654 21.2364 86.9389 20.8812 87.3865 20.8812C87.8093 20.8812 88.1077 21.2111 88.1077 21.6677C88.1077 22.099 87.8093 22.4542 87.3865 22.4542C86.9389 22.4288 86.6654 22.099 86.6654 21.6677V21.6677ZM69.208 21.6677V20.4499H68.6857V20.7543C68.5116 20.526 68.263 20.3991 67.9397 20.3991C67.2682 20.3991 66.746 20.9319 66.746 21.6677C66.746 22.4035 67.2682 22.9363 67.9397 22.9363C68.2879 22.9363 68.5365 22.8095 68.6857 22.5811V22.8856H69.208V21.6677V21.6677ZM67.2682 21.6677C67.2682 21.2364 67.5418 20.8812 67.9894 20.8812C68.4122 20.8812 68.7107 21.2111 68.7107 21.6677C68.7107 22.099 68.4122 22.4542 67.9894 22.4542C67.5418 22.4288 67.2682 22.099 67.2682 21.6677V21.6677Z" fill="black"/>
<path d="M71.5703 1.95325H79.4037V16.3139H71.5703V1.95325Z" fill="#FF5F00"/>
<path d="M72.0663 9.134C72.0663 6.21624 73.4092 3.62822 75.4732 1.95361C73.9563 0.735769 72.0415 0 69.9526 0C65.0037 0 61 4.08487 61 9.134C61 14.183 65.0037 18.268 69.9525 18.268C72.0414 18.268 73.9562 17.5322 75.4732 16.3143C73.4092 14.6651 72.0663 12.0518 72.0663 9.134V9.134Z" fill="#EB001B"/>
<path d="M89.9732 9.134C89.9732 14.183 85.9695 18.268 81.0206 18.268C78.9317 18.268 77.0169 17.5322 75.5 16.3143C77.5889 14.6398 78.9069 12.0518 78.9069 9.134C78.9069 6.21624 77.564 3.62822 75.5 1.95361C77.0168 0.735769 78.9317 0 81.0206 0C85.9695 0 89.9733 4.1103 89.9733 9.134H89.9732Z" fill="#F79E1B"/>
<path d="M122.68 13.6808C122.68 13.3872 122.554 13.2263 122.364 13.1115C122.171 13.0008 121.938 12.9857 121.619 12.9857H120.205V15.5707H120.824V14.6295H121.487C121.705 14.6295 121.842 14.6515 121.923 14.7443C122.034 14.8626 122.02 15.0915 122.02 15.2496V15.5686H122.622V15.0599C122.622 14.8309 122.608 14.7161 122.526 14.5869C122.445 14.4899 122.34 14.4159 122.221 14.3724L122.238 14.3648C122.407 14.3009 122.679 14.0926 122.679 13.6808H122.68ZM121.881 14.0527L121.855 14.0493C121.773 14.0994 121.677 14.1036 121.551 14.1036H120.81V13.5267H121.566C121.677 13.5267 121.784 13.5268 121.871 13.5735C121.914 13.5945 121.95 13.6279 121.974 13.6694C121.998 13.7109 122.009 13.7587 122.006 13.8066C122.006 13.9172 121.963 14.0025 121.884 14.0534L121.881 14.0527ZM126.604 15.0166H125.415V15.5686H126.612C127.23 15.5686 127.574 15.3136 127.574 14.7594C127.574 14.5009 127.514 14.3469 127.403 14.2259C127.263 14.1043 127.041 14.0465 126.734 14.0362L126.389 14.0217C126.293 14.0217 126.225 14.0218 126.154 13.9936C126.113 13.9808 126.077 13.955 126.053 13.9201C126.028 13.8852 126.015 13.8431 126.017 13.8004C126.017 13.7179 126.031 13.6498 126.099 13.6106C126.176 13.568 126.263 13.548 126.35 13.5529H127.474V13.0022H126.239C125.595 13.0022 125.362 13.403 125.362 13.7722C125.362 14.5993 126.071 14.5559 126.651 14.5704C126.744 14.5704 126.816 14.5841 126.855 14.6233C126.898 14.6529 126.93 14.7203 126.93 14.7883C126.93 14.8598 126.898 14.9279 126.858 14.9533C126.805 15.0028 126.723 15.0172 126.605 15.0172L126.604 15.0166ZM107.998 0.5V9.7565L108.74 8.03431H110.344L110.551 8.46056V8.03431H112.424L112.835 8.96862L113.237 8.04188H119.199C119.468 8.04188 119.71 8.09481 119.89 8.25981V8.04806H121.53V8.25981C121.808 8.10237 122.156 8.04806 122.553 8.04806H124.941L125.164 8.47431V8.04806H126.922L127.153 8.47431V8.04462H128.858V11.6657H127.129L126.799 11.1136V11.6506H124.64L124.407 11.0738H123.87L123.623 11.6354H122.513C122.072 11.6354 121.743 11.5426 121.521 11.4175V11.6354H118.87V10.8269C118.87 10.7162 118.846 10.7163 118.777 10.7011H118.681V11.6499H113.557V11.2133L113.363 11.6499H112.296L112.11 11.2133V11.6389H110.044L109.811 11.0662H109.278L109.046 11.6389H107.996V22.4993H129.799V15.9825C129.552 16.1069 129.237 16.1468 128.907 16.1468H127.329V15.9138C127.135 16.0643 126.806 16.1468 126.491 16.1468H121.481V15.3239C121.481 15.2132 121.462 15.2132 121.37 15.2132H121.302V16.1509H119.651V15.174C119.379 15.2998 119.06 15.3094 118.799 15.2998H118.606V16.1379H116.608L116.111 15.5714L115.587 16.1234H112.343V12.5209H115.652L116.128 13.073L116.637 12.5209H118.846C119.103 12.5209 119.522 12.5505 119.708 12.7293V12.5072H121.703C121.889 12.5072 122.294 12.5505 122.533 12.7141V12.4962H125.523V12.7141C125.674 12.5636 125.993 12.4962 126.261 12.4962H127.993V12.7141C128.173 12.5787 128.42 12.4962 128.763 12.4962H129.841V0.500688L107.998 0.5ZM127.391 14.2067C127.395 14.2143 127.395 14.2211 127.399 14.2253C127.41 14.2314 127.423 14.2314 127.431 14.2424L127.392 14.2101L127.391 14.2067ZM129.841 12.4921H129.902V13.0008H129.841V12.4921ZM129.872 14.2782V14.2706C129.848 14.2493 129.833 14.2287 129.804 14.2067C129.669 14.0671 129.446 14.0094 129.106 14.0025L128.773 13.9922C128.666 13.9922 128.598 13.9846 128.526 13.964C128.485 13.9511 128.45 13.9253 128.425 13.8904C128.401 13.8555 128.388 13.8135 128.389 13.7708C128.389 13.6883 128.418 13.623 128.472 13.5838C128.54 13.5446 128.607 13.5378 128.719 13.5378H129.84V13.0008H128.666C128.031 13.0008 127.785 13.4016 127.785 13.7708C127.785 14.5937 128.501 14.5546 129.078 14.569C129.175 14.569 129.243 14.5793 129.282 14.6219C129.325 14.6515 129.353 14.7189 129.353 14.7869C129.353 14.8189 129.345 14.8503 129.331 14.8788C129.317 14.9074 129.296 14.9324 129.271 14.9519C129.227 15.0014 129.145 15.0159 129.024 15.0159H127.841V15.5707H129.021C129.406 15.5707 129.694 15.4634 129.848 15.2414H129.872C129.955 15.1156 129.998 14.9657 129.998 14.7622C129.998 14.5394 129.955 14.404 129.872 14.2782V14.2782ZM125.046 13.5233V12.9898H122.997V15.5858H125.046V15.0489H123.606V14.5298H125.01V13.9929H123.606V13.5274L125.046 13.5233ZM120.384 8.55269H121.01V11.1349H120.384V8.55269ZM120.029 9.24775L120.022 9.25531C120.022 8.9645 119.904 8.79675 119.71 8.68263C119.513 8.56781 119.281 8.55681 118.97 8.55681H117.559V11.1418H118.178V10.1931H118.837C119.055 10.1931 119.195 10.2213 119.285 10.3038C119.397 10.4296 119.382 10.6509 119.382 10.8049V11.1315H120.001V10.6262C120.001 10.3973 119.987 10.2824 119.9 10.1498C119.82 10.0542 119.716 9.98045 119.6 9.93525C119.732 9.87671 119.844 9.78006 119.921 9.65761C119.999 9.53516 120.038 9.39248 120.034 9.24775H120.029ZM119.246 9.61006H119.235C119.149 9.65956 119.055 9.663 118.93 9.663H118.175V9.09031H118.93C119.041 9.09031 119.148 9.09375 119.231 9.13706C119.313 9.17281 119.37 9.25531 119.37 9.366C119.37 9.47669 119.327 9.56675 119.246 9.61006ZM122.593 9.09031H123.17V8.54237H122.579C122.156 8.54237 121.844 8.63931 121.644 8.84419C121.383 9.11919 121.314 9.47738 121.314 9.86444C121.314 10.334 121.425 10.6269 121.644 10.8455C121.855 11.0634 122.235 11.1322 122.532 11.1322H123.249L123.482 10.5554H124.756L124.996 11.1322H126.242V9.19825L127.41 11.1322H128.284V8.55337H127.653V10.3546L126.572 8.55681H125.637V10.9486L124.599 8.51419H123.678L122.815 10.5519H122.539C122.379 10.5519 122.207 10.5237 122.11 10.4261C121.996 10.2907 121.942 10.0968 121.942 9.82112C121.942 9.55987 122.014 9.35156 122.117 9.24431C122.239 9.1185 122.368 9.09031 122.59 9.09031H122.593ZM124.122 8.99406L124.545 10.0177V10.0212H123.692L124.122 8.99406ZM110.179 10.5547L110.412 11.1315H111.665V9.11231L112.557 11.1315H113.09L113.981 9.11231L113.996 11.1315H114.629V8.55681H113.605L112.868 10.3003L112.063 8.55337H111.064V10.9954L110.018 8.55337H109.105L108.01 11.1322H108.668L108.904 10.5595H110.18L110.179 10.5547ZM109.548 8.99406L109.971 10.0177L109.968 10.0212H109.13L109.548 8.99406ZM118.865 12.9857H116.904L116.123 13.8306L115.367 12.9857H112.901V15.5707H115.332L116.115 14.7154L116.872 15.5679H118.063V14.7079H118.833C119.381 14.7079 119.904 14.5573 119.904 13.8416L119.9 13.8382C119.9 13.1225 119.353 12.9857 118.865 12.9857V12.9857ZM115.031 15.031H113.516V14.5188H114.861V13.9929H113.516V13.5274H115.055L115.729 14.2789L115.027 15.0344L115.031 15.031ZM117.451 15.3356L116.505 14.2823L117.451 13.2696V15.3356ZM118.872 14.1819H118.063V13.5226H118.872C119.094 13.5226 119.259 13.6127 119.259 13.8382C119.259 14.0637 119.124 14.1819 118.872 14.1819ZM117.136 9.09031V8.55337H115.084V11.1356H117.136V10.6021H115.696V10.0858H117.097V9.55575H115.696V9.09031H117.136Z" fill="#016FD0"/>
<defs>
<linearGradient id="paint0_linear_44_65" x1="19.7688" y1="18.7235" x2="20.1741" y2="4.40291" gradientUnits="userSpaceOnUse">
<stop stop-color="#222357"/>
<stop offset="1" stop-color="#254AA5"/>
</linearGradient>
</defs>
</svg>
