<svg width="16" height="20" viewBox="0 0 16 20" fill="none" xmlns="http://www.w3.org/2000/svg">
<path d="M6.67002 13.0967C6.16402 15.8227 5.54802 18.4367 3.72002 19.8017C3.15702 15.6817 4.54902 12.5867 5.19502 9.3017C4.09302 7.3917 5.32802 3.5467 7.65202 4.4937C10.512 5.6597 5.17502 11.5957 8.75803 12.3377C12.499 13.1117 14.027 5.6547 11.707 3.2287C8.35502 -0.272301 1.95002 3.1497 2.73802 8.1627C2.93002 9.3887 4.15902 9.7607 3.22902 11.4527C1.08402 10.9617 0.444024 9.2197 0.527024 6.8967C0.659024 3.0967 3.84402 0.434699 7.03802 0.0666989C11.078 -0.399301 14.869 1.5937 15.392 5.5067C15.982 9.9227 13.569 14.7067 9.25002 14.3617C8.07902 14.2687 7.58702 13.6717 6.67002 13.0967Z" fill="#0A3356"/>
</svg>
