<svg width="34" height="23" viewBox="0 0 34 23" fill="none" xmlns="http://www.w3.org/2000/svg">
<path d="M32.9634 3.80288C32.7737 3.13173 32.4023 2.51979 31.8863 2.02832C31.3703 1.53685 30.7278 1.18308 30.0231 1.00243C27.428 0.333496 17 0.333496 17 0.333496C17 0.333496 6.57197 0.333496 3.97687 1.00243C3.27219 1.18308 2.6297 1.53685 2.11368 2.02832C1.59766 2.51979 1.22623 3.13173 1.03655 3.80288C0.551989 6.3236 0.316844 8.88205 0.334209 11.4446C0.316844 14.0072 0.551989 16.5656 1.03655 19.0863C1.22623 19.7575 1.59766 20.3694 2.11368 20.8609C2.6297 21.3524 3.27219 21.7061 3.97687 21.8868C6.57197 22.5557 17 22.5557 17 22.5557C17 22.5557 27.428 22.5557 30.0231 21.8868C30.7278 21.7061 31.3703 21.3524 31.8863 20.8609C32.4023 20.3694 32.7737 19.7575 32.9634 19.0863C33.448 16.5656 33.6831 14.0072 33.6658 11.4446C33.6831 8.88205 33.448 6.3236 32.9634 3.80288ZM13.6668 16.2065V6.6827L22.3211 11.4446L13.6668 16.2065Z" fill="#0A3356"/>
</svg>
