<svg width="91" height="19" viewBox="0 0 91 19" fill="none" xmlns="http://www.w3.org/2000/svg">
<path fill-rule="evenodd" clip-rule="evenodd" d="M17.7527 6.91217C16.775 2.82936 13.2408 0.0624124 8.98502 0C8.42561 0.0208041 7.81914 0.0676134 7.26495 0.176835C1.29435 1.36267 -1.77983 7.92637 1.10614 13.2106C1.2107 13.3563 1.2107 13.4915 1.18979 13.6475C0.771532 15.0102 0.384646 16.4249 0.0134439 17.8031C-0.0283816 17.9696 0.0273858 18.0285 0.180746 17.98C1.63941 17.5899 3.08239 17.2206 4.53583 16.8617C4.66131 16.8201 4.75541 16.8201 4.85998 16.8825C6.72644 17.8291 8.69747 18.084 10.7678 17.7043C15.698 16.7577 18.9343 11.7595 17.7579 6.90697L17.7527 6.91217ZM10.2502 16.2688C9.82153 16.352 9.41374 16.3937 9.21506 16.3572C7.62569 16.3572 6.35001 16.014 5.15799 15.3274C4.99068 15.2234 4.85998 15.1922 4.6979 15.2494C3.88231 15.4471 3.09285 15.6603 2.28771 15.8683C2.12041 15.9256 2.10472 15.8944 2.14132 15.7227C2.35567 14.9842 2.55435 14.23 2.78961 13.4603C2.8419 13.2522 2.82621 13.1014 2.69551 12.935C1.06431 10.3032 1.13751 7.0474 2.96214 4.60811C4.85998 2.08561 7.46885 1.03501 10.5692 1.69554C13.6277 2.33526 15.583 4.31686 16.2784 7.33866C17.2665 11.4787 14.4537 15.5927 10.2502 16.2688Z" fill="#01CF2D"/>
<path fill-rule="evenodd" clip-rule="evenodd" d="M11.3344 13.2106C11.0207 13.2367 10.7018 13.1742 10.3985 13.0806C8.33862 12.4825 6.78585 11.2291 5.53108 9.52832C5.06577 8.89899 4.62138 8.21766 4.48544 7.4219C4.29723 6.49091 4.59001 5.66915 5.29581 5.02942C5.53108 4.81098 6.21598 4.70696 6.49307 4.84219C6.58195 4.9254 6.63423 4.99822 6.69174 5.08663C6.94792 5.71596 7.21979 6.30888 7.47597 6.9174C7.51257 7.04222 7.50734 7.16185 7.43937 7.29187C7.30344 7.56753 7.08908 7.80157 6.89041 8.02522C6.71788 8.17605 6.71788 8.34768 6.8329 8.51932C7.57008 9.74676 8.56866 10.6257 9.90185 11.1406C10.0953 11.2239 10.2417 11.1978 10.3619 11.0366C10.592 10.7766 10.822 10.4905 11.0311 10.2097C11.1618 10.0328 11.3396 10.0016 11.533 10.0796C11.9722 10.2877 12.4062 10.4905 12.8296 10.6829C12.9447 10.7402 13.0283 10.787 13.1329 10.8182C13.5773 11.0366 13.5773 11.073 13.525 11.5463C13.4675 12.4773 12.746 12.9506 11.9199 13.1846C11.6951 13.2315 11.5174 13.2315 11.3187 13.2054L11.3344 13.2106Z" fill="#01CF2D"/>
<path d="M24.014 4.088H25.414L27.598 12.012H27.626L29.964 4.088H31.504L33.842 12.012H33.87L36.054 4.088H37.454L34.57 14H33.156L30.748 5.908H30.72L28.326 14H26.912L24.014 4.088ZM38.4188 3.416H39.6788V8.386H39.7068C39.8655 8.03133 40.1408 7.74667 40.5328 7.532C40.9248 7.308 41.3775 7.196 41.8908 7.196C42.2081 7.196 42.5115 7.24733 42.8008 7.35C43.0995 7.44333 43.3561 7.59267 43.5708 7.798C43.7948 8.00333 43.9721 8.26933 44.1028 8.596C44.2335 8.91333 44.2988 9.29133 44.2988 9.73V14H43.0388V10.08C43.0388 9.772 42.9968 9.51067 42.9128 9.296C42.8288 9.072 42.7168 8.89467 42.5768 8.764C42.4368 8.624 42.2735 8.526 42.0868 8.47C41.9095 8.40467 41.7228 8.372 41.5268 8.372C41.2655 8.372 41.0228 8.414 40.7988 8.498C40.5748 8.582 40.3788 8.71733 40.2108 8.904C40.0428 9.08133 39.9121 9.31 39.8188 9.59C39.7255 9.87 39.6788 10.2013 39.6788 10.584V14H38.4188V3.416ZM46.2261 8.176C46.5808 7.84933 46.9914 7.60667 47.4581 7.448C47.9248 7.28 48.3914 7.196 48.8581 7.196C49.3434 7.196 49.7588 7.25667 50.1041 7.378C50.4588 7.49933 50.7481 7.66267 50.9721 7.868C51.1961 8.07333 51.3594 8.31133 51.4621 8.582C51.5741 8.84333 51.6301 9.11867 51.6301 9.408V12.796C51.6301 13.0293 51.6348 13.244 51.6441 13.44C51.6534 13.636 51.6674 13.8227 51.6861 14H50.5661C50.5381 13.664 50.5241 13.328 50.5241 12.992H50.4961C50.2161 13.4213 49.8848 13.7247 49.5021 13.902C49.1194 14.0793 48.6761 14.168 48.1721 14.168C47.8641 14.168 47.5701 14.126 47.2901 14.042C47.0101 13.958 46.7628 13.832 46.5481 13.664C46.3428 13.496 46.1794 13.2907 46.0581 13.048C45.9368 12.796 45.8761 12.5067 45.8761 12.18C45.8761 11.7507 45.9694 11.3913 46.1561 11.102C46.3521 10.8127 46.6134 10.5793 46.9401 10.402C47.2761 10.2153 47.6634 10.0847 48.1021 10.01C48.5501 9.926 49.0261 9.884 49.5301 9.884H50.4541V9.604C50.4541 9.436 50.4214 9.268 50.3561 9.1C50.2908 8.932 50.1928 8.78267 50.0621 8.652C49.9314 8.512 49.7681 8.40467 49.5721 8.33C49.3761 8.246 49.1428 8.204 48.8721 8.204C48.6294 8.204 48.4148 8.22733 48.2281 8.274C48.0508 8.32067 47.8874 8.38133 47.7381 8.456C47.5888 8.52133 47.4534 8.60067 47.3321 8.694C47.2108 8.78733 47.0941 8.876 46.9821 8.96L46.2261 8.176ZM49.7821 10.808C49.4834 10.808 49.1754 10.8267 48.8581 10.864C48.5501 10.892 48.2654 10.9527 48.0041 11.046C47.7521 11.1393 47.5421 11.27 47.3741 11.438C47.2154 11.606 47.1361 11.8207 47.1361 12.082C47.1361 12.4647 47.2621 12.74 47.5141 12.908C47.7754 13.076 48.1254 13.16 48.5641 13.16C48.9094 13.16 49.2034 13.104 49.4461 12.992C49.6888 12.8707 49.8848 12.7167 50.0341 12.53C50.1834 12.3433 50.2908 12.138 50.3561 11.914C50.4214 11.6807 50.4541 11.452 50.4541 11.228V10.808H49.7821ZM57.0139 8.456H55.2079V11.466C55.2079 11.6527 55.2125 11.8393 55.2219 12.026C55.2312 12.2033 55.2639 12.3667 55.3199 12.516C55.3852 12.656 55.4785 12.7727 55.5999 12.866C55.7305 12.95 55.9172 12.992 56.1599 12.992C56.3092 12.992 56.4632 12.978 56.6219 12.95C56.7805 12.922 56.9252 12.8707 57.0559 12.796V13.944C56.9065 14.028 56.7105 14.084 56.4679 14.112C56.2345 14.1493 56.0525 14.168 55.9219 14.168C55.4365 14.168 55.0585 14.1027 54.7879 13.972C54.5265 13.832 54.3305 13.6547 54.1999 13.44C54.0785 13.2253 54.0039 12.9873 53.9759 12.726C53.9572 12.4553 53.9479 12.1847 53.9479 11.914V8.456H52.4919V7.364H53.9479V5.502H55.2079V7.364H57.0139V8.456ZM62.1675 9.03C62.0182 8.84333 61.8315 8.68933 61.6075 8.568C61.3928 8.43733 61.1268 8.372 60.8095 8.372C60.5108 8.372 60.2495 8.43733 60.0255 8.568C59.8108 8.68933 59.7035 8.87133 59.7035 9.114C59.7035 9.31 59.7642 9.46867 59.8855 9.59C60.0162 9.71133 60.1655 9.80933 60.3335 9.884C60.5108 9.95867 60.6975 10.0147 60.8935 10.052C61.0895 10.0893 61.2575 10.122 61.3975 10.15C61.6682 10.2153 61.9202 10.2947 62.1535 10.388C62.3962 10.4813 62.6015 10.6027 62.7695 10.752C62.9468 10.9013 63.0822 11.0833 63.1755 11.298C63.2782 11.5127 63.3295 11.774 63.3295 12.082C63.3295 12.4553 63.2502 12.7773 63.0915 13.048C62.9328 13.3093 62.7275 13.524 62.4755 13.692C62.2235 13.86 61.9342 13.9813 61.6075 14.056C61.2902 14.1307 60.9682 14.168 60.6415 14.168C60.0908 14.168 59.6055 14.084 59.1855 13.916C58.7748 13.748 58.4062 13.44 58.0795 12.992L59.0315 12.208C59.2368 12.4133 59.4655 12.5953 59.7175 12.754C59.9695 12.9127 60.2775 12.992 60.6415 12.992C60.8002 12.992 60.9588 12.978 61.1175 12.95C61.2855 12.9127 61.4302 12.8613 61.5515 12.796C61.6822 12.7213 61.7848 12.6327 61.8595 12.53C61.9435 12.418 61.9855 12.292 61.9855 12.152C61.9855 11.9653 61.9248 11.8113 61.8035 11.69C61.6915 11.5687 61.5515 11.4753 61.3835 11.41C61.2248 11.3353 61.0522 11.2793 60.8655 11.242C60.6882 11.1953 60.5295 11.158 60.3895 11.13C60.1188 11.0647 59.8622 10.99 59.6195 10.906C59.3768 10.822 59.1622 10.71 58.9755 10.57C58.7888 10.43 58.6395 10.2527 58.5275 10.038C58.4155 9.82333 58.3595 9.55733 58.3595 9.24C58.3595 8.89467 58.4295 8.596 58.5695 8.344C58.7188 8.08267 58.9102 7.868 59.1435 7.7C59.3862 7.532 59.6568 7.406 59.9555 7.322C60.2635 7.238 60.5715 7.196 60.8795 7.196C61.3275 7.196 61.7568 7.28 62.1675 7.448C62.5782 7.616 62.9048 7.896 63.1475 8.288L62.1675 9.03ZM68.2902 4.088H69.5082L73.7502 14H72.1822L71.1882 11.55H66.4702L65.4902 14H63.9222L68.2902 4.088ZM70.6982 10.374L68.8502 5.824H68.8222L66.9462 10.374H70.6982ZM74.7176 7.364H75.9776V8.316H76.0056C76.2483 7.96133 76.5796 7.686 76.9996 7.49C77.429 7.294 77.8676 7.196 78.3156 7.196C78.829 7.196 79.291 7.28467 79.7016 7.462C80.1216 7.63933 80.4763 7.88667 80.7656 8.204C81.0643 8.52133 81.293 8.89467 81.4516 9.324C81.6103 9.744 81.6896 10.1967 81.6896 10.682C81.6896 11.1767 81.6103 11.6387 81.4516 12.068C81.293 12.488 81.0643 12.8567 80.7656 13.174C80.4763 13.482 80.1216 13.7247 79.7016 13.902C79.291 14.0793 78.829 14.168 78.3156 14.168C77.8396 14.168 77.3916 14.07 76.9716 13.874C76.5516 13.6687 76.2296 13.3933 76.0056 13.048H75.9776V17.948H74.7176V7.364ZM78.1616 8.372C77.8256 8.372 77.5223 8.43267 77.2516 8.554C76.981 8.666 76.7523 8.82467 76.5656 9.03C76.379 9.226 76.2343 9.46867 76.1316 9.758C76.029 10.038 75.9776 10.346 75.9776 10.682C75.9776 11.018 76.029 11.3307 76.1316 11.62C76.2343 11.9 76.379 12.1427 76.5656 12.348C76.7523 12.544 76.981 12.7027 77.2516 12.824C77.5223 12.936 77.8256 12.992 78.1616 12.992C78.4976 12.992 78.801 12.936 79.0716 12.824C79.3423 12.7027 79.571 12.544 79.7576 12.348C79.9443 12.1427 80.089 11.9 80.1916 11.62C80.2943 11.3307 80.3456 11.018 80.3456 10.682C80.3456 10.346 80.2943 10.038 80.1916 9.758C80.089 9.46867 79.9443 9.226 79.7576 9.03C79.571 8.82467 79.3423 8.666 79.0716 8.554C78.801 8.43267 78.4976 8.372 78.1616 8.372ZM83.2762 7.364H84.5362V8.316H84.5642C84.8069 7.96133 85.1382 7.686 85.5582 7.49C85.9876 7.294 86.4262 7.196 86.8742 7.196C87.3876 7.196 87.8496 7.28467 88.2602 7.462C88.6802 7.63933 89.0349 7.88667 89.3242 8.204C89.6229 8.52133 89.8516 8.89467 90.0102 9.324C90.1689 9.744 90.2482 10.1967 90.2482 10.682C90.2482 11.1767 90.1689 11.6387 90.0102 12.068C89.8516 12.488 89.6229 12.8567 89.3242 13.174C89.0349 13.482 88.6802 13.7247 88.2602 13.902C87.8496 14.0793 87.3876 14.168 86.8742 14.168C86.3982 14.168 85.9502 14.07 85.5302 13.874C85.1102 13.6687 84.7882 13.3933 84.5642 13.048H84.5362V17.948H83.2762V7.364ZM86.7202 8.372C86.3842 8.372 86.0809 8.43267 85.8102 8.554C85.5396 8.666 85.3109 8.82467 85.1242 9.03C84.9376 9.226 84.7929 9.46867 84.6902 9.758C84.5876 10.038 84.5362 10.346 84.5362 10.682C84.5362 11.018 84.5876 11.3307 84.6902 11.62C84.7929 11.9 84.9376 12.1427 85.1242 12.348C85.3109 12.544 85.5396 12.7027 85.8102 12.824C86.0809 12.936 86.3842 12.992 86.7202 12.992C87.0562 12.992 87.3596 12.936 87.6302 12.824C87.9009 12.7027 88.1296 12.544 88.3162 12.348C88.5029 12.1427 88.6476 11.9 88.7502 11.62C88.8529 11.3307 88.9042 11.018 88.9042 10.682C88.9042 10.346 88.8529 10.038 88.7502 9.758C88.6476 9.46867 88.5029 9.226 88.3162 9.03C88.1296 8.82467 87.9009 8.666 87.6302 8.554C87.3596 8.43267 87.0562 8.372 86.7202 8.372Z" fill="#01CF2D"/>
</svg>
