<svg width="22" height="22" viewBox="0 0 22 22" fill="none" xmlns="http://www.w3.org/2000/svg">
<path d="M14.6817 13.1808C14.6817 12.8872 14.5559 12.7263 14.3661 12.6115C14.1729 12.5008 13.9399 12.4857 13.6209 12.4857H12.2067V15.0707H12.8261V14.1295H13.4889C13.7068 14.1295 13.8436 14.1515 13.9254 14.2443C14.0361 14.3626 14.0224 14.5915 14.0224 14.7496V15.0686H14.6239V14.5599C14.6239 14.3309 14.6102 14.2161 14.5277 14.0869C14.4467 13.9899 14.3417 13.9159 14.2231 13.8724L14.2403 13.8648C14.4087 13.8009 14.681 13.5926 14.681 13.1808H14.6817ZM13.8828 13.5527L13.8574 13.5492C13.7749 13.5994 13.6786 13.6036 13.5528 13.6036H12.8124V13.0267H13.5679C13.6786 13.0267 13.7859 13.0268 13.8725 13.0735C13.9156 13.0945 13.9515 13.1279 13.9757 13.1694C13.9998 13.2109 14.011 13.2587 14.0079 13.3066C14.0079 13.4172 13.9646 13.5025 13.8862 13.5534L13.8828 13.5527ZM18.6059 14.5166H17.4172V15.0686H18.6135C19.2322 15.0686 19.576 14.8136 19.576 14.2594C19.576 14.0009 19.5155 13.8469 19.4048 13.7259C19.2652 13.6042 19.0425 13.5465 18.7359 13.5362L18.3914 13.5217C18.2952 13.5217 18.2271 13.5218 18.1556 13.4936C18.1148 13.4808 18.0793 13.455 18.0546 13.4201C18.0299 13.3852 18.0173 13.3431 18.0188 13.3004C18.0188 13.2179 18.0332 13.1498 18.1013 13.1106C18.1778 13.068 18.2648 13.048 18.3522 13.0529H19.4763V12.5022H18.2409C17.5967 12.5022 17.3636 12.903 17.3636 13.2722C17.3636 14.0992 18.0731 14.0559 18.6534 14.0704C18.7462 14.0704 18.8177 14.0841 18.8569 14.1233C18.9002 14.1529 18.9318 14.2203 18.9318 14.2883C18.9318 14.3598 18.8995 14.4279 18.8603 14.4533C18.8074 14.5028 18.7249 14.5172 18.6066 14.5172L18.6059 14.5166ZM0.000109375 0V9.2565L0.741922 7.53431H2.34586L2.5528 7.96056V7.53431H4.42555L4.83736 8.46863L5.23886 7.54188H11.2009C11.4697 7.54188 11.7124 7.59481 11.8918 7.75981V7.54806H13.5315V7.75981C13.8099 7.60238 14.1578 7.54806 14.5552 7.54806H16.9429L17.1656 7.97431V7.54806H18.9235L19.1552 7.97431V7.54462H20.8602V11.1657H19.1305L18.8012 10.6136V11.1506H16.6417L16.4087 10.5738H15.8717L15.6249 11.1354H14.5146C14.0739 11.1354 13.7446 11.0426 13.5225 10.9175V11.1354H10.8722V10.3269C10.8722 10.2162 10.8475 10.2163 10.7794 10.2011H10.6825V11.1499H5.55855V10.7133L5.36536 11.1499H4.29836L4.11205 10.7133V11.1389H2.04611L1.81305 10.5662H1.27955L1.04786 11.1389H-0.00195312V21.9993H21.8007V15.4825C21.5539 15.6069 21.239 15.6468 20.909 15.6468H19.3305V15.4137C19.1374 15.5643 18.808 15.6468 18.4925 15.6468H13.4827V14.8239C13.4827 14.7132 13.4641 14.7132 13.372 14.7132H13.3039V15.6509H11.6532V14.674C11.381 14.7998 11.062 14.8094 10.8007 14.7998H10.6075V15.6379H8.61036L8.11261 15.0714L7.58942 15.6234H4.34511V12.0209H7.65405L8.1298 12.573L8.63855 12.0209H10.8475C11.1053 12.0209 11.524 12.0505 11.7103 12.2292V12.0072H13.7047C13.891 12.0072 14.296 12.0505 14.5352 12.2141V11.9962H17.5252V12.2141C17.6757 12.0636 17.9947 11.9962 18.2629 11.9962H19.9954V12.2141C20.1748 12.0787 20.4216 11.9962 20.7654 11.9962H21.8434V0.0006875L0.000109375 0ZM19.3931 13.7067C19.3965 13.7143 19.3965 13.7211 19.4007 13.7253C19.4117 13.7314 19.4254 13.7314 19.433 13.7424L19.3938 13.7101L19.3931 13.7067ZM21.8427 11.9921H21.9039V12.5008H21.8427V11.9921ZM21.8743 13.7782V13.7706C21.8495 13.7493 21.8351 13.7287 21.8062 13.7067C21.6708 13.5671 21.448 13.5094 21.1077 13.5025L20.775 13.4922C20.6677 13.4922 20.5997 13.4846 20.5282 13.464C20.4874 13.4511 20.452 13.4253 20.4273 13.3904C20.4026 13.3555 20.39 13.3135 20.3914 13.2708C20.3914 13.1883 20.4195 13.123 20.4739 13.0838C20.5419 13.0446 20.6093 13.0378 20.7207 13.0378H21.842V12.5008H20.6677C20.0332 12.5008 19.787 12.9016 19.787 13.2708C19.787 14.0938 20.5027 14.0546 21.0795 14.069C21.1765 14.069 21.2445 14.0793 21.2837 14.1219C21.327 14.1515 21.3552 14.2189 21.3552 14.2869C21.3547 14.3189 21.347 14.3503 21.3328 14.3788C21.3185 14.4074 21.298 14.4324 21.2727 14.4519C21.2294 14.5014 21.1469 14.5159 21.0259 14.5159H19.8434V15.0707H21.0225C21.4082 15.0707 21.6955 14.9634 21.8495 14.7414H21.8743C21.9568 14.6156 22.0001 14.4657 22.0001 14.2622C22.0001 14.0394 21.9568 13.904 21.8743 13.7782ZM17.048 13.0233V12.4898H14.9993V15.0858H17.048V14.5489H15.6077V14.0298H17.0123V13.4929H15.6077V13.0274L17.048 13.0233ZM12.3861 8.05269H13.0124V10.6349H12.3861V8.05269ZM12.0314 8.74775L12.0238 8.75531C12.0238 8.4645 11.9055 8.29675 11.7124 8.18262C11.515 8.06781 11.2834 8.05681 10.9719 8.05681H9.56117V10.6418H10.1799V9.69306H10.8392C11.0572 9.69306 11.1974 9.72125 11.2868 9.80375C11.3989 9.92956 11.3837 10.1509 11.3837 10.3049V10.6315H12.0032V10.1262C12.0032 9.89725 11.9887 9.78244 11.9021 9.64975C11.8215 9.55421 11.7182 9.48045 11.6017 9.43525C11.7341 9.37671 11.8461 9.28006 11.9233 9.15761C12.0006 9.03516 12.0397 8.89248 12.0355 8.74775H12.0314ZM11.2476 9.11006H11.2366C11.1507 9.15956 11.0572 9.163 10.932 9.163H10.1765V8.59031H10.932C11.0427 8.59031 11.15 8.59375 11.2325 8.63706C11.315 8.67281 11.372 8.75531 11.372 8.866C11.372 8.97669 11.3287 9.06675 11.2476 9.11006ZM14.595 8.59031H15.1719V8.04237H14.5806C14.1578 8.04237 13.8464 8.13931 13.6463 8.34419C13.385 8.61919 13.3163 8.97738 13.3163 9.36444C13.3163 9.834 13.427 10.1269 13.6463 10.3455C13.8574 10.5634 14.2369 10.6322 14.5339 10.6322H15.2509L15.484 10.0554H16.7579L16.9979 10.6322H18.2436V8.69825L19.4117 10.6322H20.2855V8.05338H19.655V9.85462L18.5743 8.05681H17.6393V10.4486L16.6005 8.01419H15.6799L14.8171 10.0519H14.5414C14.3812 10.0519 14.2087 10.0237 14.1124 9.92612C13.9976 9.79069 13.944 9.59681 13.944 9.32113C13.944 9.05987 14.0155 8.85156 14.1193 8.74431C14.241 8.6185 14.3702 8.59031 14.5923 8.59031H14.595ZM16.124 8.49406L16.5469 9.51775V9.52119H15.6944L16.124 8.49406ZM2.18086 10.0547L2.41392 10.6315H3.66723V8.61231L4.55892 10.6315H5.09242L5.98342 8.61231L5.99786 10.6315H6.63105V8.05681H5.60736L4.86967 9.80031L4.06461 8.05338H3.06567V10.4954L2.01998 8.05338H1.10698L0.0117969 10.6322H0.669734L0.906234 10.0595H2.18155L2.18086 10.0547ZM1.55042 8.49406L1.97323 9.51775L1.9698 9.52119H1.13173L1.55042 8.49406ZM10.8674 12.4857H8.90598L8.12498 13.3306L7.36942 12.4857H4.90267V15.0707H7.33367L8.11742 14.2154L8.87367 15.0679H10.0651V14.2079H10.8351C11.383 14.2079 11.9055 14.0573 11.9055 13.3416L11.9021 13.3382C11.9021 12.6225 11.3549 12.4857 10.8674 12.4857ZM7.03255 14.531H5.51798V14.0188H6.86342V13.4929H5.51798V13.0274H7.0573L7.73105 13.7789L7.02911 14.5344L7.03255 14.531ZM9.45255 14.8356L8.50723 13.7823L9.45255 12.7696V14.8356ZM10.8743 13.6819H10.0651V13.0226H10.8743C11.0964 13.0226 11.2614 13.1127 11.2614 13.3382C11.2614 13.5637 11.1259 13.6819 10.8743 13.6819ZM9.13836 8.59031V8.05338H7.08617V10.6356H9.13836V10.1021H7.69805V9.58581H9.09848V9.05575H7.69805V8.59031H9.13836Z" fill="#016FD0"/>
</svg>
