<?xml version="1.0" standalone="no"?>
<!DOCTYPE svg PUBLIC "-//W3C//DTD SVG 20010904//EN"
 "http://www.w3.org/TR/2001/REC-SVG-20010904/DTD/svg10.dtd">
<svg version="1.0" xmlns="http://www.w3.org/2000/svg"
 width="1600.000000pt" height="574.000000pt" viewBox="0 0 1600.000000 574.000000"
 preserveAspectRatio="xMidYMid meet">

<g transform="translate(0.000000,574.000000) scale(0.100000,-0.100000)"
fill="#000000" stroke="none">
<path d="M5120 5715 c-192 -30 -417 -102 -550 -177 -30 -17 -71 -40 -90 -51
-134 -75 -334 -241 -455 -377 -330 -374 -553 -936 -616 -1555 -19 -181 -16
-559 5 -750 26 -237 88 -465 175 -650 200 -422 528 -682 977 -772 138 -27 522
-25 659 5 353 76 617 224 876 489 187 190 340 436 460 735 23 57 46 108 52
113 7 7 8 4 4 -8 -4 -10 -16 -73 -27 -140 -11 -67 -34 -189 -50 -272 -16 -82
-36 -193 -45 -245 -9 -52 -36 -198 -60 -325 -24 -126 -46 -249 -50 -272 l-7
-43 485 0 c454 0 486 1 491 18 3 9 10 53 16 97 7 44 25 145 41 225 16 80 38
199 50 265 11 66 33 188 49 270 16 83 40 215 54 295 48 274 94 508 100 519 11
18 1685 15 1692 -2 3 -8 -9 -83 -25 -168 -17 -85 -44 -230 -60 -324 -30 -169
-41 -234 -126 -690 -51 -277 -85 -470 -85 -485 0 -7 458 -10 1489 -10 l1489 0
36 192 c20 106 58 310 84 453 l49 260 -1009 3 c-834 2 -1010 4 -1014 16 -3 7
9 76 25 152 17 76 40 189 51 249 11 61 35 180 53 265 l33 155 905 3 905 2 28
153 c15 83 45 244 66 357 22 113 44 237 50 275 6 39 13 82 16 98 l6 27 -901 0
c-724 0 -901 3 -901 13 0 19 46 278 74 412 14 66 28 143 32 170 3 28 11 56 16
63 8 9 208 12 939 12 875 0 928 1 933 17 3 10 21 108 41 218 20 110 54 295 75
410 22 116 41 221 42 235 l3 25 -880 2 c-484 2 -1726 -1 -2760 -5 l-1880 -7
-22 -125 c-11 -69 -37 -213 -58 -320 -20 -107 -54 -294 -76 -415 -23 -121 -58
-312 -79 -425 -22 -113 -46 -248 -55 -300 -9 -52 -31 -176 -50 -275 -56 -297
-106 -562 -129 -695 -19 -107 -25 -125 -42 -128 -10 -1 -98 11 -194 28 -96 17
-294 51 -439 75 -144 25 -273 48 -286 51 -21 5 -25 0 -40 -53 -62 -220 -118
-354 -192 -458 -254 -355 -669 -430 -916 -166 -101 108 -159 224 -194 391 -61
291 -32 684 77 1045 141 462 340 725 637 839 298 116 576 38 699 -196 38 -73
87 -249 99 -356 4 -34 10 -64 13 -66 4 -2 102 7 217 20 116 12 320 35 455 50
135 15 249 30 253 34 9 8 -17 240 -39 343 -24 114 -94 317 -146 422 -209 418
-559 668 -1033 740 -122 18 -377 18 -495 0z m460 -70 c148 -18 237 -41 362
-93 298 -125 521 -347 664 -663 72 -157 139 -414 146 -559 l3 -55 -35 -3 c-19
-1 -188 -20 -375 -42 -187 -22 -348 -40 -356 -40 -12 0 -19 18 -28 73 -20 122
-79 283 -134 364 -102 154 -246 223 -465 223 -180 0 -328 -46 -483 -150 -239
-161 -442 -525 -538 -967 -84 -389 -91 -678 -20 -952 73 -281 242 -479 468
-545 70 -20 218 -21 295 -1 233 61 427 228 551 475 40 80 115 287 115 318 0
19 57 13 334 -37 116 -22 275 -49 354 -62 100 -16 142 -26 142 -36 0 -32 -107
-301 -174 -438 -222 -450 -538 -758 -946 -918 -78 -31 -243 -71 -353 -86 -101
-14 -343 -14 -444 0 -492 68 -844 346 -1039 821 -48 116 -104 331 -129 498
-22 141 -31 546 -16 721 50 579 249 1129 540 1494 209 262 472 456 774 571
136 52 242 75 442 98 79 8 233 5 345 -9z m4186 -78 c-3 -13 -12 -68 -20 -123
-9 -54 -27 -155 -41 -224 -14 -69 -35 -181 -46 -250 -11 -68 -23 -128 -25
-132 -3 -4 -394 -8 -869 -8 l-864 0 -6 -37 c-4 -21 -26 -141 -50 -268 -24
-126 -55 -295 -70 -375 -14 -80 -28 -153 -31 -162 -5 -17 40 -18 840 -18 502
0 847 -4 850 -9 4 -5 -9 -90 -28 -188 -19 -98 -51 -267 -72 -375 l-38 -198
-846 0 -847 0 -41 -217 c-69 -366 -113 -601 -138 -748 -13 -77 -38 -207 -54
-290 -16 -82 -39 -208 -51 -280 -12 -71 -24 -136 -28 -143 -10 -17 -803 -20
-809 -3 -4 12 38 256 90 521 17 85 40 215 53 290 23 133 62 348 131 710 19
102 46 246 59 320 23 131 52 292 136 740 22 118 42 226 44 240 4 24 31 173
144 785 27 149 57 314 67 368 l18 97 1274 0 1274 0 -6 -23z m2821 16 c-3 -5
-17 -75 -31 -158 -15 -82 -45 -250 -68 -372 l-42 -223 -934 -2 -935 -3 -29
-145 c-16 -80 -44 -230 -63 -335 -19 -104 -40 -220 -48 -257 l-15 -68 904 0
c756 0 904 -2 904 -14 0 -7 -11 -67 -24 -132 -13 -66 -36 -189 -51 -274 -14
-85 -34 -195 -43 -245 l-17 -90 -905 -5 -905 -5 -32 -150 c-57 -274 -140 -684
-159 -797 l-7 -38 1012 0 c556 0 1011 -3 1011 -7 0 -17 -64 -381 -98 -561
l-37 -192 -1409 0 c-775 0 -1411 2 -1414 4 -4 5 28 186 119 666 21 113 45 246
53 295 8 50 33 189 55 310 23 121 61 330 86 465 25 135 65 353 89 485 24 132
67 368 96 525 28 157 67 366 85 465 19 99 41 223 50 275 9 52 33 187 55 300
21 113 41 224 45 248 l7 42 1349 0 c743 0 1348 -3 1346 -7z m-2932 -870 c-3
-16 -25 -136 -49 -268 -25 -132 -50 -271 -56 -310 -6 -38 -13 -78 -16 -87 -5
-17 -54 -18 -856 -18 l-850 0 7 43 c4 23 22 119 40 213 19 94 43 224 55 290
11 65 22 129 25 142 l5 22 850 0 850 0 -5 -27z"/>
<path d="M5208 5600 c-336 -35 -615 -156 -904 -391 -74 -61 -185 -179 -270
-289 -197 -254 -365 -644 -442 -1025 -60 -294 -66 -363 -66 -695 0 -326 6
-387 60 -628 65 -294 183 -527 359 -711 101 -106 194 -175 321 -239 346 -173
864 -176 1247 -6 185 82 325 180 487 343 199 199 330 415 465 761 29 74 50
138 46 141 -3 4 -69 17 -146 29 -77 12 -221 37 -320 55 -99 18 -195 35 -214
37 l-33 3 -42 -121 c-107 -306 -285 -522 -521 -629 -106 -49 -181 -65 -300
-65 -180 0 -306 53 -434 180 -266 266 -344 717 -227 1315 95 482 295 869 543
1053 81 59 225 133 307 157 117 34 343 35 456 1 211 -63 367 -270 422 -559 11
-56 16 -67 33 -67 11 -1 165 16 343 37 l322 37 0 24 c0 48 -50 272 -84 374
-110 335 -327 602 -606 743 -105 53 -232 96 -343 115 -137 23 -341 32 -459 20z"/>
<path d="M7265 5528 c-2 -7 -14 -69 -25 -138 -11 -69 -38 -217 -60 -330 -21
-113 -60 -320 -85 -460 -26 -140 -64 -347 -85 -460 -22 -113 -46 -248 -55
-300 -9 -52 -33 -187 -55 -300 -21 -113 -59 -320 -85 -460 -26 -140 -64 -347
-85 -460 -22 -113 -46 -248 -55 -300 -9 -52 -31 -176 -50 -275 -57 -298 -87
-476 -82 -481 5 -6 699 -5 704 0 2 2 14 66 28 142 13 77 39 222 58 324 20 102
47 248 61 325 39 220 73 402 116 635 22 118 41 224 42 235 3 20 13 20 853 25
l849 5 32 160 c17 88 43 228 58 310 15 83 29 160 33 173 l5 23 -847 -1 c-466
-1 -849 1 -852 3 -2 3 12 87 31 188 58 301 125 661 134 714 l7 50 868 3 867 2
5 23 c2 12 11 60 19 107 8 47 30 168 49 270 19 102 37 202 40 223 l6 37 -1220
0 c-967 0 -1221 -3 -1224 -12z"/>
<path d="M9930 5516 c0 -13 -16 -106 -36 -207 -20 -101 -46 -245 -59 -319 -12
-74 -39 -223 -59 -330 -20 -107 -57 -307 -82 -445 -25 -137 -65 -358 -90 -490
-44 -241 -117 -643 -209 -1150 -14 -77 -43 -234 -65 -350 -22 -115 -55 -298
-74 -405 -19 -107 -38 -210 -42 -227 l-6 -33 1361 0 c1081 0 1362 3 1365 13
10 32 116 616 116 640 0 4 -457 7 -1016 7 -962 0 -1015 1 -1010 18 6 19 104
504 141 697 30 158 74 355 81 366 3 5 385 9 905 9 494 0 899 2 899 4 0 2 9 46
19 97 11 52 33 175 50 274 17 99 35 198 41 220 5 22 10 46 10 53 0 9 -188 12
-906 12 -857 0 -905 1 -900 18 2 9 21 103 40 207 20 105 57 301 83 437 l47
248 935 2 934 3 24 120 c26 136 93 511 93 525 0 6 -475 10 -1295 10 l-1295 0
0 -24z"/>
<path d="M3641 916 c-28 -52 -51 -97 -51 -100 0 -3 17 -6 38 -6 45 0 60 15
191 183 13 16 9 17 -57 17 l-70 0 -51 -94z"/>
<path d="M308 990 c-133 -40 -234 -169 -280 -358 -28 -115 -30 -309 -4 -396
24 -80 76 -159 127 -193 35 -23 56 -29 119 -31 68 -4 84 -1 135 24 74 37 146
117 180 201 38 95 36 99 -40 113 -36 7 -67 11 -69 9 -1 -2 -11 -26 -21 -54
-35 -96 -132 -160 -199 -131 -65 28 -103 96 -113 200 -12 132 47 336 118 407
95 95 227 60 254 -69 7 -33 7 -33 53 -27 95 12 94 11 86 53 -7 44 -45 131 -74
172 -31 44 -132 90 -194 89 -28 0 -63 -4 -78 -9z"/>
<path d="M2363 978 c-4 -7 -13 -46 -19 -85 l-10 -73 66 0 67 0 11 64 c20 108
21 106 -47 106 -37 0 -63 -5 -68 -12z"/>
<path d="M3206 961 c-3 -14 -8 -44 -12 -66 -3 -22 -8 -48 -11 -58 -4 -16 2
-18 63 -15 l68 3 12 65 c20 102 23 96 -50 97 -62 1 -65 0 -70 -26z"/>
<path d="M5016 982 c-5 -8 -31 -167 -82 -502 -14 -91 -36 -229 -48 -307 l-22
-143 67 0 c50 0 68 4 73 15 3 8 17 95 32 193 15 97 32 183 37 190 6 7 17 12
26 11 9 -1 84 -1 167 0 l152 1 5 33 c3 17 9 51 12 75 l7 42 -169 0 c-94 0
-172 2 -175 5 -4 5 27 197 37 223 3 9 48 12 179 12 198 0 179 -11 192 102 l7
57 -246 1 c-135 0 -248 -3 -251 -8z"/>
<path d="M6547 982 c-3 -4 -18 -85 -33 -180 -15 -94 -30 -172 -34 -172 -3 0
-14 14 -24 31 -56 95 -210 91 -282 -8 -116 -157 -140 -458 -48 -581 64 -84
169 -83 263 2 l23 21 -7 -33 -7 -32 64 0 65 0 46 293 c76 471 103 657 98 662
-7 8 -119 6 -124 -3z m-167 -392 c11 -6 31 -30 45 -54 20 -35 25 -56 25 -113
0 -197 -120 -347 -205 -256 -37 41 -48 85 -43 177 11 172 96 290 178 246z"/>
<path d="M8354 982 c-10 -7 -63 -310 -104 -597 -11 -77 -28 -188 -39 -247
l-18 -108 67 0 67 0 31 188 c82 499 122 748 122 760 0 13 -107 17 -126 4z"/>
<path d="M9260 988 c0 -2 -14 -81 -30 -176 -17 -96 -30 -177 -30 -180 0 -4
-14 10 -31 31 -40 48 -77 67 -134 67 -57 0 -91 -17 -137 -68 -75 -83 -112
-204 -112 -367 1 -186 49 -274 157 -283 59 -5 101 11 151 57 l28 26 -4 -33 -5
-32 63 0 c60 0 63 1 68 27 11 53 65 389 81 503 9 63 27 181 41 261 13 81 24
152 24 158 0 7 -24 11 -65 11 -36 0 -65 -1 -65 -2z m-142 -423 c37 -42 46 -82
40 -185 -10 -177 -127 -299 -201 -210 -38 44 -50 94 -44 169 18 208 121 322
205 226z"/>
<path d="M10386 982 c-6 -10 -59 -326 -80 -477 -16 -116 -62 -401 -72 -448
l-6 -27 285 0 285 0 9 73 8 72 -207 3 c-115 1 -208 5 -208 7 0 6 26 178 35
233 l6 32 188 0 189 0 6 58 c4 31 9 65 12 75 5 16 -8 17 -182 17 l-187 0 7 53
c4 28 12 80 18 115 l11 62 192 0 192 0 10 73 c6 39 8 75 6 80 -6 10 -511 9
-517 -1z"/>
<path d="M11055 977 c-6 -18 -72 -426 -105 -653 -17 -110 -34 -222 -39 -247
l-8 -47 67 0 67 0 28 173 c15 94 47 291 70 437 24 146 45 283 47 305 l3 40
-63 2 c-40 1 -65 -3 -67 -10z"/>
<path d="M13196 958 c-3 -18 -8 -57 -12 -85 l-7 -53 66 0 c36 0 68 3 70 8 3 4
8 42 12 85 l7 77 -65 0 -65 0 -6 -32z"/>
<path d="M14054 982 c-7 -4 -15 -42 -19 -84 l-7 -78 65 0 65 0 6 33 c3 17 8
56 12 85 l7 52 -59 0 c-33 0 -64 -4 -70 -8z"/>
<path d="M14676 978 c-2 -7 -14 -83 -26 -168 -12 -85 -23 -161 -26 -168 -2 -8
-15 0 -35 23 -43 48 -78 65 -137 65 -68 0 -125 -40 -175 -122 -57 -94 -71
-153 -71 -298 -1 -135 9 -182 51 -238 63 -84 167 -83 262 2 l24 21 -6 -32 -6
-33 63 0 64 0 11 62 c6 35 23 140 37 233 14 94 43 278 64 409 22 132 37 243
34 248 -9 14 -124 10 -128 -4z m-151 -400 c39 -31 55 -77 55 -161 0 -121 -42
-232 -100 -262 -41 -21 -73 -19 -97 8 -38 41 -47 70 -46 152 0 110 26 197 73
246 43 45 74 50 115 17z"/>
<path d="M15866 982 c-3 -5 -17 -80 -31 -168 -33 -201 -31 -195 -57 -157 -82
115 -232 93 -315 -48 -52 -87 -76 -200 -70 -328 6 -134 19 -176 72 -228 39
-40 46 -43 96 -43 54 0 70 7 138 58 l31 23 -6 -30 -6 -31 63 0 64 0 44 278
c24 152 56 359 72 460 16 100 29 191 29 202 0 18 -7 20 -59 20 -33 0 -62 -4
-65 -8z m-140 -417 c38 -40 50 -94 41 -184 -15 -161 -98 -267 -182 -234 -29
10 -65 101 -65 162 0 60 24 169 47 215 42 82 105 98 159 41z"/>
<path d="M12535 893 c-39 -30 -72 -57 -75 -60 -2 -2 -7 -28 -10 -56 -5 -51 -5
-52 -41 -55 -36 -3 -37 -5 -44 -50 -3 -26 -8 -55 -11 -64 -4 -15 1 -18 30 -18
20 0 36 -4 36 -10 0 -5 -14 -92 -30 -192 -17 -101 -31 -204 -31 -230 -3 -99
45 -148 145 -148 64 0 68 5 79 94 7 48 7 48 -18 42 -28 -7 -60 6 -68 28 -3 8
9 104 28 213 19 109 35 199 35 200 0 2 18 3 39 3 22 0 42 3 44 8 3 4 8 33 12
65 l7 57 -41 0 c-22 0 -41 5 -41 10 0 6 7 56 15 112 9 55 14 102 12 104 -1 2
-34 -22 -72 -53z"/>
<path d="M882 704 c-115 -57 -172 -184 -172 -385 0 -112 16 -173 59 -228 84
-106 252 -110 354 -8 45 46 94 145 108 222 15 78 6 229 -15 280 -54 129 -206
183 -334 119z m183 -137 c39 -39 51 -108 35 -201 -20 -122 -56 -187 -117 -213
-31 -12 -38 -12 -71 4 -45 22 -64 60 -70 133 -16 212 119 381 223 277z"/>
<path d="M1615 711 c-16 -10 -41 -30 -54 -45 -33 -36 -40 -33 -34 14 l6 40
-61 0 c-49 0 -62 -3 -66 -17 -3 -10 -17 -99 -31 -197 -15 -99 -37 -241 -51
-315 -13 -75 -24 -142 -24 -148 0 -9 20 -13 64 -13 l65 0 10 53 c6 28 24 131
41 227 35 201 40 217 83 258 44 41 69 47 98 23 20 -16 24 -27 22 -68 -2 -49
-57 -420 -69 -467 l-6 -27 68 3 69 3 31 185 c40 242 50 281 85 328 39 53 80
70 114 48 32 -21 32 -44 0 -228 -14 -79 -31 -187 -38 -241 l-13 -97 67 0 68 0
5 33 c3 17 22 142 42 277 41 276 39 308 -18 362 -25 23 -39 28 -83 28 -58 0
-109 -27 -157 -83 -25 -30 -27 -31 -33 -12 -15 45 -31 67 -57 81 -38 20 -107
18 -143 -5z"/>
<path d="M2680 714 c-121 -52 -165 -218 -88 -327 12 -16 58 -47 111 -73 51
-26 100 -53 110 -62 60 -53 -40 -139 -129 -110 -35 12 -59 40 -80 96 -1 2 -99
-16 -121 -23 -10 -3 -9 -14 2 -46 23 -64 59 -105 120 -134 48 -24 64 -27 133
-24 93 5 144 32 189 102 25 37 28 51 28 128 0 118 -19 142 -164 212 -99 49
-106 54 -109 84 -5 47 26 73 84 73 36 0 51 -6 73 -28 15 -15 30 -33 32 -41 7
-20 129 6 129 28 -1 25 -35 94 -56 113 -54 47 -190 64 -264 32z"/>
<path d="M3545 708 c-95 -48 -151 -138 -176 -283 -49 -281 96 -468 313 -403
196 58 290 458 148 630 -63 76 -196 103 -285 56z m176 -139 c35 -37 43 -79 36
-178 -13 -189 -128 -301 -219 -214 -61 58 -59 211 3 334 22 44 39 64 62 74 52
23 86 19 118 -16z"/>
<path d="M4295 713 c-16 -8 -47 -32 -69 -52 l-39 -36 7 48 6 47 -65 0 c-36 0
-65 -3 -65 -6 0 -3 -20 -128 -45 -277 -25 -150 -48 -290 -51 -312 -3 -22 -7
-52 -10 -68 l-6 -27 71 0 c39 0 71 2 71 5 0 29 44 308 58 366 31 128 87 202
153 202 38 0 58 -27 59 -78 0 -49 -41 -343 -66 -467 l-6 -28 66 0 c76 0 67
-14 95 155 65 389 62 481 -19 529 -35 20 -106 20 -145 -1z"/>
<path d="M5694 716 c-120 -52 -202 -233 -191 -419 9 -171 100 -287 223 -287
63 0 105 15 153 56 36 30 91 109 91 130 0 6 -21 15 -46 19 -26 3 -52 9 -59 11
-7 3 -22 -11 -34 -31 -12 -22 -36 -42 -58 -51 -33 -14 -40 -14 -68 -1 -37 18
-66 71 -73 134 l-5 43 180 0 180 0 6 63 c6 67 -5 175 -23 223 -13 35 -65 90
-102 110 -34 18 -133 18 -174 0z m143 -142 c25 -27 46 -93 41 -127 -3 -21 -9
-22 -115 -25 l-113 -3 0 26 c0 55 50 136 95 156 30 12 67 2 92 -27z"/>
<path d="M6882 715 c-57 -25 -99 -64 -130 -123 -92 -173 -87 -397 11 -508 110
-126 294 -85 381 84 10 19 16 35 14 36 -2 1 -30 7 -63 14 -43 9 -61 9 -64 1
-8 -24 -63 -77 -85 -83 -61 -15 -114 41 -123 129 l-6 55 182 0 181 0 0 109 c0
151 -33 233 -114 282 -38 23 -135 25 -184 4z m125 -125 c34 -21 53 -67 53
-132 l0 -38 -109 0 c-61 0 -112 4 -115 9 -8 13 22 103 42 126 24 29 64 55 82
55 8 0 29 -9 47 -20z"/>
<path d="M7537 707 c-15 -12 -41 -42 -58 -67 l-31 -45 7 63 6 62 -61 0 c-40 0
-62 -4 -64 -12 -3 -12 -87 -533 -102 -635 l-7 -43 67 0 c60 0 66 2 70 23 3 12
17 90 31 172 35 202 56 265 106 309 38 35 51 40 95 37 19 -2 26 9 47 73 28 83
27 86 -41 86 -23 0 -47 -8 -65 -23z"/>
<path d="M7825 713 c-44 -23 -84 -63 -106 -105 -29 -56 -25 -64 27 -72 72 -9
78 -8 92 23 14 33 66 56 98 45 41 -15 54 -36 54 -86 0 -57 1 -57 -142 -82 -60
-11 -110 -26 -130 -40 -109 -73 -112 -291 -5 -363 36 -25 94 -30 130 -12 12 6
38 27 58 46 l36 35 7 -36 7 -36 63 0 62 0 -4 58 c-2 36 7 128 23 232 42 269
32 334 -61 387 -48 28 -162 31 -209 6z m139 -372 c8 -12 -21 -117 -40 -147
-20 -30 -63 -54 -97 -54 -51 0 -85 86 -53 134 20 31 46 46 111 61 64 16 73 17
79 6z"/>
<path d="M9585 711 c-116 -54 -192 -224 -183 -407 5 -97 36 -184 81 -232 74
-79 206 -83 293 -8 34 29 102 132 92 140 -1 2 -28 8 -58 14 -52 10 -56 10 -70
-11 -25 -36 -59 -65 -87 -72 -53 -13 -123 68 -123 141 l0 44 179 0 178 0 6 63
c7 67 -4 174 -23 222 -14 36 -65 91 -102 111 -38 20 -135 17 -183 -5z m143
-124 c24 -19 42 -72 42 -122 l0 -45 -109 0 c-61 0 -112 3 -115 8 -2 4 4 32 14
62 25 73 79 125 123 116 16 -3 37 -12 45 -19z"/>
<path d="M11377 705 c-55 -30 -107 -95 -138 -175 -33 -84 -38 -256 -11 -347
34 -111 109 -173 209 -173 63 1 119 27 165 78 29 32 68 99 68 117 0 1 -17 5
-37 9 -21 3 -47 9 -59 12 -17 4 -26 -2 -43 -31 -25 -43 -79 -69 -113 -56 -48
19 -88 90 -88 159 l0 22 180 0 180 0 6 26 c4 14 4 67 2 118 -6 114 -36 188
-93 232 -33 25 -49 29 -109 31 -60 3 -78 -1 -119 -22z m161 -127 c24 -24 42
-75 42 -125 l0 -33 -116 0 -116 0 7 38 c10 56 38 104 76 130 38 26 71 23 107
-10z"/>
<path d="M11973 711 c-101 -47 -176 -167 -191 -306 -18 -165 4 -278 65 -336
52 -50 73 -59 138 -59 70 0 119 24 173 85 39 44 79 135 68 153 -5 9 -116 37
-120 30 -1 -1 -11 -22 -21 -46 -35 -81 -99 -106 -146 -56 -22 24 -24 33 -24
127 0 135 23 214 77 262 62 57 126 42 149 -36 l12 -40 46 6 c79 11 79 11 71
54 -10 57 -41 111 -84 145 -32 26 -47 31 -104 34 -50 2 -77 -2 -109 -17z"/>
<path d="M12955 708 c-15 -12 -40 -41 -55 -65 -32 -50 -43 -45 -30 13 15 65
16 64 -55 64 -36 0 -65 -4 -65 -8 0 -22 -51 -373 -74 -508 -14 -84 -26 -157
-26 -163 0 -7 24 -11 65 -11 36 0 65 1 65 3 0 23 64 357 76 397 23 78 86 140
141 140 l40 0 22 66 c13 36 20 72 17 80 -9 23 -88 18 -121 -8z"/>
<path d="M13541 703 c-57 -30 -105 -81 -139 -148 -62 -125 -59 -393 7 -469 9
-10 36 -32 60 -48 89 -56 224 -23 286 71 38 57 68 141 53 145 -20 6 -106 26
-113 26 -3 0 -14 -20 -24 -43 -36 -83 -105 -111 -152 -61 -22 24 -24 33 -24
127 1 132 23 207 75 259 61 61 128 47 151 -33 l12 -40 46 6 c79 11 81 13 74
48 -10 56 -47 120 -86 151 -32 26 -48 31 -105 34 -58 3 -74 0 -121 -25z"/>
<path d="M15000 714 c-45 -20 -87 -59 -111 -106 -26 -51 -24 -64 12 -72 53
-10 99 -7 99 7 0 18 40 53 68 60 61 15 105 -32 94 -101 -5 -40 -13 -43 -144
-66 -115 -21 -154 -43 -185 -106 -30 -57 -31 -166 -4 -225 50 -111 158 -127
245 -36 33 35 46 32 46 -10 l0 -29 63 0 62 0 1 93 c1 50 9 132 19 182 11 54
19 136 19 207 1 132 -8 154 -80 195 -47 27 -150 31 -204 7z m132 -410 c-7 -82
-70 -164 -127 -164 -79 0 -98 131 -25 170 23 13 131 39 145 36 5 -2 8 -20 7
-42z"/>
<path d="M2317 713 c-4 -3 -7 -18 -7 -32 0 -14 -23 -162 -50 -329 -28 -167
-50 -308 -50 -313 0 -6 29 -9 68 -7 66 3 67 3 70 33 2 17 22 149 46 295 24
146 47 286 51 313 l6 47 -64 0 c-35 0 -67 -3 -70 -7z"/>
<path d="M3150 633 c-7 -49 -31 -203 -54 -343 l-42 -255 64 -3 c35 -2 67 -1
70 2 5 6 50 278 82 506 12 80 23 153 26 163 5 15 -3 17 -64 17 l-70 0 -12 -87z"/>
<path d="M13157 698 c-6 -23 -38 -232 -81 -515 l-22 -153 66 0 67 0 22 142
c46 292 82 514 87 531 5 15 -3 17 -64 17 -64 0 -70 -2 -75 -22z"/>
<path d="M14010 712 c0 -4 -11 -71 -25 -147 -13 -77 -36 -216 -50 -310 -14
-93 -28 -183 -31 -198 l-6 -28 69 3 68 3 18 120 c10 66 33 214 52 328 19 115
35 215 35 223 0 11 -16 14 -65 14 -36 0 -65 -4 -65 -8z"/>
</g>
</svg>
