<svg width="29" height="23" viewBox="0 0 29 23" fill="none" xmlns="http://www.w3.org/2000/svg">
<g clip-path="url(#clip0_2_4796)">
<path d="M5.27169 22.8854V21.3632C5.27169 20.7795 4.92346 20.399 4.32658 20.399C4.0282 20.399 3.70489 20.5005 3.48105 20.8303C3.30705 20.5512 3.0584 20.399 2.68536 20.399C2.4366 20.399 2.18806 20.4751 1.98902 20.7542V20.4497H1.4668V22.8854H1.98902V21.5407C1.98902 21.1095 2.21287 20.9064 2.56109 20.9064C2.90909 20.9064 3.08332 21.1348 3.08332 21.5407V22.8854H3.60555V21.5407C3.60555 21.1095 3.85409 20.9064 4.17739 20.9064C4.52562 20.9064 4.69962 21.1348 4.69962 21.5407V22.8854H5.27169ZM13.0055 20.4497H12.1601V19.714H11.6379V20.4497H11.1654V20.9317H11.6378V22.0482C11.6378 22.6064 11.8616 22.9362 12.4585 22.9362C12.6823 22.9362 12.9309 22.8601 13.1051 22.7586L12.9558 22.3019C12.8066 22.4034 12.6326 22.4288 12.5082 22.4288C12.2596 22.4288 12.1601 22.2766 12.1601 22.0228V20.9317H13.0055V20.4497ZM17.4321 20.3989C17.1337 20.3989 16.9348 20.5512 16.8104 20.7542V20.4497H16.2882V22.8854H16.8104V21.5154C16.8104 21.1095 16.9844 20.8811 17.3077 20.8811C17.4072 20.8811 17.5316 20.9065 17.631 20.9318L17.7802 20.4244C17.6807 20.399 17.5315 20.399 17.4321 20.399V20.3989ZM10.7426 20.6527C10.4938 20.4751 10.1457 20.399 9.77269 20.399C9.17593 20.399 8.77808 20.7034 8.77808 21.1855C8.77808 21.5915 9.07646 21.8198 9.59869 21.896L9.84734 21.9214C10.1209 21.972 10.2701 22.0482 10.2701 22.1751C10.2701 22.3526 10.0712 22.4795 9.72296 22.4795C9.37485 22.4795 9.10127 22.3526 8.92716 22.2258L8.67851 22.6317C8.95208 22.8347 9.32512 22.9362 9.69804 22.9362C10.3944 22.9362 10.7923 22.6064 10.7923 22.1497C10.7923 21.7183 10.469 21.4899 9.97161 21.4139L9.72296 21.3885C9.49912 21.363 9.32512 21.3124 9.32512 21.1602C9.32512 20.9826 9.49912 20.8811 9.77269 20.8811C10.0712 20.8811 10.3696 21.0079 10.5188 21.084L10.7426 20.6527ZM24.619 20.399C24.3205 20.399 24.1216 20.5512 23.9972 20.7542V20.4497H23.475V22.8854H23.9972V21.5154C23.9972 21.1095 24.1713 20.8811 24.4945 20.8811C24.5941 20.8811 24.7185 20.9065 24.8179 20.9318L24.9671 20.4244C24.8676 20.399 24.7185 20.399 24.619 20.399ZM17.9543 21.6676C17.9543 22.4034 18.4516 22.9362 19.2226 22.9362C19.5707 22.9362 19.8194 22.8601 20.068 22.6572L19.8194 22.2258C19.6205 22.378 19.4215 22.4541 19.1977 22.4541C18.7749 22.4541 18.4765 22.1497 18.4765 21.6676C18.4765 21.2109 18.7749 20.9064 19.1977 20.8811C19.4215 20.8811 19.6205 20.9571 19.8194 21.1095L20.068 20.6781C19.8194 20.4751 19.5707 20.399 19.2226 20.399C18.4516 20.399 17.9543 20.9318 17.9543 21.6676ZM22.7787 21.6676V20.4497H22.2565V20.7542C22.0824 20.5259 21.8337 20.399 21.5104 20.399C20.839 20.399 20.3168 20.9318 20.3168 21.6676C20.3168 22.4034 20.839 22.9362 21.5104 22.9362C21.8586 22.9362 22.1073 22.8094 22.2565 22.581V22.8854H22.7787V21.6676ZM20.8638 21.6676C20.8638 21.2363 21.1374 20.8811 21.585 20.8811C22.0077 20.8811 22.3062 21.2109 22.3062 21.6676C22.3062 22.0989 22.0077 22.4541 21.585 22.4541C21.1374 22.4287 20.8638 22.0989 20.8638 21.6676ZM14.622 20.399C13.9257 20.399 13.4283 20.9064 13.4283 21.6676C13.4283 22.4288 13.9256 22.9362 14.6468 22.9362C14.995 22.9362 15.3432 22.8347 15.6168 22.6064L15.368 22.2258C15.1691 22.378 14.9204 22.4795 14.6718 22.4795C14.3485 22.4795 14.0252 22.3273 13.9505 21.8959H15.7162V21.693C15.7411 20.9064 15.2935 20.399 14.6219 20.399H14.622ZM14.622 20.8557C14.9452 20.8557 15.1692 21.0587 15.2188 21.4393H13.9754C14.0252 21.1095 14.249 20.8557 14.622 20.8557ZM27.5782 21.6676V19.4856H27.056V20.7542C26.8819 20.5259 26.6332 20.399 26.3099 20.399C25.6385 20.399 25.1163 20.9318 25.1163 21.6676C25.1163 22.4034 25.6385 22.9362 26.3099 22.9362C26.6582 22.9362 26.9068 22.8094 27.056 22.581V22.8854H27.5782V21.6676ZM25.6634 21.6676C25.6634 21.2363 25.9369 20.8811 26.3846 20.8811C26.8074 20.8811 27.1057 21.2109 27.1057 21.6676C27.1057 22.0989 26.8074 22.4541 26.3846 22.4541C25.9369 22.4287 25.6634 22.0989 25.6634 21.6676ZM8.20601 21.6676V20.4497H7.68378V20.7542C7.50967 20.5259 7.26102 20.399 6.93771 20.399C6.2663 20.399 5.74407 20.9318 5.74407 21.6676C5.74407 22.4034 6.2663 22.9362 6.93771 22.9362C7.28594 22.9362 7.53459 22.8094 7.68378 22.581V22.8854H8.20601V21.6676ZM6.2663 21.6676C6.2663 21.2363 6.53987 20.8811 6.98744 20.8811C7.41021 20.8811 7.70871 21.2109 7.70871 21.6676C7.70871 22.0989 7.41021 22.4541 6.98744 22.4541C6.53987 22.4287 6.2663 22.0989 6.2663 21.6676Z" fill="black"/>
<path d="M10.5693 1.95337H18.4027V16.314H10.5693V1.95337Z" fill="#FF5F00"/>
<path d="M11.0663 9.134C11.0663 6.21624 12.4092 3.62822 14.4732 1.95361C12.9563 0.735769 11.0415 0 8.95262 0C4.0037 0 0 4.08487 0 9.134C0 14.183 4.0037 18.268 8.9525 18.268C11.0414 18.268 12.9562 17.5322 14.4732 16.3143C12.4092 14.6651 11.0663 12.0518 11.0663 9.134Z" fill="#EB001B"/>
<path d="M28.9722 9.134C28.9722 14.183 24.9685 18.268 20.0197 18.268C17.9308 18.268 16.016 17.5322 14.499 16.3143C16.5879 14.6398 17.906 12.0518 17.906 9.134C17.906 6.21624 16.563 3.62822 14.499 1.95361C16.0159 0.735769 17.9308 0 20.0197 0C24.9685 0 28.9723 4.1103 28.9723 9.134H28.9722Z" fill="#F79E1B"/>
</g>
<defs>
<clipPath id="clip0_2_4796">
<rect width="29" height="23" fill="white"/>
</clipPath>
</defs>
</svg>
