<svg width="32" height="32" viewBox="0 0 32 32" fill="none" xmlns="http://www.w3.org/2000/svg">
<path d="M11.429 12.638C11.1024 12.772 11.5157 13.006 11.7444 13.0073C11.8484 13.0212 11.9543 13.0095 12.0528 12.9733C12.1513 12.937 12.2395 12.8773 12.3098 12.7993C12.38 12.7213 12.4302 12.6274 12.456 12.5256C12.4817 12.4239 12.4823 12.3174 12.4577 12.2153C12.253 11.6387 11.2864 11.4067 10.533 11.5887C9.44703 11.852 9.02836 12.7487 9.44103 13.4547C9.98236 14.3827 11.607 14.732 12.8844 14.342C14.4737 13.8573 15.0617 12.5007 14.351 11.4373C13.4977 10.162 11.211 9.69599 9.42503 10.292C7.33836 10.9887 6.58169 12.8033 7.58836 14.216C8.74303 15.8347 11.6884 16.4173 13.973 15.6167C16.553 14.7133 17.4764 12.4433 16.1757 10.688C14.7257 8.72866 11.1284 8.03066 8.35036 9.03332C5.28236 10.1407 4.19369 12.8607 5.78369 14.9573C7.52569 17.2533 11.7704 18.0653 15.037 16.8627C18.5884 15.554 19.8417 12.3867 17.9637 9.95332C15.9324 7.32266 11.045 6.39599 7.29503 7.79866C3.26169 9.30666 1.84503 12.9187 4.00969 15.686C5.38636 17.4467 8.00569 18.628 10.8737 18.8247" stroke="black" stroke-linecap="round" stroke-linejoin="round"/>
<path d="M18.8269 18.7494V12.1941M10.8729 18.8248H28.9996V24.8534H10.8263C6.41426 24.8534 3.00293 21.9134 3.00293 18.0714V12.7968L10.8729 18.8248ZM6.3936 23.5721V22.0654V23.5721ZM8.65426 24.4768V21.4621V24.4768ZM10.9149 24.8534V23.3468V24.8534ZM13.1756 24.8534V21.8388V24.8534ZM15.4356 24.8534V23.3468V24.8534ZM17.6969 24.8534V21.8388V24.8534ZM19.9569 24.8534V23.3468V24.8534ZM24.4783 24.8534V23.3468V24.8534ZM22.2183 24.8534V21.8388V24.8534ZM26.7389 24.8534V21.8388V24.8534Z" stroke="black" stroke-linecap="round" stroke-linejoin="round"/>
</svg>
