<?xml version="1.0" encoding="UTF-8"?>
<svg xmlns="http://www.w3.org/2000/svg" xmlns:xlink="http://www.w3.org/1999/xlink" width="px" height="px" viewBox="0 0 205 205" version="1.1">
<g id="surface1">
<path style=" stroke:none;fill-rule:nonzero;fill:rgb(0,0,0);fill-opacity:1;" d="M 102.496094 0 C 45.886719 0 0 45.886719 0 102.496094 C 0 159.105469 45.886719 204.992188 102.496094 204.992188 C 159.105469 204.992188 204.992188 159.105469 204.992188 102.496094 C 204.949219 45.910156 159.089844 0.0507812 102.496094 0 Z M 102.496094 196.082031 C 50.8125 196.082031 8.910156 154.179688 8.910156 102.496094 C 8.910156 50.8125 50.8125 8.910156 102.496094 8.910156 C 154.179688 8.910156 196.082031 50.8125 196.082031 102.496094 C 196.03125 154.164062 154.164062 196.03125 102.496094 196.082031 Z M 102.496094 196.082031 "/>
<path style=" stroke:none;fill-rule:nonzero;fill:rgb(0,0,0);fill-opacity:1;" d="M 106.953125 103.390625 L 106.953125 40.105469 C 106.953125 37.648438 104.960938 35.648438 102.496094 35.648438 C 100.03125 35.648438 98.039062 37.640625 98.039062 40.105469 L 98.039062 105.347656 C 98.039062 106.570312 98.550781 107.738281 99.464844 108.554688 L 144.03125 150.269531 C 144.820312 151.097656 145.917969 151.554688 147.058594 151.519531 C 149.519531 151.480469 151.488281 149.457031 151.449219 147 C 151.4375 145.8125 150.941406 144.675781 150.089844 143.851562 L 106.953125 103.382812 Z M 106.953125 103.390625 "/>
</g>
</svg>
