<?xml version="1.0" encoding="UTF-8"?>
<svg xmlns="http://www.w3.org/2000/svg" xmlns:xlink="http://www.w3.org/1999/xlink" width="px" height="px" viewBox="0 0 238 179" version="1.1">
<g id="surface1">
<path style=" stroke:none;fill-rule:nonzero;fill:rgb(0,0,0);fill-opacity:1;" d="M 208.152344 0 L 29.847656 0 C 13.433594 0 0.125 13.359375 0.125 29.835938 L 0.125 149.164062 C 0.125 165.640625 13.433594 179 29.847656 179 L 208.160156 179 C 224.574219 179 237.878906 165.640625 237.878906 149.164062 L 237.878906 29.835938 C 237.878906 13.359375 224.574219 0 208.160156 0 Z M 150.976562 81.222656 L 222.210938 25.035156 C 222.726562 26.546875 223.015625 28.152344 223.015625 29.835938 L 223.015625 149.164062 C 223.015625 150.496094 222.824219 151.78125 222.496094 153.015625 Z M 208.152344 14.914062 C 209.015625 14.914062 209.867188 15.003906 210.691406 15.144531 L 119 87.464844 L 27.308594 15.152344 C 28.132812 15.011719 28.976562 14.921875 29.847656 14.921875 L 208.160156 14.921875 Z M 15.503906 153.015625 C 15.175781 151.78125 14.984375 150.496094 14.984375 149.164062 L 14.984375 29.835938 C 14.984375 28.152344 15.273438 26.546875 15.789062 25.035156 L 87.023438 81.222656 Z M 29.847656 164.078125 C 28.519531 164.078125 27.242188 163.882812 26.011719 163.554688 L 98.789062 90.496094 L 114.40625 102.816406 C 115.714844 103.847656 117.332031 104.410156 119 104.417969 C 120.667969 104.417969 122.285156 103.855469 123.59375 102.816406 L 139.210938 90.496094 L 211.988281 163.554688 C 210.757812 163.882812 209.480469 164.078125 208.152344 164.078125 Z M 29.847656 164.078125 "/>
</g>
</svg>
