<?xml version="1.0" encoding="UTF-8"?>
<svg xmlns="http://www.w3.org/2000/svg" xmlns:xlink="http://www.w3.org/1999/xlink" width="px" height="px" viewBox="0 0 224 223" version="1.1">
<g id="surface1">
<path style=" stroke:none;fill-rule:nonzero;fill:rgb(0,0,0);fill-opacity:1;" d="M 219.328125 160.492188 L 185.78125 127.09375 C 182.796875 124.113281 178.828125 122.480469 174.605469 122.480469 L 174.589844 122.480469 C 170.367188 122.480469 166.402344 124.121094 163.414062 127.09375 L 141.050781 149.359375 L 73.941406 82.550781 L 96.304688 60.285156 C 102.480469 54.140625 102.480469 44.140625 96.300781 38.003906 L 62.746094 4.605469 C 59.757812 1.636719 55.792969 0 51.570312 0 L 51.5625 0 C 47.332031 0 43.355469 1.644531 40.378906 4.621094 L 6.824219 38.027344 C 5.804688 39.035156 -3.039062 48.5625 1.164062 69.496094 C 6.113281 94.136719 26.835938 124.757812 62.746094 160.511719 C 114.140625 211.679688 146.554688 223 165.1875 223 C 178.078125 223 184.371094 217.570312 185.78125 216.175781 L 219.328125 182.777344 C 222.320312 179.800781 223.96875 175.84375 223.960938 171.632812 C 223.960938 167.425781 222.320312 163.460938 219.328125 160.492188 Z M 174.597656 205.035156 C 174.375 205.257812 147.636719 222.746094 73.925781 149.375 C -1.371094 74.417969 18.039062 49.152344 18.007812 49.160156 L 51.5625 15.746094 L 85.117188 49.160156 L 57.15625 76.992188 C 54.066406 80.070312 54.066406 85.050781 57.15625 88.125 L 135.441406 166.0625 C 138.53125 169.136719 143.535156 169.136719 146.625 166.0625 L 174.582031 138.21875 L 208.136719 171.632812 L 174.589844 205.027344 Z M 174.597656 205.035156 "/>
</g>
</svg>
