<?xml version="1.0" encoding="UTF-8"?>
<svg xmlns="http://www.w3.org/2000/svg" xmlns:xlink="http://www.w3.org/1999/xlink" width="41.6px" height="50px" viewBox="0 0 413 608" version="1.1">
<g id="surface1">
<path style=" stroke:none;fill-rule:nonzero;fill:#000000;fill-opacity:1;" d="M 206.515625 0.15625 C 92.472656 0.15625 0 92.609375 0 206.667969 C 0 251.222656 14.101562 292.5 38.09375 326.242188 C 38.117188 326.277344 38.140625 326.308594 38.160156 326.347656 C 93.511719 412.839844 186.34375 490.769531 197.472656 601.0625 C 198.570312 604.960938 202.46875 607.835938 206.5 607.835938 C 210.53125 607.835938 214.429688 604.960938 215.527344 601.0625 C 226.65625 490.769531 319.488281 412.832031 374.839844 326.347656 C 374.859375 326.308594 374.882812 326.277344 374.90625 326.242188 C 398.898438 292.5 413 251.222656 413 206.667969 C 413 92.609375 320.570312 0.15625 206.515625 0.15625 Z M 206.5 336.179688 C 134.1875 336.179688 75.5625 277.578125 75.5625 205.292969 C 75.5625 133.007812 134.1875 74.402344 206.5 74.402344 C 278.8125 74.402344 337.4375 133 337.4375 205.285156 C 337.4375 277.570312 278.8125 336.171875 206.5 336.171875 Z M 206.5 336.179688 "/>
</g>
</svg>
